<?xml version="1.0" encoding="UTF-8"?>
<svg width="64px" height="64px" viewBox="0 0 64 64" version="1.1" xmlns="http://www.w3.org/2000/svg" xmlns:xlink="http://www.w3.org/1999/xlink">
    <!-- Generator: Sketch 44.1 (41455) - http://www.bohemiancoding.com/sketch -->
    <title>软件包安装器-64px</title>
    <desc>Created with Sketch.</desc>
    <defs>
        <path d="M53,23 L54.4348594,23 C55.2646528,23 56.2098939,23.6115794 56.5508169,24.3765526 L60.6718497,33.6234474 C61.0106674,34.3836964 60.606021,35 59.7758055,35 L56,35 L56,57.4960938 C56,58.3266782 55.3214569,59 54.497526,59 L9.50247397,59 C8.67268051,59 8,58.3320817 8,57.4960938 L8,35 L4.11352787,35 C3.27983865,35 2.87581307,34.3884206 3.21580115,33.6234474 L7.32553219,24.3765526 C7.66342063,23.6163036 8.61587642,23 9.4398073,23 L11,23 L11,6.5 C11,5.5 11.5,5 12.5,5 L40,5 L53,18 L53,23 L53,23 Z" id="path-1"></path>
        <filter x="-8.7%" y="-7.4%" width="117.3%" height="118.5%" filterUnits="objectBoundingBox" id="filter-2">
            <feOffset dx="0" dy="1" in="SourceAlpha" result="shadowOffsetOuter1"></feOffset>
            <feGaussianBlur stdDeviation="1.5" in="shadowOffsetOuter1" result="shadowBlurOuter1"></feGaussianBlur>
            <feComposite in="shadowBlurOuter1" in2="SourceAlpha" operator="out" result="shadowBlurOuter1"></feComposite>
            <feColorMatrix values="0 0 0 0 0   0 0 0 0 0   0 0 0 0 0  0 0 0 0.2 0" type="matrix" in="shadowBlurOuter1"></feColorMatrix>
        </filter>
        <linearGradient x1="49.9995456%" y1="0.694444444%" x2="49.9995462%" y2="41.1461793%" id="linearGradient-3">
            <stop stop-color="#FFFFFF" offset="0%"></stop>
            <stop stop-color="#C7D9E9" offset="100%"></stop>
        </linearGradient>
    </defs>
    <g id="Page-1" stroke="none" stroke-width="1" fill="none" fill-rule="evenodd">
        <g id="软件包安装器-64px">
            <g id="Combined-Shape">
                <use fill="black" fill-opacity="1" filter="url(#filter-2)" xlink:href="#path-1"></use>
                <use fill-opacity="0" fill="#FFCD6F" fill-rule="evenodd" xlink:href="#path-1"></use>
            </g>
            <path d="M51.5,57 L12.5,57 C11.5,57 11,56.5 11,55.5 L11,6.5 C11,5.5 11.5,5 12.5,5 L40,5 L53,18 L53,55.5 C53,57 51.5,57 51.5,57 Z" id="path14361" fill="#D70751"></path>
            <g id="Group" transform="translate(21.333333, 41.000000)" fill="#FFFFFF">
                <path d="M2.85516517,3.30855428 C2.84604725,3.31695707 2.84604725,4.65049789 2.82720355,4.99858798 C2.80856246,5.27999208 2.78019559,5.88481426 2.10425363,5.88481426 C1.40946795,5.88481426 1.24048246,5.18058885 1.18415397,4.87433394 C1.11850493,4.53464664 1.11850493,4.25270618 1.11850493,4.12880971 C1.11850493,3.73101801 1.14666918,2.62059811 2.20759008,2.62059811 C2.52691998,2.62059811 2.70522601,2.70373211 2.84604725,2.76970295 L2.85516517,3.30855428 L2.85516517,3.30855428 Z M0.132553606,4.28631735 C0.132553606,6.62229326 1.54096866,6.62229326 1.74743894,6.62229326 C2.32956761,6.62229326 2.70522601,6.34053158 2.86468834,5.85191822 L2.88353204,6.58903966 C3.0620407,6.58063687 3.24034673,6.56418885 3.53130976,6.56418885 C3.63464621,6.56418885 3.71893634,6.56418885 3.79431116,6.57259164 C3.86948336,6.57259164 3.94445295,6.58063687 4.02894569,6.58903966 C3.87880391,6.32408357 3.76614691,5.72766419 3.76614691,4.43488584 C3.76614691,3.17571867 3.76614691,1.04677322 3.88812445,0.400473446 C3.55035609,0.541533065 3.25898782,0.632712287 2.62053064,0.68223512 C2.87400888,0.922519187 2.87400888,1.04677322 2.87400888,2.14002997 C2.69590547,2.09050714 2.47038886,2.03240274 2.08540992,2.03240274 C0.404875549,2.03258152 0.132553606,3.32500229 0.132553606,4.28631735 L0.132553606,4.28631735 Z" id="path2550"></path>
                <path d="M5.2244066,3.86331727 C5.23392977,3.17571867 5.39359471,2.56267249 6.06001352,2.56267249 C6.7924866,2.56267249 6.84840986,3.27494311 6.82976877,3.86331727 L5.2244066,3.86331727 L5.2244066,3.86331727 Z M7.75918897,3.94645127 C7.75918897,2.97709099 7.54339815,2.02417873 6.15382681,2.02417873 C4.2386579,2.02417873 4.2386579,3.89692843 4.2386579,4.29418379 C4.2386579,5.9758147 5.0929059,6.63856249 6.5294852,6.63856249 C7.16753713,6.63856249 7.47774911,6.55614363 7.6467346,6.51430845 C7.63741406,6.21609876 7.68421939,6.02551631 7.74095313,5.76878423 C7.54339815,5.87676903 7.28991991,6.01747109 6.72663494,6.01747109 C5.26189139,6.01747109 5.24304769,4.84072277 5.24304769,4.43488584 L7.74095313,4.43488584 L7.75918897,3.94645127 L7.75918897,3.94645127 Z" id="path2552"></path>
                <path d="M10.8136929,4.30258658 C10.8136929,5.07296162 10.6542306,6.10865031 9.56514543,6.10865031 C9.41480102,6.10865031 9.22717445,6.08344193 9.10519691,6.05876991 C9.0863532,5.76056022 9.0863532,5.24691727 9.0863532,4.65049789 C9.0863532,3.93786969 9.17064333,3.56564393 9.23669761,3.38292792 C9.43364473,2.79491133 9.87495216,2.7868661 9.95924229,2.7868661 C10.6728717,2.7868661 10.8136929,3.65664437 10.8136929,4.30258658 L10.8136929,4.30258658 Z M8.11924559,5.20561844 C8.11924559,5.81884341 8.11924559,6.16657593 8.0065886,6.43153202 C8.39156753,6.56418885 8.87015714,6.63856249 9.44316789,6.63856249 C9.80930312,6.63856249 10.870224,6.63856249 11.4428295,5.60323136 C11.7151515,5.12266323 11.8089648,4.47636345 11.8089648,3.98757131 C11.8089648,3.68936162 11.7712774,3.03501661 11.499158,2.62059811 C11.2365619,2.23156676 10.8138955,2.03258152 10.3634702,2.03258152 C9.4620116,2.03258152 9.19921282,2.69532931 9.0585942,3.03501661 C9.0585942,2.61255288 9.06771212,1.13795245 9.1426817,0.384025429 C8.5325914,0.632712287 8.15673038,0.673832329 7.75331298,0.707085927 C8.11944821,0.839385191 8.11944821,1.38663931 8.11944821,3.16785222 L8.11944821,5.20561844 L8.11924559,5.20561844 Z" id="path2554"></path>
                <path d="M13.6139081,6.58903966 C13.4258763,6.56418885 13.294173,6.54756205 13.021851,6.54756205 C12.7219727,6.54756205 12.5148946,6.56436763 12.2993064,6.58903966 C12.3931197,6.43153202 12.4306044,6.35680082 12.4587687,5.81866462 C12.4964561,5.08118562 12.5057766,3.10939025 12.4401276,2.69515053 C12.3931197,2.38013526 12.3088295,2.33061243 12.1773288,2.247836 C12.9470841,2.18150758 13.1630775,2.13198475 13.5196896,1.9828799 C13.4449226,2.34706044 13.4349942,2.52977645 13.4349942,3.08453944 C13.4165558,5.94309745 13.4070326,6.24935236 13.6139081,6.58903966" id="path2556"></path>
                <path d="M16.620391,4.24430339 C16.6017499,4.76634913 16.5922268,5.13088724 16.4323592,5.42069414 C16.2352094,5.79363503 15.9067616,5.90126227 15.6626039,5.90126227 C15.0987111,5.90126227 14.9771388,5.48720134 14.9771388,5.08136441 C14.9771388,4.30276536 15.7659404,4.24430339 16.1223498,4.24430339 L16.620391,4.24430339 L16.620391,4.24430339 Z M14.0381954,5.26354407 C14.0381954,5.78558981 14.2167041,6.30727798 14.7427069,6.53111404 C14.9773414,6.62229326 15.211976,6.62229326 15.2873508,6.62229326 C16.1513246,6.62229326 16.442085,6.05876991 16.6205936,5.7108586 C16.6110705,6.07539671 16.6205936,6.29887519 16.6487579,6.58903966 C16.8177434,6.58063687 16.9867289,6.56418885 17.268574,6.56418885 C17.4280363,6.56418885 17.5783807,6.58063687 17.737843,6.58903966 C17.6345066,6.4483376 17.5783807,6.36520361 17.5498112,6.04214311 C17.5311701,5.7274854 17.5311701,5.41264891 17.5311701,4.97355838 L17.5406933,3.28352469 C17.5406933,2.65367293 17.3526615,2.03240274 15.9442464,2.03240274 C15.0150288,2.03240274 14.4705876,2.28108959 14.1982656,2.40534363 C14.3111252,2.58770208 14.4049385,2.74467336 14.4892287,3.10134503 C14.8557691,2.81958335 15.3345614,2.67047851 15.8224715,2.67047851 C16.6021552,2.67047851 16.6021552,3.12619583 16.6021552,3.77213805 C16.4236465,3.76409282 16.2733021,3.74764481 16.0196212,3.74764481 C14.8267944,3.74782359 14.0381954,4.15312417 14.0381954,5.26354407 L14.0381954,5.26354407 Z" id="path2558"></path>
                <path d="M22.028332,5.76896301 C22.0378551,6.05072468 22.0378551,6.34893437 22.1691532,6.58921844 C21.9622777,6.57277043 21.8403002,6.54774083 21.4557265,6.54774083 C21.2302098,6.54774083 21.1082323,6.56454642 20.9297237,6.58921844 C20.9670058,6.4815912 20.9862548,6.4401136 21.0048959,6.29905398 C21.0330601,6.10882909 21.0519038,5.47075332 21.0519038,5.24691727 L21.0519038,4.3522882 C21.0519038,3.96289928 21.0519038,3.39937593 21.0233343,3.20074826 C21.0046932,3.0600462 20.9580905,2.67906008 20.4130414,2.67906008 C19.8779207,2.67906008 19.6996146,3.0267926 19.633763,3.30855428 C19.558996,3.59836118 19.558996,3.91337645 19.558996,5.13929003 C19.5681139,6.19982953 19.5681139,6.29887519 19.6619272,6.58903966 C19.5024649,6.57259164 19.3053152,6.55614363 19.0236727,6.55614363 C18.7981561,6.55614363 18.6480143,6.56418885 18.4605903,6.58903966 C18.5262394,6.45638283 18.5639268,6.39005442 18.5825679,5.92629186 C18.6016142,5.47057454 18.639099,3.23364429 18.5539984,2.70373211 C18.5073957,2.38031404 18.4131771,2.3059404 18.3102459,2.22316397 C19.0708833,2.18991037 19.3146357,2.08210435 19.5496755,1.97483468 L19.5496755,2.85265817 C19.6621299,2.59556852 19.8967644,2.02399995 20.8359104,2.02399995 C22.0096909,2.02399995 22.0188088,2.77792696 22.028332,3.27476433 L22.028332,5.76896301" id="path2560"></path>
                <polyline id="path2562" points="13.6931327 0.810422379 12.9154753 1.49623315 12.1382231 0.810422379 12.9154753 0.124611603 13.6931327 0.810422379"></polyline>
            </g>
            <path d="M39.9952812,25.572036 L39.5473494,25.7947896 C39.1811739,26.506354 39.5837234,26.2465322 39.321477,26.8122508 C38.749177,27.3204613 37.5872553,28.4020119 37.2151911,28.50109 C36.9432444,28.4951692 37.3991445,28.1802969 37.4587305,28.0573149 C36.6934696,28.5825012 36.844513,28.845787 35.6739297,29.16554 C32.7542299,30.4469797 28.7453588,27.7562682 28.7980152,24.0855105 C28.7675263,24.3183103 28.7103679,24.2601103 28.6466259,24.3536464 C28.4976619,22.465264 29.5189338,20.5685668 31.2413765,19.7929137 C32.9260584,18.9594059 34.901048,19.3009848 36.1069667,20.426531 C35.4445954,19.5583811 34.1250489,18.6379201 32.5623083,18.7231413 C31.0307486,18.7480874 29.5975722,19.7212027 29.1195003,20.7781561 C28.3351863,21.271817 28.2437289,22.6821281 27.90215,22.9405638 C27.4417473,26.3217079 28.7671832,27.7819042 31.0096154,29.5005368 C31.3615872,29.7381867 31.1086943,29.7745615 31.1558079,29.9553975 C30.4109868,29.6068905 29.7292151,29.0803188 29.1680007,28.4356153 C29.46593,28.8710762 29.7870698,29.2944116 30.2024376,29.6269836 C29.4995334,29.3896797 28.561058,27.9249793 28.2877252,27.865394 C29.4984947,30.0333439 33.1993904,31.667448 35.1383519,30.8564588 C34.2411014,30.8897155 33.101699,30.8748206 32.0942833,30.5024083 C31.6699087,30.2845048 31.0951833,29.8338008 31.1980729,29.749619 C33.8434027,30.7372868 36.5753391,30.4972122 38.8638456,28.6628723 C39.4465392,28.2090509 40.0825826,27.4375539 40.2665353,27.427161 C39.9897385,27.8435682 40.3139949,27.6273974 40.101289,27.9949582 C40.6805185,27.0592542 39.848742,27.6138865 40.7006102,26.3792145 L41.0151685,26.8122508 C40.8973826,26.0348649 41.9799718,25.0918854 41.8698074,23.8634496 C42.1181969,23.4879206 42.1466042,24.2680785 41.8833184,25.1320716 C42.2488011,24.1735031 41.9799718,24.0193423 42.0735072,23.2280995 C42.1743181,23.4941567 42.3083864,23.7764963 42.3766319,24.0574499 C42.13829,23.1307534 42.620172,22.4974814 42.7400366,21.9587848 C42.6215573,21.9068167 42.3724758,22.3682639 42.3149679,21.2742417 C42.323628,20.7989419 42.4476501,21.0251595 42.4951112,20.9080669 C42.4022678,20.8543725 42.1573423,20.4899277 42.0087258,19.7911809 C42.1157715,19.6266273 42.2969534,20.2169424 42.4438394,20.2408455 C42.3492646,19.6855206 42.1867897,19.2618379 42.1798609,18.8353845 C41.7502894,17.938134 42.0277782,18.9552492 41.6799638,18.450156 C41.2226784,17.0249485 42.0589568,18.1193167 42.1157715,17.4721877 C42.8079368,18.4750985 43.2025189,20.0305636 43.3843942,20.6745738 C43.2458225,19.8892204 43.0223755,19.128117 42.7490428,18.391956 C42.9600181,18.480988 42.4098893,16.776559 43.0230689,17.905224 C42.3686651,15.4992768 40.2246184,13.2509551 38.2517061,12.1964258 C38.4924741,12.4171014 38.7969848,12.6942441 38.6882071,12.7378937 C37.7064273,12.1541615 37.8789492,12.1080865 37.7382994,11.8614297 C36.9397811,11.5361332 36.8864313,11.8881022 36.3581276,11.8621224 C34.851163,11.0625647 34.5608552,11.1474399 33.1741026,10.6471969 L33.2371491,10.9423541 C32.2390891,10.6097827 32.0741881,11.0677615 30.9957563,10.9430475 C30.9302772,10.8921209 31.3414919,10.7573613 31.6802987,10.7085149 C30.7151487,10.8360004 30.7601844,10.5179794 29.8158209,10.7435051 C30.048274,10.5803368 30.2949308,10.4719051 30.5429743,10.3333333 C29.7562342,10.3811425 28.6639455,10.7913121 29.0010195,10.4178619 C27.7175018,10.9908552 25.4376548,11.7949156 24.1582946,12.9945981 L24.1181112,12.7257695 C23.5319528,13.4293664 21.561814,14.827206 21.4048819,15.7393521 L21.247949,15.7757262 C20.9434383,16.2922509 20.7456273,16.8773692 20.5038199,17.4084442 C20.1050804,18.088484 19.919049,17.670344 19.9758629,17.7770444 C19.1912023,19.3678449 18.8007777,20.7043664 18.4643941,21.8011593 C18.7041235,22.1597125 18.470315,23.960103 18.5607016,25.4008995 C18.1671597,32.5179294 23.55551,39.4274487 29.4454902,41.0224067 C30.3087899,41.3317675 31.592309,41.320682 32.6842517,41.3511673 C31.3962299,40.9825671 31.2299443,41.1561283 29.9744865,40.7185886 C29.0692685,40.2917885 28.8711115,39.8050557 28.229526,39.2483455 L28.4834576,39.69697 C27.2259218,39.2518095 27.7521467,39.1461485 26.7287975,38.8222381 L27.0000508,38.4685342 C26.5923031,38.4373534 25.9202323,37.7819124 25.7366249,37.4178164 L25.2904243,37.4354862 C24.7548458,36.7751929 24.4690436,36.2981611 24.4901754,35.9285216 L24.3460608,36.1855719 C24.1828933,35.9053111 22.3745353,33.7058358 23.3126633,34.2178571 C23.1384101,34.0591923 22.906649,33.9590747 22.6554888,33.5021353 L22.8463703,33.2842318 C22.3956671,32.703271 22.0156354,31.9587959 22.0447353,31.7107524 C22.2855026,32.0357029 22.4524809,32.0966742 22.6180747,32.1524495 C21.4779781,29.3242064 21.413888,31.9969034 20.5509343,29.2736272 L20.7331563,29.2590747 C20.5935452,29.0474067 20.5079773,28.8191103 20.3957342,28.594278 L20.4754126,27.8026885 C19.6550698,26.8548596 20.2460776,23.7685267 20.3649022,22.0762226 C20.4463133,21.3882154 21.0497913,20.6555193 21.5081168,19.5064152 L21.2288953,19.458606 C21.7630884,18.5274061 24.2781607,15.7175234 25.4435457,15.8616372 C26.0078782,15.1528442 25.331304,15.8588551 25.2207928,15.6808019 C26.4606602,14.3979762 26.8503935,14.7745445 27.6870187,14.5434768 C28.5887726,14.0082443 26.9127502,14.7527194 27.3402437,14.3394303 C28.9002115,13.9413834 28.4453515,13.4338656 30.4799271,13.2318978 C30.6947125,13.3538405 29.982108,13.4203546 29.8033514,13.5786728 C31.1024581,12.9426301 33.9151122,13.0877832 35.74287,13.9313372 C37.8619748,14.9224698 40.2443641,17.8508305 40.3385922,20.6059773 L40.4456392,20.6347328 C40.3915953,21.7301396 40.6133102,22.9970296 40.2284277,24.1603366 L40.4885962,23.6091692 C40.5197763,24.4461424 40.2443634,24.8528501 39.9952812,25.572036 Z" id="path2536" fill="#FFFFFF"></path>
            <path d="M41.2386667,18.0373333 C40.5026667,18.0373333 40,17.4026667 40,16.6666667 L40,5 L53,18.0373333 L41.2386667,18.0373333 Z" id="path14363" fill="#FF5491"></path>
            <rect id="rect11806" fill="#C0D1DF" x="8" y="24" width="48" height="35" rx="1.33333333"></rect>
            <path d="M8,25.5048079 C8,24.6737255 8.67854309,24 9.50247397,24 L54.497526,24 C55.3273195,24 56,24.6791629 56,25.5048079 L56,56.4951921 C56,57.3262745 55.3214569,58 54.497526,58 L9.50247397,58 C8.67268051,58 8,57.3208371 8,56.4951921 L8,25.5048079 Z" id="rect11806" fill="#DEE8F2"></path>
            <g id="Page-1" transform="translate(20.000000, 42.000000)" fill="#10ACFF">
                <path d="M8.48956061,3.01681309 C8.39274242,3.01681309 5.75971212,3.01696382 5.75971212,3.01696382 C5.75971212,3.01696382 5.76031818,2.62671835 5.76031818,2.56717916 C5.76031818,2.41403531 5.9065303,2.26390612 6.06516667,2.26330319 C6.21228788,2.26285099 8.19016667,2.26330319 8.34259091,2.26330319 C8.47986364,2.26330319 8.63925758,2.41644703 8.6385,2.56476744 C8.63789394,2.6823385 8.63607576,2.75423773 8.63607576,2.8662317 C8.63607576,2.8662317 8.63607576,3.01681309 8.48956061,3.01681309 M9.24213636,5.12495263 C9.3985,5.12495263 9.39940909,4.98582687 9.39940909,4.97180879 C9.39910606,4.91950474 9.39834848,4.57704134 9.39834848,4.5242851 C9.39834848,4.37355297 9.24456061,4.37129199 9.24456061,4.37129199 C9.24456061,4.37129199 6.25289394,4.36888028 6.06031818,4.36888028 C5.75501515,4.36888028 5.75971212,4.07495263 5.75971212,4.07495263 C5.75577273,4.05580965 5.75986364,3.76836348 5.75971212,3.76836348 L8.79122727,3.76836348 C9.63289394,3.76836348 9.54759091,3.16543497 9.54759091,3.16543497 L9.54759091,2.56793282 C9.54759091,2.56793282 9.62971212,1.50738157 8.48940909,1.50738157 L5.9354697,1.50738157 C4.77486364,1.50738157 4.8535,2.553764 4.8535,2.553764 C4.8535,3.1205168 4.85380303,3.32310078 4.85380303,4.06862188 C4.85380303,5.12495263 5.91592424,5.1201292 5.91592424,5.1201292 L9.24213636,5.12495263 Z" id="Fill-1"></path>
                <path d="M3.63615152,4.22419251 C3.63615152,4.22419251 3.63857576,4.37115633 3.48463636,4.37115633 C3.31948485,4.37115633 2.5129697,4.37311585 2.01736364,4.37160853 C1.52175758,4.37010121 0.913878788,4.26187554 0.913575758,3.32778854 C0.913272727,2.39385228 1.58872727,2.26437339 2.01024242,2.26437339 C2.43160606,2.26437339 3.63539394,2.26603144 3.63539394,2.26603144 C3.63539394,2.26603144 3.63615152,4.09034238 3.63615152,4.22419251 M4.39448485,0.150656761 C4.32948485,0.150958226 3.85524242,0.150958226 3.79039394,0.150656761 C3.79039394,0.150656761 3.63872727,0.150656761 3.63872727,0.306212317 C3.63872727,0.318572351 3.6379697,1.50724591 3.6379697,1.50724591 C3.00024242,1.50709518 2.33948485,1.50754737 1.67569697,1.50724591 C0.249787879,1.50679371 -0.00127272727,2.73526055 -6.06060607e-05,3.31829242 C0.00145454545,3.90102283 0.25630303,5.12240525 1.69812121,5.12104866 C3.14009091,5.11969208 3.18054545,5.12285745 3.79084848,5.12285745 C4.54675758,5.12285745 4.54766667,4.37356804 4.54766667,4.37356804 L4.54766667,0.301388889 C4.54766667,0.150656761 4.39448485,0.150656761 4.39448485,0.150656761" id="Fill-3"></path>
                <path d="M20.456697,1.05512489 L19.8506364,1.05512489 C19.767,1.05512489 19.6991212,0.987596899 19.6991212,0.904392765 L19.6991212,0.301464255 C19.6991212,0.218260121 19.767,0.150732127 19.8506364,0.150732127 L20.456697,0.150732127 C20.5403333,0.150732127 20.6082121,0.218260121 20.6082121,0.301464255 L20.6082121,0.904392765 C20.6082121,0.987596899 20.5403333,1.05512489 20.456697,1.05512489" id="Fill-6"></path>
                <path d="M20.456697,5.12489233 L19.8506364,5.12489233 C19.767,5.12489233 19.6991212,5.05736434 19.6991212,4.97416021 L19.6991212,1.6580534 C19.6991212,1.57484927 19.767,1.50732127 19.8506364,1.50732127 L20.456697,1.50732127 C20.5403333,1.50732127 20.6082121,1.57484927 20.6082121,1.6580534 L20.6082121,4.97416021 C20.6082121,5.05736434 20.5403333,5.12489233 20.456697,5.12489233" id="Fill-9"></path>
                <path d="M23.3355,1.50831611 C22.2224697,1.50680879 20.9112576,1.50801464 20.9112576,1.50801464 L20.9112576,4.97183893 C20.9112576,5.04012059 20.955197,5.14096038 21.0926212,5.12347545 C21.240803,5.12302326 21.4736818,5.12211886 21.6218636,5.12166667 C21.8306515,5.1513609 21.8245909,4.96942722 21.8245909,4.96942722 L21.8200455,2.26333333 C21.8200455,2.26333333 22.9286818,2.26227821 23.3342879,2.26227821 C23.3595909,2.26227821 23.9462576,2.27358312 23.9462576,3.01458226 L23.9418636,4.97440138 C23.9417121,5.05775624 24.0095909,5.12543497 24.0935303,5.12543497 L24.6992879,5.12498277 C24.7829242,5.12498277 24.8506515,5.05745478 24.8506515,4.97425065 L24.8506515,2.94614987 C24.8506515,2.11064169 24.4485303,1.50982343 23.3355,1.50831611" id="Fill-11"></path>
                <path d="M15.7599394,2.405941 C15.7599394,2.405941 15.7575152,2.25897717 15.9114545,2.25897717 C16.0766061,2.25897717 16.8831212,2.25701766 17.3787273,2.25852498 C17.8743333,2.2600323 18.4822121,2.36825797 18.4825152,3.30234496 C18.4828182,4.23628122 17.8073636,4.36576012 17.3858485,4.36576012 C16.9643333,4.36576012 15.760697,4.36410207 15.760697,4.36410207 C15.760697,4.36410207 15.7599394,2.53979113 15.7599394,2.405941 M15.0026667,6.47947674 C15.0676667,6.47917528 15.541303,6.47917528 15.6061515,6.47947674 C15.6061515,6.47947674 15.7576667,6.47947674 15.7576667,6.32392119 C15.7576667,6.31156115 15.7581212,5.1228876 15.7581212,5.1228876 C16.396,5.12303833 17.0566061,5.12258613 17.7205455,5.1228876 C19.146303,5.12333979 19.3973636,3.89487295 19.3961515,3.31184109 C19.3946364,2.72911068 19.1397879,1.50772825 17.6979697,1.50908484 C16.256,1.51044143 16.2167576,1.50727606 15.606303,1.50727606 C14.8503939,1.50727606 14.850697,2.25656546 14.850697,2.25656546 L14.850697,6.32874462 C14.850697,6.47947674 15.0026667,6.47947674 15.0026667,6.47947674" id="Fill-16"></path>
                <path d="M13.4895606,3.01681309 C13.3927424,3.01681309 10.7597121,3.01696382 10.7597121,3.01696382 C10.7597121,3.01696382 10.7603182,2.62671835 10.7603182,2.56717916 C10.7603182,2.41403531 10.9065303,2.26390612 11.0651667,2.26330319 C11.2122879,2.26285099 13.1901667,2.26330319 13.3425909,2.26330319 C13.4798636,2.26330319 13.6392576,2.41644703 13.6385,2.56476744 C13.6378939,2.6823385 13.6362273,2.75423773 13.6362273,2.8662317 C13.6362273,2.8662317 13.6362273,3.01681309 13.4895606,3.01681309 M14.2421364,5.12495263 C14.3985,5.12495263 14.3994091,4.98582687 14.3994091,4.97180879 C14.3991061,4.91950474 14.3983485,4.57704134 14.3983485,4.5242851 C14.3983485,4.37355297 14.2445606,4.37129199 14.2445606,4.37129199 C14.2445606,4.37129199 11.2528939,4.36888028 11.0603182,4.36888028 C10.7550152,4.36888028 10.7597121,4.07495263 10.7597121,4.07495263 C10.7557727,4.05580965 10.7598636,3.76836348 10.7597121,3.76836348 L13.7912273,3.76836348 C14.6328939,3.76836348 14.5475909,3.16543497 14.5475909,3.16543497 L14.5475909,2.56793282 C14.5475909,2.56793282 14.6297121,1.50738157 13.4894091,1.50738157 L10.9354697,1.50738157 C9.77486364,1.50738157 9.8535,2.553764 9.8535,2.553764 C9.8535,3.1205168 9.85380303,3.32310078 9.85380303,4.06862188 C9.85380303,5.12495263 10.9159242,5.1201292 10.9159242,5.1201292 L14.2421364,5.12495263 Z" id="Fill-21"></path>
            </g>
            <path d="M60.6718497,33.6234474 C61.0106674,34.3836964 60.606021,35 59.7758055,35 L4.11352787,35 C3.27983865,35 2.87581307,34.3884206 3.21580115,33.6234474 L7.32553219,24.3765526 C7.66342063,23.6163036 8.61587642,23 9.4398073,23 L54.4348594,23 C55.2646528,23 56.2098939,23.6115794 56.5508169,24.3765526 L60.6718497,33.6234474 Z" id="polygon11815" fill="url(#linearGradient-3)"></path>
            <path d="M54.8850301,23.9926014 C55.1582663,23.9926824 55.4723616,24.2005122 55.5817729,24.4460125 L59.6109567,33.4868138 C59.7225209,33.7371449 59.5882025,33.9404944 59.3136679,33.9410028 L4.52846143,34.042448 C4.25270916,34.0429586 4.12259522,33.8331607 4.23299189,33.5847682 L8.29846301,24.4374582 C8.41103196,24.1841781 8.73240141,23.9789222 8.99702511,23.9790006 L54.8850301,23.9926014 Z" id="polygon11815" fill="#F0F8FA"></path>
        </g>
    </g>
</svg>