<?xml version="1.0" encoding="UTF-8" standalone="no"?>
<!DOCTYPE svg PUBLIC "-//W3C//DTD SVG 1.1//EN"
 "http://www.w3.org/Graphics/SVG/1.1/DTD/svg11.dtd">
<!-- Generated by graphviz version 2.40.1 (20161225.0304)
 -->
<!-- Title: G Pages: 1 -->
<svg width="1440pt" height="891pt"
 viewBox="0.00 0.00 1439.94 891.00" xmlns="http://www.w3.org/2000/svg" xmlns:xlink="http://www.w3.org/1999/xlink">
<g id="graph0" class="graph" transform="scale(1 1) rotate(0) translate(4 887)">
<title>G</title>
<polygon fill="#ffffff" stroke="transparent" points="-4,4 -4,-887 1435.943,-887 1435.943,4 -4,4"/>
<!-- A0 -->
<g id="node1" class="node">
<title>A0</title>
<ellipse fill="none" stroke="#000000" cx="488.7355" cy="-865" rx="11" ry="11"/>
</g>
<!-- A1 -->
<g id="node2" class="node">
<title>A1</title>
<path fill="none" stroke="#000000" d="M557.0556,-810C557.0556,-810 420.4154,-810 420.4154,-810 414.4154,-810 408.4154,-804 408.4154,-798 408.4154,-798 408.4154,-786 408.4154,-786 408.4154,-780 414.4154,-774 420.4154,-774 420.4154,-774 557.0556,-774 557.0556,-774 563.0556,-774 569.0556,-780 569.0556,-786 569.0556,-786 569.0556,-798 569.0556,-798 569.0556,-804 563.0556,-810 557.0556,-810"/>
<text text-anchor="middle" x="488.7355" y="-789" font-family="Helvetica,sans-Serif" font-size="10.00" fill="#000000">Start 1 thread per mount point</text>
</g>
<!-- A0&#45;&gt;A1 -->
<g id="edge1" class="edge">
<title>A0&#45;&gt;A1</title>
<path fill="none" stroke="#000000" d="M488.7355,-853.9129C488.7355,-844.9959 488.7355,-832.0618 488.7355,-820.3187"/>
<polygon fill="#000000" stroke="#000000" points="488.7355,-810.0186 493.2356,-820.0186 488.7355,-815.0186 488.7356,-820.0186 488.7356,-820.0186 488.7356,-820.0186 488.7355,-815.0186 484.2356,-820.0186 488.7355,-810.0186 488.7355,-810.0186"/>
</g>
<!-- A2 -->
<g id="node3" class="node">
<title>A2</title>
<path fill="none" stroke="#000000" d="M405.6176,-737C405.6176,-737 357.8534,-737 357.8534,-737 351.8534,-737 345.8534,-731 345.8534,-725 345.8534,-725 345.8534,-713 345.8534,-713 345.8534,-707 351.8534,-701 357.8534,-701 357.8534,-701 405.6176,-701 405.6176,-701 411.6176,-701 417.6176,-707 417.6176,-713 417.6176,-713 417.6176,-725 417.6176,-725 417.6176,-731 411.6176,-737 405.6176,-737"/>
<text text-anchor="middle" x="381.7355" y="-716" font-family="Helvetica,sans-Serif" font-size="10.00" fill="#000000">Draw GUI</text>
</g>
<!-- A1&#45;&gt;A2 -->
<g id="edge2" class="edge">
<title>A1&#45;&gt;A2</title>
<path fill="none" stroke="#000000" d="M462.2861,-773.9551C448.5251,-764.5667 431.5239,-752.9678 416.6924,-742.8491"/>
<polygon fill="#000000" stroke="#000000" points="408.2515,-737.0904 419.0483,-739.0089 412.3818,-739.9083 416.5122,-742.7262 416.5122,-742.7262 416.5122,-742.7262 412.3818,-739.9083 413.9761,-746.4435 408.2515,-737.0904 408.2515,-737.0904"/>
</g>
<!-- A7 -->
<g id="node8" class="node">
<title>A7</title>
<path fill="none" stroke="#000000" d="M510.7475,-737C510.7475,-737 466.7235,-737 466.7235,-737 460.7235,-737 454.7235,-731 454.7235,-725 454.7235,-725 454.7235,-713 454.7235,-713 454.7235,-707 460.7235,-701 466.7235,-701 466.7235,-701 510.7475,-701 510.7475,-701 516.7475,-701 522.7475,-707 522.7475,-713 522.7475,-713 522.7475,-725 522.7475,-725 522.7475,-731 516.7475,-737 510.7475,-737"/>
<text text-anchor="middle" x="488.7355" y="-716" font-family="Helvetica,sans-Serif" font-size="10.00" fill="#000000">Thread 1</text>
</g>
<!-- A1&#45;&gt;A7 -->
<g id="edge7" class="edge">
<title>A1&#45;&gt;A7</title>
<path fill="none" stroke="#000000" d="M488.7355,-773.9551C488.7355,-765.8828 488.7355,-756.1764 488.7355,-747.1817"/>
<polygon fill="#000000" stroke="#000000" points="488.7355,-737.0904 493.2356,-747.0903 488.7355,-742.0904 488.7356,-747.0904 488.7356,-747.0904 488.7356,-747.0904 488.7355,-742.0904 484.2356,-747.0904 488.7355,-737.0904 488.7355,-737.0904"/>
</g>
<!-- A21 -->
<g id="node22" class="node">
<title>A21</title>
<path fill="none" stroke="#000000" d="M596.7465,-737C596.7465,-737 552.7245,-737 552.7245,-737 546.7245,-737 540.7245,-731 540.7245,-725 540.7245,-725 540.7245,-713 540.7245,-713 540.7245,-707 546.7245,-701 552.7245,-701 552.7245,-701 596.7465,-701 596.7465,-701 602.7465,-701 608.7465,-707 608.7465,-713 608.7465,-713 608.7465,-725 608.7465,-725 608.7465,-731 602.7465,-737 596.7465,-737"/>
<text text-anchor="middle" x="574.7355" y="-716" font-family="Helvetica,sans-Serif" font-size="10.00" fill="#000000">Thread ..</text>
</g>
<!-- A1&#45;&gt;A21 -->
<g id="edge18" class="edge">
<title>A1&#45;&gt;A21</title>
<path fill="none" stroke="#000000" d="M509.9939,-773.9551C520.7441,-764.8299 533.9545,-753.6165 545.6326,-743.7036"/>
<polygon fill="#000000" stroke="#000000" points="553.4236,-737.0904 548.7119,-746.9924 549.6117,-740.326 545.7998,-743.5617 545.7998,-743.5617 545.7998,-743.5617 549.6117,-740.326 542.8877,-740.131 553.4236,-737.0904 553.4236,-737.0904"/>
</g>
<!-- A5 -->
<g id="node6" class="node">
<title>A5</title>
<path fill="none" stroke="#000000" d="M459.3806,-664C459.3806,-664 304.0904,-664 304.0904,-664 298.0904,-664 292.0904,-658 292.0904,-652 292.0904,-652 292.0904,-640 292.0904,-640 292.0904,-634 298.0904,-628 304.0904,-628 304.0904,-628 459.3806,-628 459.3806,-628 465.3806,-628 471.3806,-634 471.3806,-640 471.3806,-640 471.3806,-652 471.3806,-652 471.3806,-658 465.3806,-664 459.3806,-664"/>
<text text-anchor="middle" x="381.7355" y="-643" font-family="Helvetica,sans-Serif" font-size="10.00" fill="#000000">if list_dirty == true then Update list</text>
</g>
<!-- A2&#45;&gt;A5 -->
<g id="edge4" class="edge">
<title>A2&#45;&gt;A5</title>
<path fill="none" stroke="#000000" d="M381.7355,-700.9551C381.7355,-692.8828 381.7355,-683.1764 381.7355,-674.1817"/>
<polygon fill="#000000" stroke="#000000" points="381.7355,-664.0904 386.2356,-674.0903 381.7355,-669.0904 381.7356,-674.0904 381.7356,-674.0904 381.7356,-674.0904 381.7355,-669.0904 377.2356,-674.0904 381.7355,-664.0904 381.7355,-664.0904"/>
</g>
<!-- A3 -->
<g id="node4" class="node">
<title>A3</title>
<path fill="none" stroke="#000000" d="M663.8646,-883C663.8646,-883 603.6064,-883 603.6064,-883 597.6064,-883 591.6064,-877 591.6064,-871 591.6064,-871 591.6064,-859 591.6064,-859 591.6064,-853 597.6064,-847 603.6064,-847 603.6064,-847 663.8646,-847 663.8646,-847 669.8646,-847 675.8646,-853 675.8646,-859 675.8646,-859 675.8646,-871 675.8646,-871 675.8646,-877 669.8646,-883 663.8646,-883"/>
<text text-anchor="middle" x="633.7355" y="-862" font-family="Helvetica,sans-Serif" font-size="10.00" fill="#000000">Search input</text>
</g>
<!-- A4 -->
<g id="node5" class="node">
<title>A4</title>
<path fill="none" stroke="#000000" d="M668.5209,-810C668.5209,-810 598.9501,-810 598.9501,-810 592.9501,-810 586.9501,-804 586.9501,-798 586.9501,-798 586.9501,-786 586.9501,-786 586.9501,-780 592.9501,-774 598.9501,-774 598.9501,-774 668.5209,-774 668.5209,-774 674.5209,-774 680.5209,-780 680.5209,-786 680.5209,-786 680.5209,-798 680.5209,-798 680.5209,-804 674.5209,-810 668.5209,-810"/>
<text text-anchor="middle" x="633.7355" y="-789" font-family="Helvetica,sans-Serif" font-size="10.00" fill="#000000">list_dirty = true</text>
</g>
<!-- A3&#45;&gt;A4 -->
<g id="edge3" class="edge">
<title>A3&#45;&gt;A4</title>
<path fill="none" stroke="#000000" d="M633.7355,-846.9551C633.7355,-838.8828 633.7355,-829.1764 633.7355,-820.1817"/>
<polygon fill="#000000" stroke="#000000" points="633.7355,-810.0904 638.2356,-820.0903 633.7355,-815.0904 633.7356,-820.0904 633.7356,-820.0904 633.7356,-820.0904 633.7355,-815.0904 629.2356,-820.0904 633.7355,-810.0904 633.7355,-810.0904"/>
</g>
<!-- A6 -->
<g id="node7" class="node">
<title>A6</title>
<path fill="none" stroke="#000000" d="M307.4107,-580C307.4107,-580 234.0603,-580 234.0603,-580 228.0603,-580 222.0603,-574 222.0603,-568 222.0603,-568 222.0603,-556 222.0603,-556 222.0603,-550 228.0603,-544 234.0603,-544 234.0603,-544 307.4107,-544 307.4107,-544 313.4107,-544 319.4107,-550 319.4107,-556 319.4107,-556 319.4107,-568 319.4107,-568 319.4107,-574 313.4107,-580 307.4107,-580"/>
<text text-anchor="middle" x="270.7355" y="-559" font-family="Helvetica,sans-Serif" font-size="10.00" fill="#000000">list_dirty = false</text>
</g>
<!-- A5&#45;&gt;A6 -->
<g id="edge5" class="edge">
<title>A5&#45;&gt;A6</title>
<path fill="none" stroke="#000000" d="M357.9232,-627.9799C341.938,-615.883 320.6785,-599.7947 303.1545,-586.5333"/>
<polygon fill="#000000" stroke="#000000" points="294.8914,-580.2801 305.581,-582.7263 298.8785,-583.2974 302.8655,-586.3146 302.8655,-586.3146 302.8655,-586.3146 298.8785,-583.2974 300.15,-589.903 294.8914,-580.2801 294.8914,-580.2801"/>
</g>
<!-- A6&#45;&gt;A2 -->
<g id="edge6" class="edge">
<title>A6&#45;&gt;A2</title>
<path fill="none" stroke="#000000" d="M268.1753,-580.2741C266.1062,-602.102 265.861,-638.8195 282.7355,-664 295.3401,-682.8089 316.6371,-695.8253 336.2559,-704.4545"/>
<polygon fill="#000000" stroke="#000000" points="345.7067,-708.3444 334.7465,-708.6995 341.083,-706.4413 336.4593,-704.5382 336.4593,-704.5382 336.4593,-704.5382 341.083,-706.4413 338.1721,-700.3768 345.7067,-708.3444 345.7067,-708.3444"/>
</g>
<!-- A8 -->
<g id="node9" class="node">
<title>A8</title>
<polygon fill="none" stroke="#000000" points="507.7355,-664 489.7355,-646 507.7355,-628 525.7355,-646 507.7355,-664"/>
</g>
<!-- A7&#45;&gt;A8 -->
<g id="edge8" class="edge">
<title>A7&#45;&gt;A8</title>
<path fill="none" stroke="#000000" d="M493.4321,-700.9551C495.8463,-691.6795 498.8221,-680.2462 501.4331,-670.2145"/>
<polygon fill="#000000" stroke="#000000" points="503.9831,-660.417 505.8191,-671.2281 502.7237,-665.2558 501.4642,-670.0946 501.4642,-670.0946 501.4642,-670.0946 502.7237,-665.2558 497.1093,-668.9611 503.9831,-660.417 503.9831,-660.417"/>
</g>
<!-- A9 -->
<g id="node10" class="node">
<title>A9</title>
<path fill="none" stroke="#000000" d="M469.622,-580C469.622,-580 351.849,-580 351.849,-580 345.849,-580 339.849,-574 339.849,-568 339.849,-568 339.849,-556 339.849,-556 339.849,-550 345.849,-544 351.849,-544 351.849,-544 469.622,-544 469.622,-544 475.622,-544 481.622,-550 481.622,-556 481.622,-556 481.622,-568 481.622,-568 481.622,-574 475.622,-580 469.622,-580"/>
<text text-anchor="middle" x="410.7355" y="-559" font-family="Helvetica,sans-Serif" font-size="10.00" fill="#000000">add mount point to queue</text>
</g>
<!-- A8&#45;&gt;A9 -->
<g id="edge9" class="edge">
<title>A8&#45;&gt;A9</title>
<path fill="none" stroke="#000000" d="M497.4386,-637.9549C492.5908,-634.4848 486.5957,-630.6279 480.7355,-628 451.8072,-615.0277 431.3485,-634.8893 411.7105,-610 407.3398,-604.4605 405.7531,-597.3357 405.5872,-590.2798"/>
<polygon fill="#000000" stroke="#000000" points="406.2018,-580.1841 410.0857,-590.4391 405.8979,-585.1749 405.594,-590.1656 405.594,-590.1656 405.594,-590.1656 405.8979,-585.1749 401.1024,-589.8921 406.2018,-580.1841 406.2018,-580.1841"/>
<text text-anchor="middle" x="471.748" y="-601" font-family="Helvetica,sans-Serif" font-size="10.00" fill="#000000">mount is not in the blacklist</text>
</g>
<!-- A10 -->
<g id="node11" class="node">
<title>A10</title>
<path fill="none" stroke="#000000" d="M569.1465,-350C569.1465,-350 466.3245,-350 466.3245,-350 460.3245,-350 454.3245,-344 454.3245,-338 454.3245,-338 454.3245,-326 454.3245,-326 454.3245,-320 460.3245,-314 466.3245,-314 466.3245,-314 569.1465,-314 569.1465,-314 575.1465,-314 581.1465,-320 581.1465,-326 581.1465,-326 581.1465,-338 581.1465,-338 581.1465,-344 575.1465,-350 569.1465,-350"/>
<text text-anchor="middle" x="517.7355" y="-329" font-family="Helvetica,sans-Serif" font-size="10.00" fill="#000000">thread finishes cleanly</text>
</g>
<!-- A8&#45;&gt;A10 -->
<g id="edge10" class="edge">
<title>A8&#45;&gt;A10</title>
<path fill="none" stroke="#000000" d="M515.7943,-635.8035C526.9489,-620.6349 545.7355,-590.8111 545.7355,-562 545.7355,-562 545.7355,-562 545.7355,-405 545.7355,-389.162 539.9189,-372.5966 533.5879,-359.257"/>
<polygon fill="#000000" stroke="#000000" points="528.9628,-350.1703 537.5094,-357.041 531.2309,-354.6263 533.499,-359.0823 533.499,-359.0823 533.499,-359.0823 531.2309,-354.6263 529.4886,-361.1236 528.9628,-350.1703 528.9628,-350.1703"/>
<text text-anchor="middle" x="597.41" y="-486" font-family="Helvetica,sans-Serif" font-size="10.00" fill="#000000">mount is in the blacklist</text>
</g>
<!-- A22 -->
<g id="node23" class="node">
<title>A22</title>
<polygon fill="none" stroke="#000000" points="410.7355,-507 392.7355,-489 410.7355,-471 428.7355,-489 410.7355,-507"/>
</g>
<!-- A9&#45;&gt;A22 -->
<g id="edge19" class="edge">
<title>A9&#45;&gt;A22</title>
<path fill="none" stroke="#000000" d="M410.7355,-543.9551C410.7355,-535.8828 410.7355,-526.1764 410.7355,-517.1817"/>
<polygon fill="#000000" stroke="#000000" points="410.7355,-507.0904 415.2356,-517.0903 410.7355,-512.0904 410.7356,-517.0904 410.7356,-517.0904 410.7356,-517.0904 410.7355,-512.0904 406.2356,-517.0904 410.7355,-507.0904 410.7355,-507.0904"/>
</g>
<!-- A11 -->
<g id="node12" class="node">
<title>A11</title>
<path fill="none" stroke="#000000" d="M828.7635,-883C828.7635,-883 714.7075,-883 714.7075,-883 708.7075,-883 702.7075,-877 702.7075,-871 702.7075,-871 702.7075,-859 702.7075,-859 702.7075,-853 708.7075,-847 714.7075,-847 714.7075,-847 828.7635,-847 828.7635,-847 834.7635,-847 840.7635,-853 840.7635,-859 840.7635,-859 840.7635,-871 840.7635,-871 840.7635,-877 834.7635,-883 828.7635,-883"/>
<text text-anchor="middle" x="771.7355" y="-862" font-family="Helvetica,sans-Serif" font-size="10.00" fill="#000000">while queue is not empty</text>
</g>
<!-- A12 -->
<g id="node13" class="node">
<title>A12</title>
<path fill="none" stroke="#000000" d="M833.102,-810C833.102,-810 710.369,-810 710.369,-810 704.369,-810 698.369,-804 698.369,-798 698.369,-798 698.369,-786 698.369,-786 698.369,-780 704.369,-774 710.369,-774 710.369,-774 833.102,-774 833.102,-774 839.102,-774 845.102,-780 845.102,-786 845.102,-786 845.102,-798 845.102,-798 845.102,-804 839.102,-810 833.102,-810"/>
<text text-anchor="middle" x="771.7355" y="-789" font-family="Helvetica,sans-Serif" font-size="10.00" fill="#000000">for each directory in queue</text>
</g>
<!-- A11&#45;&gt;A12 -->
<g id="edge11" class="edge">
<title>A11&#45;&gt;A12</title>
<path fill="none" stroke="#000000" d="M771.7355,-846.9551C771.7355,-838.8828 771.7355,-829.1764 771.7355,-820.1817"/>
<polygon fill="#000000" stroke="#000000" points="771.7355,-810.0904 776.2356,-820.0903 771.7355,-815.0904 771.7356,-820.0904 771.7356,-820.0904 771.7356,-820.0904 771.7355,-815.0904 767.2356,-820.0904 771.7355,-810.0904 771.7355,-810.0904"/>
</g>
<!-- A13 -->
<g id="node14" class="node">
<title>A13</title>
<path fill="none" stroke="#000000" d="M825.583,-737C825.583,-737 717.888,-737 717.888,-737 711.888,-737 705.888,-731 705.888,-725 705.888,-725 705.888,-713 705.888,-713 705.888,-707 711.888,-701 717.888,-701 717.888,-701 825.583,-701 825.583,-701 831.583,-701 837.583,-707 837.583,-713 837.583,-713 837.583,-725 837.583,-725 837.583,-731 831.583,-737 825.583,-737"/>
<text text-anchor="middle" x="771.7355" y="-716" font-family="Helvetica,sans-Serif" font-size="10.00" fill="#000000">for each file in directory</text>
</g>
<!-- A12&#45;&gt;A13 -->
<g id="edge12" class="edge">
<title>A12&#45;&gt;A13</title>
<path fill="none" stroke="#000000" d="M771.7355,-773.9551C771.7355,-765.8828 771.7355,-756.1764 771.7355,-747.1817"/>
<polygon fill="#000000" stroke="#000000" points="771.7355,-737.0904 776.2356,-747.0903 771.7355,-742.0904 771.7356,-747.0904 771.7356,-747.0904 771.7356,-747.0904 771.7355,-742.0904 767.2356,-747.0904 771.7355,-737.0904 771.7355,-737.0904"/>
</g>
<!-- A14 -->
<g id="node15" class="node">
<title>A14</title>
<path fill="none" stroke="#000000" d="M828.8062,-664C828.8062,-664 714.6648,-664 714.6648,-664 708.6648,-664 702.6648,-658 702.6648,-652 702.6648,-652 702.6648,-640 702.6648,-640 702.6648,-634 708.6648,-628 714.6648,-628 714.6648,-628 828.8062,-628 828.8062,-628 834.8062,-628 840.8062,-634 840.8062,-640 840.8062,-640 840.8062,-652 840.8062,-652 840.8062,-658 834.8062,-664 828.8062,-664"/>
<text text-anchor="middle" x="771.7355" y="-643" font-family="Helvetica,sans-Serif" font-size="10.00" fill="#000000">check if in regex blacklist</text>
</g>
<!-- A13&#45;&gt;A14 -->
<g id="edge13" class="edge">
<title>A13&#45;&gt;A14</title>
<path fill="none" stroke="#000000" d="M771.7355,-700.9551C771.7355,-692.8828 771.7355,-683.1764 771.7355,-674.1817"/>
<polygon fill="#000000" stroke="#000000" points="771.7355,-664.0904 776.2356,-674.0903 771.7355,-669.0904 771.7356,-674.0904 771.7356,-674.0904 771.7356,-674.0904 771.7355,-669.0904 767.2356,-674.0904 771.7355,-664.0904 771.7355,-664.0904"/>
</g>
<!-- A15 -->
<g id="node16" class="node">
<title>A15</title>
<path fill="none" stroke="#000000" d="M838.1089,-580C838.1089,-580 705.3621,-580 705.3621,-580 699.3621,-580 693.3621,-574 693.3621,-568 693.3621,-568 693.3621,-556 693.3621,-556 693.3621,-550 699.3621,-544 705.3621,-544 705.3621,-544 838.1089,-544 838.1089,-544 844.1089,-544 850.1089,-550 850.1089,-556 850.1089,-556 850.1089,-568 850.1089,-568 850.1089,-574 844.1089,-580 838.1089,-580"/>
<text text-anchor="middle" x="771.7355" y="-559" font-family="Helvetica,sans-Serif" font-size="10.00" fill="#000000">if directory add to new queue</text>
</g>
<!-- A14&#45;&gt;A15 -->
<g id="edge14" class="edge">
<title>A14&#45;&gt;A15</title>
<path fill="none" stroke="#000000" d="M771.7355,-627.7733C771.7355,-616.8758 771.7355,-602.7946 771.7355,-590.4587"/>
<polygon fill="#000000" stroke="#000000" points="771.7355,-580.1912 776.2356,-590.1911 771.7355,-585.1912 771.7356,-590.1912 771.7356,-590.1912 771.7356,-590.1912 771.7355,-585.1912 767.2356,-590.1912 771.7355,-580.1912 771.7355,-580.1912"/>
</g>
<!-- A16 -->
<g id="node17" class="node">
<title>A16</title>
<path fill="none" stroke="#000000" d="M840.6765,-507C840.6765,-507 702.7945,-507 702.7945,-507 696.7945,-507 690.7945,-501 690.7945,-495 690.7945,-495 690.7945,-483 690.7945,-483 690.7945,-477 696.7945,-471 702.7945,-471 702.7945,-471 840.6765,-471 840.6765,-471 846.6765,-471 852.6765,-477 852.6765,-483 852.6765,-483 852.6765,-495 852.6765,-495 852.6765,-501 846.6765,-507 840.6765,-507"/>
<text text-anchor="middle" x="771.7355" y="-486" font-family="Helvetica,sans-Serif" font-size="10.00" fill="#000000">add to thread files found index</text>
</g>
<!-- A15&#45;&gt;A16 -->
<g id="edge15" class="edge">
<title>A15&#45;&gt;A16</title>
<path fill="none" stroke="#000000" d="M771.7355,-543.9551C771.7355,-535.8828 771.7355,-526.1764 771.7355,-517.1817"/>
<polygon fill="#000000" stroke="#000000" points="771.7355,-507.0904 776.2356,-517.0903 771.7355,-512.0904 771.7356,-517.0904 771.7356,-517.0904 771.7356,-517.0904 771.7355,-512.0904 767.2356,-517.0904 771.7355,-507.0904 771.7355,-507.0904"/>
</g>
<!-- A17 -->
<g id="node18" class="node">
<title>A17</title>
<path fill="none" stroke="#000000" d="M1059.2191,-883C1059.2191,-883 870.2519,-883 870.2519,-883 864.2519,-883 858.2519,-877 858.2519,-871 858.2519,-871 858.2519,-859 858.2519,-859 858.2519,-853 864.2519,-847 870.2519,-847 870.2519,-847 1059.2191,-847 1059.2191,-847 1065.2191,-847 1071.2191,-853 1071.2191,-859 1071.2191,-859 1071.2191,-871 1071.2191,-871 1071.2191,-877 1065.2191,-883 1059.2191,-883"/>
<text text-anchor="middle" x="964.7355" y="-862" font-family="Helvetica,sans-Serif" font-size="10.00" fill="#000000">for each filepath check if in regex blacklist</text>
</g>
<!-- A18 -->
<g id="node19" class="node">
<title>A18</title>
<path fill="none" stroke="#000000" d="M994.2058,-810C994.2058,-810 935.2652,-810 935.2652,-810 929.2652,-810 923.2652,-804 923.2652,-798 923.2652,-798 923.2652,-786 923.2652,-786 923.2652,-780 929.2652,-774 935.2652,-774 935.2652,-774 994.2058,-774 994.2058,-774 1000.2058,-774 1006.2058,-780 1006.2058,-786 1006.2058,-786 1006.2058,-798 1006.2058,-798 1006.2058,-804 1000.2058,-810 994.2058,-810"/>
<text text-anchor="middle" x="964.7355" y="-789" font-family="Helvetica,sans-Serif" font-size="10.00" fill="#000000">add to index</text>
</g>
<!-- A17&#45;&gt;A18 -->
<g id="edge16" class="edge">
<title>A17&#45;&gt;A18</title>
<path fill="none" stroke="#000000" d="M964.7355,-846.9551C964.7355,-838.8828 964.7355,-829.1764 964.7355,-820.1817"/>
<polygon fill="#000000" stroke="#000000" points="964.7355,-810.0904 969.2356,-820.0903 964.7355,-815.0904 964.7356,-820.0904 964.7356,-820.0904 964.7356,-820.0904 964.7355,-815.0904 960.2356,-820.0904 964.7355,-810.0904 964.7355,-810.0904"/>
</g>
<!-- A19 -->
<g id="node20" class="node">
<title>A19</title>
<path fill="none" stroke="#000000" d="M1304.237,-883C1304.237,-883 1101.234,-883 1101.234,-883 1095.234,-883 1089.234,-877 1089.234,-871 1089.234,-871 1089.234,-859 1089.234,-859 1089.234,-853 1095.234,-847 1101.234,-847 1101.234,-847 1304.237,-847 1304.237,-847 1310.237,-847 1316.237,-853 1316.237,-859 1316.237,-859 1316.237,-871 1316.237,-871 1316.237,-877 1310.237,-883 1304.237,-883"/>
<text text-anchor="middle" x="1202.7355" y="-862" font-family="Helvetica,sans-Serif" font-size="10.00" fill="#000000">for each folders in directories_to_scan queue</text>
</g>
<!-- A20 -->
<g id="node21" class="node">
<title>A20</title>
<path fill="none" stroke="#000000" d="M1256.9547,-810C1256.9547,-810 1148.5163,-810 1148.5163,-810 1142.5163,-810 1136.5163,-804 1136.5163,-798 1136.5163,-798 1136.5163,-786 1136.5163,-786 1136.5163,-780 1142.5163,-774 1148.5163,-774 1148.5163,-774 1256.9547,-774 1256.9547,-774 1262.9547,-774 1268.9547,-780 1268.9547,-786 1268.9547,-786 1268.9547,-798 1268.9547,-798 1268.9547,-804 1262.9547,-810 1256.9547,-810"/>
<text text-anchor="middle" x="1202.7355" y="-789" font-family="Helvetica,sans-Serif" font-size="10.00" fill="#000000">old queue = new queue</text>
</g>
<!-- A19&#45;&gt;A20 -->
<g id="edge17" class="edge">
<title>A19&#45;&gt;A20</title>
<path fill="none" stroke="#000000" d="M1202.7355,-846.9551C1202.7355,-838.8828 1202.7355,-829.1764 1202.7355,-820.1817"/>
<polygon fill="#000000" stroke="#000000" points="1202.7355,-810.0904 1207.2356,-820.0903 1202.7355,-815.0904 1202.7356,-820.0904 1202.7356,-820.0904 1202.7356,-820.0904 1202.7355,-815.0904 1198.2356,-820.0904 1202.7355,-810.0904 1202.7355,-810.0904"/>
</g>
<!-- A23 -->
<g id="node24" class="node">
<title>A23</title>
<path fill="none" stroke="#000000" d="M367.3736,-423C367.3736,-423 252.0974,-423 252.0974,-423 246.0974,-423 240.0974,-417 240.0974,-411 240.0974,-411 240.0974,-399 240.0974,-399 240.0974,-393 246.0974,-387 252.0974,-387 252.0974,-387 367.3736,-387 367.3736,-387 373.3736,-387 379.3736,-393 379.3736,-399 379.3736,-399 379.3736,-411 379.3736,-411 379.3736,-417 373.3736,-423 367.3736,-423"/>
<text text-anchor="middle" x="309.7355" y="-402" font-family="Helvetica,sans-Serif" font-size="10.00" fill="#000000">pop directory from queue</text>
</g>
<!-- A22&#45;&gt;A23 -->
<g id="edge20" class="edge">
<title>A22&#45;&gt;A23</title>
<path fill="none" stroke="#000000" d="M396.4107,-485.1193C379.9901,-480.0558 353.0812,-469.8027 335.4845,-453 329.4252,-447.2141 324.476,-439.6842 320.5942,-432.3103"/>
<polygon fill="#000000" stroke="#000000" points="316.245,-423.1965 324.6132,-430.2834 318.3984,-427.709 320.5519,-432.2215 320.5519,-432.2215 320.5519,-432.2215 318.3984,-427.709 316.4907,-434.1596 316.245,-423.1965 316.245,-423.1965"/>
<text text-anchor="middle" x="381.861" y="-444" font-family="Helvetica,sans-Serif" font-size="10.00" fill="#000000">if queue is not empty</text>
</g>
<!-- A30 -->
<g id="node31" class="node">
<title>A30</title>
<path fill="none" stroke="#000000" d="M505.9567,-423C505.9567,-423 409.5143,-423 409.5143,-423 403.5143,-423 397.5143,-417 397.5143,-411 397.5143,-411 397.5143,-399 397.5143,-399 397.5143,-393 403.5143,-387 409.5143,-387 409.5143,-387 505.9567,-387 505.9567,-387 511.9567,-387 517.9567,-393 517.9567,-399 517.9567,-399 517.9567,-411 517.9567,-411 517.9567,-417 511.9567,-423 505.9567,-423"/>
<text text-anchor="middle" x="457.7355" y="-402" font-family="Helvetica,sans-Serif" font-size="10.00" fill="#000000">scan low priority files</text>
</g>
<!-- A22&#45;&gt;A30 -->
<g id="edge30" class="edge">
<title>A22&#45;&gt;A30</title>
<path fill="none" stroke="#000000" d="M417.2706,-477.3202C423.7877,-465.6726 434.032,-447.3636 442.5821,-432.0826"/>
<polygon fill="#000000" stroke="#000000" points="447.6384,-423.0459 446.6826,-433.9701 445.1969,-427.4093 442.7555,-431.7727 442.7555,-431.7727 442.7555,-431.7727 445.1969,-427.4093 438.8284,-429.5754 447.6384,-423.0459 447.6384,-423.0459"/>
<text text-anchor="middle" x="475.523" y="-444" font-family="Helvetica,sans-Serif" font-size="10.00" fill="#000000">if queue is empty</text>
</g>
<!-- A24 -->
<g id="node25" class="node">
<title>A24</title>
<path fill="none" stroke="#000000" d="M361.8042,-350C361.8042,-350 257.6668,-350 257.6668,-350 251.6668,-350 245.6668,-344 245.6668,-338 245.6668,-338 245.6668,-326 245.6668,-326 245.6668,-320 251.6668,-314 257.6668,-314 257.6668,-314 361.8042,-314 361.8042,-314 367.8042,-314 373.8042,-320 373.8042,-326 373.8042,-326 373.8042,-338 373.8042,-338 373.8042,-344 367.8042,-350 361.8042,-350"/>
<text text-anchor="middle" x="309.7355" y="-329" font-family="Helvetica,sans-Serif" font-size="10.00" fill="#000000">foreach file in directory</text>
</g>
<!-- A23&#45;&gt;A24 -->
<g id="edge21" class="edge">
<title>A23&#45;&gt;A24</title>
<path fill="none" stroke="#000000" d="M309.7355,-386.9551C309.7355,-378.8828 309.7355,-369.1764 309.7355,-360.1817"/>
<polygon fill="#000000" stroke="#000000" points="309.7355,-350.0904 314.2356,-360.0903 309.7355,-355.0904 309.7356,-360.0904 309.7356,-360.0904 309.7356,-360.0904 309.7355,-355.0904 305.2356,-360.0904 309.7355,-350.0904 309.7355,-350.0904"/>
</g>
<!-- A25 -->
<g id="node26" class="node">
<title>A25</title>
<polygon fill="none" stroke="#000000" points="225.7355,-277 207.7355,-259 225.7355,-241 243.7355,-259 225.7355,-277"/>
</g>
<!-- A24&#45;&gt;A25 -->
<g id="edge22" class="edge">
<title>A24&#45;&gt;A25</title>
<path fill="none" stroke="#000000" d="M288.9714,-313.9551C274.9429,-301.7636 256.625,-285.8444 243.3177,-274.2797"/>
<polygon fill="#000000" stroke="#000000" points="235.3919,-267.3918 245.8917,-270.5548 239.1659,-270.6716 242.9399,-273.9514 242.9399,-273.9514 242.9399,-273.9514 239.1659,-270.6716 239.9881,-277.348 235.3919,-267.3918 235.3919,-267.3918"/>
</g>
<!-- A26 -->
<g id="node27" class="node">
<title>A26</title>
<path fill="none" stroke="#000000" d="M145.7072,-193C145.7072,-193 11.7638,-193 11.7638,-193 5.7638,-193 -.2362,-187 -.2362,-181 -.2362,-181 -.2362,-169 -.2362,-169 -.2362,-163 5.7638,-157 11.7638,-157 11.7638,-157 145.7072,-157 145.7072,-157 151.7072,-157 157.7072,-163 157.7072,-169 157.7072,-169 157.7072,-181 157.7072,-181 157.7072,-187 151.7072,-193 145.7072,-193"/>
<text text-anchor="middle" x="78.7355" y="-172" font-family="Helvetica,sans-Serif" font-size="10.00" fill="#000000">add to low priority files queue</text>
</g>
<!-- A25&#45;&gt;A26 -->
<g id="edge23" class="edge">
<title>A25&#45;&gt;A26</title>
<path fill="none" stroke="#000000" d="M212.7313,-253.7963C197.0026,-247.3189 169.9048,-235.5674 147.9505,-223 135.5113,-215.8794 122.4509,-207.1749 111.0687,-199.1433"/>
<polygon fill="#000000" stroke="#000000" points="102.7297,-193.17 113.4798,-195.335 106.7945,-196.0817 110.8593,-198.9933 110.8593,-198.9933 110.8593,-198.9933 106.7945,-196.0817 108.2387,-202.6516 102.7297,-193.17 102.7297,-193.17"/>
<text text-anchor="middle" x="185.128" y="-214" font-family="Helvetica,sans-Serif" font-size="10.00" fill="#000000">is in the blacklist</text>
</g>
<!-- A27 -->
<g id="node28" class="node">
<title>A27</title>
<path fill="none" stroke="#000000" d="M297.8826,-193C297.8826,-193 187.5884,-193 187.5884,-193 181.5884,-193 175.5884,-187 175.5884,-181 175.5884,-181 175.5884,-169 175.5884,-169 175.5884,-163 181.5884,-157 187.5884,-157 187.5884,-157 297.8826,-157 297.8826,-157 303.8826,-157 309.8826,-163 309.8826,-169 309.8826,-169 309.8826,-181 309.8826,-181 309.8826,-187 303.8826,-193 297.8826,-193"/>
<text text-anchor="middle" x="242.7355" y="-172" font-family="Helvetica,sans-Serif" font-size="10.00" fill="#000000">add to thread files index</text>
</g>
<!-- A25&#45;&gt;A27 -->
<g id="edge25" class="edge">
<title>A25&#45;&gt;A27</title>
<path fill="none" stroke="#000000" d="M224.2381,-242.3652C223.8161,-233.0355 223.9825,-221.2475 226.2745,-211 226.9073,-208.1706 227.7786,-205.2961 228.7926,-202.4682"/>
<polygon fill="#000000" stroke="#000000" points="232.6505,-193.1662 232.9762,-204.1273 230.735,-197.7848 228.8195,-202.4033 228.8195,-202.4033 228.8195,-202.4033 230.735,-197.7848 224.6628,-200.6794 232.6505,-193.1662 232.6505,-193.1662"/>
<text text-anchor="middle" x="271.466" y="-214" font-family="Helvetica,sans-Serif" font-size="10.00" fill="#000000">is not in the blacklist</text>
</g>
<!-- A26&#45;&gt;A24 -->
<g id="edge24" class="edge">
<title>A26&#45;&gt;A24</title>
<path fill="none" stroke="#000000" d="M95.9369,-193.4018C104.8372,-202.6081 116.0518,-213.734 126.7355,-223 156.9537,-249.2081 164.6716,-256.0322 198.7355,-277 218.0165,-288.8682 240.2105,-300.2763 259.6613,-309.5956"/>
<polygon fill="#000000" stroke="#000000" points="268.9647,-313.9956 258.0008,-313.7881 264.4447,-311.8579 259.9248,-309.7201 259.9248,-309.7201 259.9248,-309.7201 264.4447,-311.8579 261.8487,-305.6522 268.9647,-313.9956 268.9647,-313.9956"/>
</g>
<!-- A28 -->
<g id="node29" class="node">
<title>A28</title>
<polygon fill="none" stroke="#000000" points="312.7355,-120 294.7355,-102 312.7355,-84 330.7355,-102 312.7355,-120"/>
</g>
<!-- A27&#45;&gt;A28 -->
<g id="edge26" class="edge">
<title>A27&#45;&gt;A28</title>
<path fill="none" stroke="#000000" d="M260.0389,-156.9551C271.2232,-145.2914 285.6793,-130.2157 296.6207,-118.8055"/>
<polygon fill="#000000" stroke="#000000" points="303.5505,-111.5786 299.8773,-121.911 300.0899,-115.1876 296.6293,-118.7965 296.6293,-118.7965 296.6293,-118.7965 300.0899,-115.1876 293.3812,-115.6819 303.5505,-111.5786 303.5505,-111.5786"/>
</g>
<!-- A28&#45;&gt;A24 -->
<g id="edge27" class="edge">
<title>A28&#45;&gt;A24</title>
<path fill="none" stroke="#000000" d="M314.9259,-117.8476C316.3284,-128.816 318.0157,-143.7643 318.7355,-157 321.538,-208.5321 316.6743,-268.6132 313.0738,-303.2846"/>
<polygon fill="#000000" stroke="#000000" points="311.9606,-313.6056 308.559,-303.1807 312.4968,-308.6344 313.0331,-303.6633 313.0331,-303.6633 313.0331,-303.6633 312.4968,-308.6344 317.5071,-304.1459 311.9606,-313.6056 311.9606,-313.6056"/>
<text text-anchor="middle" x="331.1225" y="-214" font-family="Helvetica,sans-Serif" font-size="10.00" fill="#000000">is file</text>
</g>
<!-- A29 -->
<g id="node30" class="node">
<title>A29</title>
<path fill="none" stroke="#000000" d="M375.1043,-36C375.1043,-36 312.3667,-36 312.3667,-36 306.3667,-36 300.3667,-30 300.3667,-24 300.3667,-24 300.3667,-12 300.3667,-12 300.3667,-6 306.3667,0 312.3667,0 312.3667,0 375.1043,0 375.1043,0 381.1043,0 387.1043,-6 387.1043,-12 387.1043,-12 387.1043,-24 387.1043,-24 387.1043,-30 381.1043,-36 375.1043,-36"/>
<text text-anchor="middle" x="343.7355" y="-15" font-family="Helvetica,sans-Serif" font-size="10.00" fill="#000000">add to queue</text>
</g>
<!-- A28&#45;&gt;A29 -->
<g id="edge28" class="edge">
<title>A28&#45;&gt;A29</title>
<path fill="none" stroke="#000000" d="M310.3481,-86.3795C309.5019,-76.7469 309.5596,-64.3073 313.4045,-54 314.6416,-50.6835 316.3284,-47.4587 318.2772,-44.3895"/>
<polygon fill="#000000" stroke="#000000" points="324.3076,-36.2051 321.9985,-46.9251 321.3416,-40.2305 318.3757,-44.2558 318.3757,-44.2558 318.3757,-44.2558 321.3416,-40.2305 314.7529,-41.5865 324.3076,-36.2051 324.3076,-36.2051"/>
<text text-anchor="middle" x="337.901" y="-57" font-family="Helvetica,sans-Serif" font-size="10.00" fill="#000000">is directory</text>
</g>
<!-- A29&#45;&gt;A24 -->
<g id="edge29" class="edge">
<title>A29&#45;&gt;A24</title>
<path fill="none" stroke="#000000" d="M355.1076,-36.2563C364.3053,-52.7825 375.7355,-78.1233 375.7355,-102 375.7355,-259 375.7355,-259 375.7355,-259 375.7355,-278.4614 362.669,-295.0566 348.1638,-307.4833"/>
<polygon fill="#000000" stroke="#000000" points="340.0312,-313.9499 345.0577,-304.2038 343.9448,-310.838 347.8584,-307.7261 347.8584,-307.7261 347.8584,-307.7261 343.9448,-310.838 350.6591,-311.2484 340.0312,-313.9499 340.0312,-313.9499"/>
</g>
<!-- A30&#45;&gt;A10 -->
<g id="edge31" class="edge">
<title>A30&#45;&gt;A10</title>
<path fill="none" stroke="#000000" d="M472.567,-386.9551C479.7786,-378.1809 488.5772,-367.4759 496.4865,-357.853"/>
<polygon fill="#000000" stroke="#000000" points="502.8667,-350.0904 499.9935,-360.6731 499.6919,-353.9531 496.517,-357.8158 496.517,-357.8158 496.517,-357.8158 499.6919,-353.9531 493.0406,-354.9584 502.8667,-350.0904 502.8667,-350.0904"/>
</g>
<!-- A31 -->
<g id="node32" class="node">
<title>A31</title>
<path fill="none" stroke="#000000" d="M1412.4051,-883C1412.4051,-883 1347.0659,-883 1347.0659,-883 1341.0659,-883 1335.0659,-877 1335.0659,-871 1335.0659,-871 1335.0659,-859 1335.0659,-859 1335.0659,-853 1341.0659,-847 1347.0659,-847 1347.0659,-847 1412.4051,-847 1412.4051,-847 1418.4051,-847 1424.4051,-853 1424.4051,-859 1424.4051,-859 1424.4051,-871 1424.4051,-871 1424.4051,-877 1418.4051,-883 1412.4051,-883"/>
<text text-anchor="middle" x="1379.7355" y="-862" font-family="Helvetica,sans-Serif" font-size="10.00" fill="#000000">Close window</text>
</g>
<!-- A32 -->
<g id="node33" class="node">
<title>A32</title>
<path fill="none" stroke="#000000" d="M1420.1513,-810C1420.1513,-810 1339.3197,-810 1339.3197,-810 1333.3197,-810 1327.3197,-804 1327.3197,-798 1327.3197,-798 1327.3197,-786 1327.3197,-786 1327.3197,-780 1333.3197,-774 1339.3197,-774 1339.3197,-774 1420.1513,-774 1420.1513,-774 1426.1513,-774 1432.1513,-780 1432.1513,-786 1432.1513,-786 1432.1513,-798 1432.1513,-798 1432.1513,-804 1426.1513,-810 1420.1513,-810"/>
<text text-anchor="middle" x="1379.7355" y="-789" font-family="Helvetica,sans-Serif" font-size="10.00" fill="#000000">set running=false</text>
</g>
<!-- A31&#45;&gt;A32 -->
<g id="edge32" class="edge">
<title>A31&#45;&gt;A32</title>
<path fill="none" stroke="#000000" d="M1379.7355,-846.9551C1379.7355,-838.8828 1379.7355,-829.1764 1379.7355,-820.1817"/>
<polygon fill="#000000" stroke="#000000" points="1379.7355,-810.0904 1384.2356,-820.0903 1379.7355,-815.0904 1379.7356,-820.0904 1379.7356,-820.0904 1379.7356,-820.0904 1379.7355,-815.0904 1375.2356,-820.0904 1379.7355,-810.0904 1379.7355,-810.0904"/>
</g>
<!-- A33 -->
<g id="node34" class="node">
<title>A33</title>
<polygon fill="#d3d3d3" stroke="#000000" stroke-width="4" points="1361.7355,-717 1361.7355,-721 1397.7355,-721 1397.7355,-717 1361.7355,-717"/>
<text text-anchor="middle" x="1379.3745" y="-718.7" font-family="Helvetica,sans-Serif" font-size="1.00" fill="#000000"> </text>
</g>
<!-- A32&#45;&gt;A33 -->
<g id="edge33" class="edge">
<title>A32&#45;&gt;A33:n</title>
<path fill="none" stroke="#000000" d="M1379.7355,-773.9071C1379.7355,-762.2492 1379.7355,-746.489 1379.7355,-731.3358"/>
<polygon fill="#000000" stroke="#000000" points="1379.7355,-721 1384.2356,-731 1379.7355,-726 1379.7356,-731 1379.7356,-731 1379.7356,-731 1379.7355,-726 1375.2356,-731 1379.7355,-721 1379.7355,-721"/>
</g>
<!-- A34 -->
<g id="node35" class="node">
<title>A34</title>
<ellipse fill="none" stroke="#000000" cx="1379.7355" cy="-646" rx="11" ry="11"/>
<ellipse fill="none" stroke="#000000" cx="1379.7355" cy="-646" rx="15" ry="15"/>
</g>
<!-- A33&#45;&gt;A34 -->
<g id="edge34" class="edge">
<title>A33&#45;&gt;A34</title>
<path fill="none" stroke="#000000" d="M1379.7355,-716.894C1379.7355,-710.2344 1379.7355,-689.0384 1379.7355,-671.5437"/>
<polygon fill="#000000" stroke="#000000" points="1379.7355,-661.2921 1384.2356,-671.292 1379.7355,-666.2921 1379.7356,-671.2921 1379.7356,-671.2921 1379.7356,-671.2921 1379.7355,-666.2921 1375.2356,-671.2921 1379.7355,-661.2921 1379.7355,-661.2921"/>
</g>
</g>
</svg>
