<?xml version="1.0" encoding="UTF-8"?>
<svg width="16px" height="16px" viewBox="0 0 16 16" version="1.1" xmlns="http://www.w3.org/2000/svg" xmlns:xlink="http://www.w3.org/1999/xlink">
    <!-- Generator: Sketch 44.1 (41455) - http://www.bohemiancoding.com/sketch -->
    <title>软件包安装器-16px</title>
    <desc>Created with Sketch.</desc>
    <defs></defs>
    <g id="Page-1" stroke="none" stroke-width="1" fill="none" fill-rule="evenodd">
        <g id="软件包安装器-16px">
            <g id="Group-2" transform="translate(0.000000, 2.000000)">
                <g id="Group" transform="translate(3.000000, 0.000000)">
                    <polygon id="path14361" fill="#D70751" points="0 12 0 0 10 0 10 12"></polygon>
                    <path d="M7.18400169,4.66902952 L7.07615293,4.72266201 C6.98798869,4.8939857 7.08491073,4.83142829 7.02176953,4.96763661 C6.8839766,5.08999869 6.60422018,5.35040413 6.5146381,5.37425923 C6.44916137,5.37283366 6.55892865,5.29702172 6.57327519,5.26741128 C6.38902297,5.39386063 6.42538975,5.45725208 6.14354788,5.53423916 C5.4405704,5.84277198 4.47535263,5.19492813 4.48803074,4.31111808 C4.48068992,4.3671694 4.46692786,4.35315657 4.45158066,4.3756773 C4.41571455,3.92101059 4.66160666,3.46434191 5.07631999,3.27758755 C5.48194162,3.0769035 5.95746079,3.15914561 6.24781039,3.43014388 C6.08833095,3.22111904 5.77062313,2.99949922 5.39436135,3.02001797 C5.025607,3.02602425 4.68054045,3.26032168 4.56543485,3.51480482 C4.37659521,3.63366379 4.35457498,3.97322506 4.27233287,4.03544875 C4.16148148,4.84952838 4.48060731,5.2011005 5.02051875,5.61489649 C5.10526316,5.67211557 5.04437401,5.68087354 5.05571759,5.72441351 C4.87638667,5.64050331 4.71223617,5.51372042 4.57711232,5.35849484 C4.6488449,5.46334098 4.72616587,5.56526762 4.82617418,5.64534115 C4.6569356,5.58820537 4.43097844,5.23554878 4.36516799,5.2212024 C4.65668553,5.7431807 5.5477519,6.13662471 6.01459657,5.94136245 C5.79856514,5.94936968 5.5242307,5.94578343 5.28167476,5.85611754 C5.17949787,5.80365282 5.04112097,5.69513662 5.06589375,5.67486812 C5.70281104,5.91266935 6.36058063,5.85486648 6.91158541,5.41321161 C7.05188081,5.30394484 7.20502128,5.11819113 7.24931165,5.11568882 C7.18266715,5.21594738 7.26073853,5.16389985 7.20952522,5.25239763 C7.34898658,5.02710774 7.14871937,5.16064681 7.35382407,4.86337426 L7.42956043,4.96763661 C7.40120105,4.78046505 7.66185656,4.55342343 7.63533222,4.25765237 C7.69513707,4.16723608 7.70197671,4.35507507 7.63858527,4.56309909 C7.72658272,4.3323041 7.66185656,4.29518675 7.68437712,4.10467885 C7.70864941,4.16873757 7.7409291,4.2367166 7.75736059,4.30436192 C7.69997491,4.08124078 7.81599785,3.92876758 7.84485772,3.79906535 C7.8163314,3.78655298 7.75635994,3.89765582 7.74251372,3.63424758 C7.74459883,3.51980943 7.77445969,3.57427596 7.78588691,3.54608352 C7.76353296,3.5331555 7.70456215,3.44540795 7.66877968,3.27717036 C7.69455311,3.2375507 7.73817638,3.37968114 7.77354217,3.38543632 C7.75077137,3.25173048 7.71165221,3.14972019 7.70998395,3.04704281 C7.60655582,2.83101138 7.67336692,3.07590268 7.58962349,2.95429116 C7.47952267,2.61114329 7.68087383,2.87463483 7.69455311,2.71882528 C7.86120608,2.96029658 7.95620978,3.33480663 8,3.48986526 C7.96663602,3.30077538 7.91283659,3.11752414 7.84702613,2.94027833 C7.89782277,2.9617146 7.76536799,2.55133843 7.91300353,2.82308762 C7.75544242,2.2438066 7.23921931,1.70247715 6.76420029,1.44857763 C6.82217011,1.5017098 6.8954873,1.56843759 6.86929684,1.57894713 C6.63291328,1.43840165 6.67445144,1.42730814 6.64058713,1.36792048 C6.4483275,1.28959869 6.43548244,1.37434241 6.30828252,1.36808726 C5.94544994,1.17557738 5.8755524,1.19601283 5.54166334,1.07556907 L5.55684308,1.14663421 C5.31653971,1.06656085 5.27683641,1.17682862 5.01718189,1.14680115 C5.00141647,1.13453954 5.10042481,1.10209342 5.18199948,1.09033264 C4.94961987,1.12102738 4.96046313,1.04445732 4.7330883,1.09875724 C4.78905614,1.05947113 4.8484438,1.03336398 4.90816536,1 C4.71874158,1.01151104 4.45575071,1.11026777 4.53690818,1.02035197 C4.22787504,1.15831185 3.67895521,1.35190585 3.37092305,1.64075396 L3.36124807,1.57602797 C3.22011846,1.74543333 2.74576722,2.08199181 2.7079826,2.30160965 L2.6701978,2.31036745 C2.59688061,2.43473135 2.54925355,2.57561055 2.49103349,2.70347774 C2.39502879,2.86721122 2.35023793,2.76653547 2.36391704,2.79222577 C2.17499393,3.17524354 2.08099122,3.49703845 2,3.76111379 C2.05771975,3.84744281 2.00142557,4.28092367 2.023188,4.62782491 C1.92843472,6.34139551 3.22579033,8.00500369 4.64392359,8.38902245 C4.85178066,8.46350741 5.16081415,8.46083833 5.42372172,8.46817829 C5.11360411,8.37943026 5.07356744,8.42121867 4.77129029,8.31587204 C4.55334053,8.21311118 4.50563017,8.0959203 4.35115533,7.96188091 L4.41229455,8.06989645 C4.10951708,7.96271496 4.23621651,7.9372749 3.98982424,7.85928683 L4.05513403,7.77412539 C3.95696041,7.76661797 3.79514561,7.60880713 3.75093837,7.52114357 L3.64350646,7.52539794 C3.51455497,7.36641883 3.44574224,7.25156365 3.45083015,7.16256537 L3.41613163,7.22445551 C3.37684569,7.15697697 2.9414465,6.62740829 3.16732001,6.75068789 C3.125365,6.71248608 3.06956376,6.68838074 3.00909181,6.57836322 L3.05505044,6.5258985 C2.9465344,6.38602029 2.855034,6.20677267 2.86204041,6.14705111 C2.92001006,6.22528961 2.96021351,6.2399697 3.00008359,6.25339874 C2.72558202,5.57244132 2.71015101,6.21594784 2.50237724,5.56026336 L2.54625093,5.55675955 C2.5126367,5.50579614 2.49203448,5.45082912 2.46500964,5.39669614 L2.48419385,5.20610477 C2.28667953,4.97789555 2.42897675,4.23479775 2.4575862,3.82734091 C2.4771876,3.6616891 2.62248727,3.48527751 2.73283851,3.20860719 L2.66561022,3.19709614 C2.79422815,2.97289071 3.39978327,2.29635394 3.68037356,2.33105229 C3.81624816,2.16039587 3.65334907,2.33038244 3.62674125,2.28751249 C3.92526468,1.97864595 4.01910097,2.06931248 4.22053559,2.01367819 C4.43765131,1.88481001 4.03411461,2.06405763 4.13704242,1.96454982 C4.51263658,1.8687119 4.40311973,1.74651659 4.89298545,1.69788871 C4.94469943,1.72724891 4.77312532,1.74326354 4.73008602,1.78138188 C5.04287253,1.62824159 5.72007658,1.66319019 6.16014665,1.86629307 C6.67036452,2.10492852 7.24397349,2.80999128 7.26666082,3.47334927 L7.2924346,3.48027273 C7.27942241,3.74401434 7.33280482,4.04904404 7.24013648,4.32913401 L7.30277736,4.19642916 C7.31028461,4.3979476 7.24397332,4.4958708 7.18400169,4.66902952 Z" id="path2536" fill="#FFFFFF"></path>
                </g>
                <rect id="rect11806" fill="#D0DFED" x="2" y="4" width="12" height="9"></rect>
                <g id="Page-1" transform="translate(4.333333, 8.699997)" fill="#10ACFF">
                    <path d="M2.49027111,0.930902326 C2.46187111,0.930902326 1.68951556,0.930948837 1.68951556,0.930948837 C1.68951556,0.930948837 1.68969333,0.810530233 1.68969333,0.79215814 C1.68969333,0.744902326 1.73258222,0.698576744 1.77911556,0.698390698 C1.82227111,0.698251163 2.40244889,0.698390698 2.44716,0.698390698 C2.48742667,0.698390698 2.53418222,0.745646512 2.53396,0.791413953 C2.53378222,0.827693023 2.53324889,0.84987907 2.53324889,0.884437209 C2.53324889,0.884437209 2.53324889,0.930902326 2.49027111,0.930902326 M2.71102667,1.58141395 C2.75689333,1.58141395 2.75716,1.53848372 2.75716,1.53415814 C2.75707111,1.5180186 2.75684889,1.41234419 2.75684889,1.39606512 C2.75684889,1.34955349 2.71173778,1.34885581 2.71173778,1.34885581 C2.71173778,1.34885581 1.83418222,1.34811163 1.77769333,1.34811163 C1.68813778,1.34811163 1.68951556,1.25741395 1.68951556,1.25741395 C1.68836,1.25150698 1.68956,1.1628093 1.68951556,1.1628093 L2.57876,1.1628093 C2.82564889,1.1628093 2.80062667,0.976762791 2.80062667,0.976762791 L2.80062667,0.792390698 C2.80062667,0.792390698 2.82471556,0.465134884 2.49022667,0.465134884 L1.74107111,0.465134884 C1.40062667,0.465134884 1.42369333,0.788018605 1.42369333,0.788018605 C1.42369333,0.962902326 1.42378222,1.02541395 1.42378222,1.25546047 C1.42378222,1.58141395 1.73533778,1.57992558 1.73533778,1.57992558 L2.71102667,1.58141395 Z" id="Fill-1"></path>
                    <path d="M1.06660444,1.30346512 C1.06660444,1.30346512 1.06731556,1.34881395 1.02216,1.34881395 C0.973715556,1.34881395 0.737137778,1.3494186 0.59176,1.34895349 C0.446382222,1.34848837 0.268071111,1.31509302 0.267982222,1.02686047 C0.267893333,0.738674419 0.466026667,0.69872093 0.589671111,0.69872093 C0.713271111,0.69872093 1.06638222,0.699232558 1.06638222,0.699232558 C1.06638222,0.699232558 1.06660444,1.26216279 1.06660444,1.30346512 M1.28904889,0.0464883721 C1.26998222,0.0465813953 1.13087111,0.0465813953 1.11184889,0.0464883721 C1.11184889,0.0464883721 1.06736,0.0464883721 1.06736,0.0944883721 C1.06736,0.0983023256 1.06713778,0.465093023 1.06713778,0.465093023 C0.880071111,0.465046512 0.686248889,0.465186047 0.491537778,0.465093023 C0.0732711111,0.464953488 -0.000373333333,0.844023256 -1.77777777e-05,1.02393023 C0.000426666667,1.20374419 0.0751822222,1.58062791 0.498115556,1.5802093 C0.921093333,1.5797907 0.93296,1.58076744 1.11198222,1.58076744 C1.33371556,1.58076744 1.33398222,1.34955814 1.33398222,1.34955814 L1.33398222,0.093 C1.33398222,0.0464883721 1.28904889,0.0464883721 1.28904889,0.0464883721" id="Fill-3"></path>
                    <path d="M6.00063111,0.325581395 L5.82285333,0.325581395 C5.79832,0.325581395 5.77840889,0.304744186 5.77840889,0.279069767 L5.77840889,0.0930232558 C5.77840889,0.0673488372 5.79832,0.0465116279 5.82285333,0.0465116279 L6.00063111,0.0465116279 C6.02516444,0.0465116279 6.04507556,0.0673488372 6.04507556,0.0930232558 L6.04507556,0.279069767 C6.04507556,0.304744186 6.02516444,0.325581395 6.00063111,0.325581395" id="Fill-6"></path>
                    <path d="M6.00063111,1.58139535 L5.82285333,1.58139535 C5.79832,1.58139535 5.77840889,1.56055814 5.77840889,1.53488372 L5.77840889,0.511627907 C5.77840889,0.485953488 5.79832,0.465116279 5.82285333,0.465116279 L6.00063111,0.465116279 C6.02516444,0.465116279 6.04507556,0.485953488 6.04507556,0.511627907 L6.04507556,1.53488372 C6.04507556,1.56055814 6.02516444,1.58139535 6.00063111,1.58139535" id="Fill-9"></path>
                    <path d="M6.84508,0.465423256 C6.51859111,0.46495814 6.13396889,0.465330233 6.13396889,0.465330233 L6.13396889,1.53416744 C6.13396889,1.55523721 6.14685778,1.58635349 6.18716889,1.58095814 C6.23063556,1.5808186 6.29894667,1.58053953 6.34241333,1.5804 C6.40365778,1.58956279 6.40188,1.53342326 6.40188,1.53342326 L6.40054667,0.6984 C6.40054667,0.6984 6.72574667,0.698074419 6.84472444,0.698074419 C6.85214667,0.698074419 7.02423556,0.701562791 7.02423556,0.930213953 L7.02294667,1.53495814 C7.02290222,1.56067907 7.04281333,1.58156279 7.06743556,1.58156279 L7.24512444,1.58142326 C7.26965778,1.58142326 7.28952444,1.56058605 7.28952444,1.53491163 L7.28952444,0.909097674 C7.28952444,0.651283721 7.17156889,0.465888372 6.84508,0.465423256" id="Fill-11"></path>
                    <path d="M4.62291556,0.742404651 C4.62291556,0.742404651 4.62220444,0.697055814 4.66736,0.697055814 C4.71580444,0.697055814 4.95238222,0.696451163 5.09776,0.696916279 C5.24313778,0.697381395 5.42144889,0.730776744 5.42153778,1.0190093 C5.42162667,1.30719535 5.22349333,1.34714884 5.09984889,1.34714884 C4.97620444,1.34714884 4.62313778,1.34663721 4.62313778,1.34663721 C4.62313778,1.34663721 4.62291556,0.783706977 4.62291556,0.742404651 M4.40078222,1.9993814 C4.41984889,1.99928837 4.55878222,1.99928837 4.57780444,1.9993814 C4.57780444,1.9993814 4.62224889,1.9993814 4.62224889,1.9513814 C4.62224889,1.94756744 4.62238222,1.58077674 4.62238222,1.58077674 C4.80949333,1.58082326 5.00327111,1.58068372 5.19802667,1.58077674 C5.61624889,1.58091628 5.68989333,1.20184651 5.68953778,1.02193953 C5.68909333,0.842125581 5.61433778,0.46524186 5.19140444,0.465660465 C4.76842667,0.46607907 4.75691556,0.465102326 4.57784889,0.465102326 C4.35611556,0.465102326 4.35620444,0.696311628 4.35620444,0.696311628 L4.35620444,1.95286977 C4.35620444,1.9993814 4.40078222,1.9993814 4.40078222,1.9993814" id="Fill-16"></path>
                    <path d="M3.95693778,0.930902326 C3.92853778,0.930902326 3.15618222,0.930948837 3.15618222,0.930948837 C3.15618222,0.930948837 3.15636,0.810530233 3.15636,0.79215814 C3.15636,0.744902326 3.19924889,0.698576744 3.24578222,0.698390698 C3.28893778,0.698251163 3.86911556,0.698390698 3.91382667,0.698390698 C3.95409333,0.698390698 4.00084889,0.745646512 4.00062667,0.791413953 C4.00044889,0.827693023 3.99996,0.84987907 3.99996,0.884437209 C3.99996,0.884437209 3.99996,0.930902326 3.95693778,0.930902326 M4.17769333,1.58141395 C4.22356,1.58141395 4.22382667,1.53848372 4.22382667,1.53415814 C4.22373778,1.5180186 4.22351556,1.41234419 4.22351556,1.39606512 C4.22351556,1.34955349 4.17840444,1.34885581 4.17840444,1.34885581 C4.17840444,1.34885581 3.30084889,1.34811163 3.24436,1.34811163 C3.15480444,1.34811163 3.15618222,1.25741395 3.15618222,1.25741395 C3.15502667,1.25150698 3.15622667,1.1628093 3.15618222,1.1628093 L4.04542667,1.1628093 C4.29231556,1.1628093 4.26729333,0.976762791 4.26729333,0.976762791 L4.26729333,0.792390698 C4.26729333,0.792390698 4.29138222,0.465134884 3.95689333,0.465134884 L3.20773778,0.465134884 C2.86729333,0.465134884 2.89036,0.788018605 2.89036,0.788018605 C2.89036,0.962902326 2.89044889,1.02541395 2.89044889,1.25546047 C2.89044889,1.58141395 3.20200444,1.57992558 3.20200444,1.57992558 L4.17769333,1.58141395 Z" id="Fill-21"></path>
                </g>
                <polygon id="polygon11815" fill="#CDDDEA" points="16 8 -8.8817842e-16 8 1.5 4 14.5 4"></polygon>
                <polygon id="polygon11815" fill="#FFFFFF" points="15 7 1 7 2 4 14 4"></polygon>
            </g>
        </g>
    </g>
</svg>