<?xml version="1.0" encoding="iso-8859-1"?>
<!-- Generator: Adobe Illustrator 16.0.0, SVG Export Plug-In . SVG Version: 6.00 Build 0)  -->
<!DOCTYPE svg PUBLIC "-//W3C//DTD SVG 1.1//EN" "http://www.w3.org/Graphics/SVG/1.1/DTD/svg11.dtd">
<svg version="1.1" id="Capa_1" xmlns="http://www.w3.org/2000/svg" xmlns:xlink="http://www.w3.org/1999/xlink" x="0px" y="0px"
	 width="550.801px" height="550.801px" viewBox="0 0 550.801 550.801" style="enable-background:new 0 0 550.801 550.801;"
	 xml:space="preserve">
<g>
	<path d="M488.426,197.021H475.2v-63.825c0-0.398-0.063-0.799-0.116-1.203c-0.021-2.533-0.827-5.022-2.562-6.995L366.325,3.694
		c-0.032-0.031-0.063-0.042-0.085-0.074c-0.633-0.709-1.371-1.297-2.151-1.803c-0.231-0.158-0.464-0.288-0.706-0.422
		c-0.676-0.369-1.393-0.675-2.131-0.896c-0.2-0.056-0.38-0.135-0.58-0.19C359.87,0.119,359.037,0,358.193,0H97.2
		c-11.918,0-21.6,9.695-21.6,21.601v175.415H62.375c-17.041,0-30.871,13.819-30.871,30.871v160.545
		c0,17.043,13.83,30.87,30.871,30.87h13.226V529.2c0,11.907,9.682,21.601,21.6,21.601h356.4c11.907,0,21.6-9.693,21.6-21.601
		V419.308h13.226c17.055,0,30.871-13.833,30.871-30.876v-160.54C519.297,210.835,505.48,197.021,488.426,197.021z M97.2,21.601
		h250.193v110.513c0,5.967,4.841,10.8,10.8,10.8h95.407v54.108H97.2V21.601z M361.801,376.339h-30.228l-2.025-52.317
		c-0.601-16.448-1.218-36.329-1.218-56.218h-0.606c-4.261,17.452-9.936,36.938-15.209,52.97l-16.643,53.335h-24.145l-14.607-52.935
		c-4.459-16.021-9.121-35.501-12.369-53.37h-0.4c-0.799,18.471-1.416,39.564-2.437,56.613l-2.434,51.922h-28.606l8.733-136.719
		h41.165l13.402,45.636c4.261,15.837,8.514,32.864,11.562,48.901h0.602c3.859-15.837,8.521-33.888,12.982-49.102l14.603-45.436
		h40.379L361.801,376.339z M72.721,375.732v-134.29c11.351-1.828,26.159-2.837,41.776-2.837c25.969,0,42.81,4.662,55.991,14.607
		c14.198,10.537,23.118,27.377,23.118,51.519c0,26.172-9.537,44.223-22.718,55.371c-14.407,11.976-36.305,17.66-63.094,17.66
		C91.779,377.758,80.423,376.734,72.721,375.732z M453.601,523.347H97.2V419.308h356.4V523.347z M499.774,370.054
		c-9.534,3.253-27.58,7.709-45.646,7.709c-24.954,0-43-6.28-55.582-18.457c-12.562-11.771-19.459-29.61-19.27-49.707
		c0.211-45.444,33.265-71.392,78.105-71.392c17.645,0,31.234,3.438,37.932,6.684l-6.486,24.743
		c-7.51-3.251-16.844-5.885-31.847-5.885c-25.761,0-45.235,14.604-45.235,44.22c0,28.203,17.65,44.835,43,44.835
		c7.103,0,12.782-0.802,15.214-2.024v-28.604H448.87v-24.131h50.91v72.009H499.774z"/>
	<path d="M160.748,305.744c0.211-28.403-16.422-43.411-43-43.411c-6.908,0-11.361,0.611-13.998,1.226v89.456
		c2.637,0.612,6.895,0.612,10.747,0.612C142.491,353.816,160.748,338.407,160.748,305.744z"/>
</g>
<g>
</g>
<g>
</g>
<g>
</g>
<g>
</g>
<g>
</g>
<g>
</g>
<g>
</g>
<g>
</g>
<g>
</g>
<g>
</g>
<g>
</g>
<g>
</g>
<g>
</g>
<g>
</g>
<g>
</g>
</svg>
