<svg id="svg" xmlns="http://www.w3.org/2000/svg" xmlns:xlink="http://www.w3.org/1999/xlink" width="400" height="341.89473684210526" viewBox="0, 0, 400,341.89473684210526"><g id="svgg"><path id="path0" d="M0.000 171.086 L 0.000 342.173 200.000 342.173 L 400.000 342.173 400.000 171.086 L 400.000 0.000 200.000 0.000 L 0.000 0.000 0.000 171.086 M118.392 25.824 C 122.801 26.337,126.225 26.873,128.315 27.378 C 133.106 28.535,134.761 28.995,138.238 30.134 C 154.701 35.527,167.235 43.977,177.790 56.801 C 180.737 60.382,184.431 65.502,184.431 66.007 C 184.431 66.213,184.547 66.382,184.688 66.384 C 184.829 66.385,185.236 66.885,185.593 67.496 C 187.909 71.456,188.928 73.322,191.526 78.358 C 193.128 81.463,194.751 84.522,195.134 85.156 L 195.829 86.309 196.453 85.499 C 196.796 85.053,197.080 84.572,197.084 84.431 C 197.101 83.847,201.439 75.249,202.968 72.770 C 203.876 71.297,204.619 70.032,204.619 69.960 C 204.619 69.593,211.040 60.565,211.789 59.880 C 211.892 59.786,212.582 58.939,213.323 57.998 C 215.063 55.788,222.425 48.426,224.636 46.685 C 225.577 45.944,226.553 45.142,226.806 44.904 C 227.458 44.286,233.504 40.039,235.846 38.552 C 252.798 27.791,280.375 22.686,300.086 26.660 C 300.932 26.830,302.549 27.155,303.678 27.382 C 304.808 27.609,306.424 27.990,307.271 28.231 C 308.118 28.471,309.735 28.931,310.864 29.252 C 320.092 31.879,330.193 36.612,337.652 41.803 C 349.913 50.336,358.811 60.661,365.135 73.694 C 366.242 75.977,367.149 78.083,367.150 78.375 C 367.151 78.666,367.286 79.051,367.451 79.230 C 368.180 80.019,370.789 88.865,371.737 93.755 C 372.766 99.065,372.988 100.559,373.485 105.519 C 375.084 121.483,372.667 137.509,366.605 151.121 C 366.341 151.714,366.125 152.293,366.125 152.408 C 366.125 153.176,359.731 166.125,357.861 169.146 C 356.948 170.619,356.202 171.895,356.202 171.981 C 356.202 172.184,353.198 176.648,350.587 180.325 C 340.777 194.139,324.042 210.700,305.005 225.431 C 303.711 226.433,302.190 227.612,301.625 228.052 C 301.061 228.492,297.365 231.338,293.413 234.377 C 289.461 237.415,285.997 240.088,285.714 240.316 C 285.432 240.543,283.353 242.125,281.095 243.831 C 277.616 246.459,264.068 256.824,262.440 258.103 C 262.154 258.328,261.003 259.197,259.883 260.035 C 258.762 260.872,257.610 261.747,257.323 261.978 C 256.206 262.875,252.470 265.785,250.129 267.579 C 246.378 270.455,235.443 279.185,233.345 280.978 C 232.319 281.855,229.632 284.147,227.374 286.072 C 219.115 293.111,205.518 306.228,199.736 312.734 L 197.466 315.289 189.837 307.585 C 182.421 300.096,180.135 297.903,174.171 292.558 C 172.596 291.146,171.143 289.834,170.941 289.642 C 170.738 289.450,170.111 288.937,169.547 288.502 C 168.982 288.067,167.904 287.146,167.151 286.454 C 166.399 285.763,164.936 284.507,163.901 283.664 C 162.866 282.821,161.942 282.052,161.848 281.955 C 161.337 281.431,151.470 273.520,149.701 272.216 C 148.948 271.662,148.255 271.117,148.161 271.006 C 148.067 270.895,146.065 269.350,143.713 267.573 C 141.360 265.796,138.358 263.518,137.040 262.512 C 135.723 261.505,131.873 258.611,128.486 256.081 C 125.098 253.551,122.094 251.286,121.809 251.049 C 121.525 250.811,118.753 248.712,115.650 246.383 C 105.559 238.811,100.431 234.934,100.257 234.745 C 100.163 234.643,97.935 232.943,95.306 230.967 C 92.677 228.991,90.214 227.121,89.831 226.812 C 89.449 226.503,87.519 224.966,85.543 223.397 C 83.567 221.828,81.754 220.356,81.514 220.126 C 81.274 219.895,80.353 219.122,79.467 218.408 C 76.246 215.811,70.069 210.353,66.396 206.859 C 55.593 196.580,46.340 186.559,41.581 179.983 C 40.832 178.948,40.043 177.917,39.828 177.692 C 39.328 177.170,34.756 170.215,33.064 167.404 C 31.523 164.843,27.750 157.300,26.690 154.662 C 26.275 153.627,25.809 152.472,25.655 152.096 C 16.241 129.040,16.249 101.589,25.676 78.186 C 26.647 75.778,29.800 69.554,31.195 67.295 C 32.104 65.822,32.849 64.549,32.849 64.467 C 32.849 64.312,36.276 59.496,36.600 59.196 C 36.702 59.102,37.661 57.947,38.732 56.630 C 42.252 52.299,47.708 47.196,54.405 41.969 C 56.827 40.079,68.548 33.533,69.510 33.533 C 69.660 33.533,70.596 33.163,71.590 32.711 C 74.959 31.177,83.066 28.709,88.965 27.420 C 97.933 25.461,109.756 24.820,118.392 25.824 " stroke="none" fill="#fbfbfb" fill-rule="evenodd"></path><path id="path1" d="M98.888 25.846 C 88.758 27.111,77.887 29.845,71.590 32.711 C 70.596 33.163,69.660 33.533,69.510 33.533 C 68.548 33.533,56.827 40.079,54.405 41.969 C 47.708 47.196,42.252 52.299,38.732 56.630 C 37.661 57.947,36.702 59.102,36.600 59.196 C 36.276 59.496,32.849 64.312,32.849 64.467 C 32.849 64.549,32.104 65.822,31.195 67.295 C 21.714 82.651,16.875 105.222,18.994 124.209 C 20.131 134.401,22.528 144.438,25.655 152.096 C 25.809 152.472,26.275 153.627,26.690 154.662 C 27.750 157.300,31.523 164.843,33.064 167.404 C 34.756 170.215,39.328 177.170,39.828 177.692 C 40.043 177.917,40.832 178.948,41.581 179.983 C 46.340 186.559,55.593 196.580,66.396 206.859 C 70.069 210.353,76.246 215.811,79.467 218.408 C 80.353 219.122,81.274 219.895,81.514 220.126 C 81.754 220.356,83.567 221.828,85.543 223.397 C 87.519 224.966,89.449 226.503,89.831 226.812 C 90.214 227.121,92.677 228.991,95.306 230.967 C 97.935 232.943,100.163 234.643,100.257 234.745 C 100.431 234.934,105.559 238.811,115.650 246.383 C 118.753 248.712,121.525 250.811,121.809 251.049 C 122.094 251.286,125.098 253.551,128.486 256.081 C 131.873 258.611,135.723 261.505,137.040 262.512 C 138.358 263.518,141.360 265.796,143.713 267.573 C 146.065 269.350,148.067 270.895,148.161 271.006 C 148.255 271.117,148.948 271.662,149.701 272.216 C 151.470 273.520,161.337 281.431,161.848 281.955 C 161.942 282.052,162.866 282.821,163.901 283.664 C 164.936 284.507,166.399 285.763,167.151 286.454 C 167.904 287.146,168.982 288.067,169.547 288.502 C 170.111 288.937,170.738 289.450,170.941 289.642 C 171.143 289.834,172.596 291.146,174.171 292.558 C 180.135 297.903,182.421 300.096,189.837 307.585 L 197.466 315.289 199.736 312.734 C 205.518 306.228,219.115 293.111,227.374 286.072 C 229.632 284.147,232.319 281.855,233.345 280.978 C 235.443 279.185,246.378 270.455,250.129 267.579 C 252.470 265.785,256.206 262.875,257.323 261.978 C 257.610 261.747,258.762 260.872,259.883 260.035 C 261.003 259.197,262.154 258.328,262.440 258.103 C 264.068 256.824,277.616 246.459,281.095 243.831 C 283.353 242.125,285.432 240.543,285.714 240.316 C 285.997 240.088,289.461 237.415,293.413 234.377 C 297.365 231.338,301.061 228.492,301.625 228.052 C 302.190 227.612,303.711 226.433,305.005 225.431 C 324.042 210.700,340.777 194.139,350.587 180.325 C 353.198 176.648,356.202 172.184,356.202 171.981 C 356.202 171.895,356.948 170.619,357.861 169.146 C 359.731 166.125,366.125 153.176,366.125 152.408 C 366.125 152.293,366.341 151.714,366.605 151.121 C 372.667 137.509,375.084 121.483,373.485 105.519 C 372.988 100.559,372.766 99.065,371.737 93.755 C 370.789 88.865,368.180 80.019,367.451 79.230 C 367.286 79.051,367.151 78.666,367.150 78.375 C 367.149 78.083,366.242 75.977,365.135 73.694 C 358.811 60.661,349.913 50.336,337.652 41.803 C 330.193 36.612,320.092 31.879,310.864 29.252 C 309.735 28.931,308.118 28.471,307.271 28.231 C 306.424 27.990,304.808 27.609,303.678 27.382 C 302.549 27.155,300.932 26.830,300.086 26.660 C 280.375 22.686,252.798 27.791,235.846 38.552 C 233.504 40.039,227.458 44.286,226.806 44.904 C 226.553 45.142,225.577 45.944,224.636 46.685 C 222.425 48.426,215.063 55.788,213.323 57.998 C 212.582 58.939,211.892 59.786,211.789 59.880 C 211.040 60.565,204.619 69.593,204.619 69.960 C 204.619 70.032,203.876 71.297,202.968 72.770 C 201.439 75.249,197.101 83.847,197.084 84.431 C 197.080 84.572,196.796 85.053,196.453 85.499 L 195.829 86.309 195.134 85.156 C 194.751 84.522,193.128 81.463,191.526 78.358 C 188.928 73.322,187.909 71.456,185.593 67.496 C 185.236 66.885,184.829 66.385,184.688 66.384 C 184.547 66.382,184.431 66.213,184.431 66.007 C 184.431 65.502,180.737 60.382,177.790 56.801 C 167.235 43.977,154.701 35.527,138.238 30.134 C 134.761 28.995,133.106 28.535,128.315 27.378 C 120.591 25.512,107.163 24.813,98.888 25.846 " stroke="none" fill="#ec447c" fill-rule="evenodd"></path></g></svg>