<svg xmlns="http://www.w3.org/2000/svg" viewBox="0 0 56.1 19.2"><path fill="#4965B6" d="M45.8,8.7c-0.4,0-0.7,0.1-0.9,0.4c-0.2,0.2-0.3,0.6-0.4,1h2.2c0-0.4,0-0.8-0.2-1S46.2,8.7,45.8,8.7z"/><path fill="#4965B6" d="M34.9,11.1c-0.2,0.1-0.3,0.1-0.4,0.2c-0.1,0.1-0.2,0.2-0.2,0.4c0,0.2,0.1,0.4,0.2,0.5s0.3,0.2,0.5,0.2c0.3,0,0.6-0.1,0.7-0.2c0.2-0.1,0.3-0.3,0.4-0.5V11c-0.2,0-0.5,0-0.7,0C35.2,11,35,11.1,34.9,11.1z"/><path fill="#4965B6" d="M53.1,0H3C1.4,0,0,1.3,0,3v13.2c0,1.6,1.4,3,3,3h50.1c1.7,0,3-1.4,3-3V3C56.1,1.3,54.7,0,53.1,0z M16,14.4c0,0.9-0.8,1.7-1.7,1.7h-2.3v-5.4h2l0.1-1.9h-2.1c0-0.8,0-1.2,0-1.3c0,0,0,0,0-0.1c0-0.5,0.1-0.9,0.8-0.9c0.6,0,1.2,0,1.2,0l0-1.8c0,0-0.6-0.1-1.4-0.1c-1.9,0-2.8,1.2-2.8,2.5c0,0.9,0,1.7,0,1.7H8.6v1.9H10v5.4H4.6c-0.9,0-1.7-0.8-1.7-1.7V4.7C3,3.8,3.7,3,4.6,3h9.7C15.3,3,16,3.8,16,4.7V14.4z M25.3,12.4c-0.1,0.3-0.4,0.6-0.6,0.8c-0.3,0.2-0.6,0.4-1,0.5s-0.8,0.2-1.3,0.2c-0.6,0-1.1-0.1-1.6-0.2c-0.5-0.1-0.8-0.2-1-0.3l0.5-1.4c0.1,0,0.2,0.1,0.3,0.2s0.3,0.1,0.5,0.2c0.2,0,0.4,0.1,0.6,0.1c0.2,0,0.4,0,0.6,0c0.5,0,0.9-0.1,1.1-0.2c0.3-0.2,0.4-0.4,0.4-0.8c0-0.3-0.1-0.5-0.3-0.6s-0.4-0.3-0.7-0.4c-0.3-0.1-0.6-0.3-0.9-0.4c-0.3-0.1-0.6-0.3-0.9-0.5c-0.3-0.2-0.5-0.5-0.7-0.8S20,8,20,7.5c0-0.4,0.1-0.8,0.2-1.1c0.1-0.3,0.3-0.5,0.6-0.8c0.3-0.2,0.6-0.3,0.9-0.4c0.3-0.1,0.7-0.1,1.2-0.1c0.5,0,0.9,0,1.4,0.1s0.8,0.2,1.1,0.4L24.8,7c-0.2-0.1-0.4-0.2-0.8-0.3s-0.7-0.1-1.1-0.1c-0.4,0-0.7,0.1-0.9,0.2c-0.2,0.2-0.3,0.4-0.3,0.6c0,0.2,0.1,0.4,0.3,0.6c0.2,0.2,0.4,0.3,0.7,0.4c0.3,0.1,0.6,0.3,0.9,0.4c0.3,0.1,0.6,0.3,0.9,0.5c0.3,0.2,0.5,0.5,0.7,0.8c0.2,0.3,0.3,0.7,0.3,1.1C25.5,11.7,25.4,12,25.3,12.4z M31.8,13.6h-1.6v-3.4c0-0.5-0.1-0.8-0.2-1.1c-0.1-0.2-0.4-0.3-0.7-0.3c-0.3,0-0.5,0.1-0.7,0.3c-0.2,0.2-0.4,0.4-0.4,0.7v3.8h-1.6V5.2h1.6v3.1h0c0.2-0.3,0.4-0.5,0.7-0.6c0.3-0.2,0.6-0.2,1.1-0.2c0.3,0,0.6,0,0.8,0.1C31,7.7,31.2,7.8,31.3,8c0.2,0.2,0.3,0.4,0.3,0.8c0.1,0.3,0.1,0.7,0.1,1.2V13.6z M36.6,13.7l-0.3-0.8h-0.1c-0.2,0.2-0.4,0.5-0.7,0.6c-0.3,0.2-0.6,0.3-1.1,0.3c-0.3,0-0.5,0-0.8-0.1s-0.4-0.2-0.6-0.4c-0.2-0.2-0.3-0.3-0.4-0.6c-0.1-0.2-0.1-0.5-0.1-0.7c0-0.4,0.1-0.7,0.2-0.9s0.4-0.5,0.7-0.6s0.7-0.3,1.1-0.3c0.4-0.1,0.9-0.1,1.4-0.1c0.1-0.4,0-0.8-0.1-1c-0.1-0.2-0.4-0.3-0.8-0.3c-0.3,0-0.6,0-1,0.1c-0.3,0.1-0.6,0.1-0.9,0.3L33.1,8c0.3-0.1,0.7-0.3,1.1-0.3s0.9-0.1,1.4-0.1c0.4,0,0.8,0.1,1,0.1c0.3,0.1,0.5,0.2,0.7,0.4s0.3,0.4,0.3,0.7c0.1,0.3,0.1,0.5,0.1,0.9c0,0.4,0,0.7,0,1.1c0,0.4,0,0.7,0,1s0,0.7,0,1c0,0.3,0.1,0.6,0.2,0.9H36.6z M42.4,9.1C42.1,9,41.9,9,41.7,9c-0.3,0-0.5,0.1-0.7,0.2s-0.3,0.3-0.4,0.6v3.9H39v-6h1.2l0.2,0.8h0c0.1-0.3,0.3-0.5,0.6-0.7c0.2-0.2,0.5-0.2,0.8-0.2c0.2,0,0.4,0,0.7,0.1L42.4,9.1z M48.2,10.4c0,0.2-0.1,0.4-0.1,0.6h-3.6c0,0.5,0.2,0.9,0.4,1.1c0.2,0.3,0.6,0.4,1.1,0.4c0.3,0,0.6,0,0.9-0.2c0.3-0.1,0.5-0.2,0.6-0.3l0.5,1c-0.2,0.2-0.6,0.4-1,0.5s-0.9,0.2-1.3,0.2c-1,0-1.7-0.3-2.1-0.8c-0.4-0.6-0.7-1.3-0.7-2.3c0-1.1,0.3-1.8,0.8-2.4s1.2-0.8,2.1-0.8c0.3,0,0.6,0,0.9,0.1s0.5,0.2,0.8,0.4c0.2,0.2,0.4,0.4,0.5,0.7c0.1,0.3,0.2,0.7,0.2,1.2C48.2,10.1,48.2,10.3,48.2,10.4z"/></svg>