<?xml version="1.0" encoding="iso-8859-1"?>
<!-- Generator: Adobe Illustrator 16.0.0, SVG Export Plug-In . SVG Version: 6.00 Build 0)  -->
<!DOCTYPE svg PUBLIC "-//W3C//DTD SVG 1.1//EN" "http://www.w3.org/Graphics/SVG/1.1/DTD/svg11.dtd">
<svg version="1.1" id="Capa_1" xmlns="http://www.w3.org/2000/svg" xmlns:xlink="http://www.w3.org/1999/xlink" x="0px" y="0px"
	 width="533.333px" height="533.333px" viewBox="0 0 533.333 533.333" style="enable-background:new 0 0 533.333 533.333;"
	 xml:space="preserve">
<g>
	<path d="M266.667,433.276c-9.976,0-19.952-5.164-30.282-15.495c-4.068-4.067-4.068-10.663,0-14.733
		c4.067-4.067,10.664-4.067,14.732,0c6.357,6.36,11.444,9.451,15.55,9.451c4.105,0,9.193-3.091,15.552-9.448
		c4.068-4.067,10.662-4.067,14.732,0c4.066,4.067,4.066,10.663,0,14.733C286.619,428.112,276.643,433.276,266.667,433.276z
		 M0,273.692c0,25.984,2.222,49.543,6.667,70.668s10.695,39.448,18.75,54.965c8.055,15.518,18.241,29.116,30.555,40.804
		c12.315,11.685,25.694,21.312,40.139,28.884c14.444,7.571,30.972,13.696,49.583,18.367c18.61,4.675,37.546,7.946,56.805,9.815
		c19.26,1.87,40.464,2.805,63.611,2.805s44.397-0.932,63.749-2.803c19.353-1.869,38.335-5.141,56.944-9.815
		c18.611-4.672,35.187-10.795,49.723-18.367c14.535-7.571,28.01-17.201,40.416-28.884c12.408-11.688,22.639-25.286,30.694-40.804
		c8.058-15.517,14.354-33.84,18.891-54.965c4.537-21.125,6.806-44.682,6.806-70.666c0-46.553-14.446-86.653-43.333-120.304
		c1.666-4.487,3.101-9.628,4.305-15.423c1.2-5.796,2.36-13.975,3.471-24.538c1.112-10.563,0.696-22.762-1.249-36.596
		C494.581,63,490.925,48.885,485.554,34.49l-4.167-0.843c-2.777-0.56-7.313-0.374-13.608,0.562
		c-6.295,0.934-13.658,2.616-22.083,5.047c-8.425,2.429-19.306,7.244-32.64,14.441c-13.333,7.197-27.407,16.312-42.223,27.342
		c-25.186-7.666-59.906-15.685-104.167-15.685c-44.258,0-79.074,8.019-104.443,15.684c-14.815-11.031-28.935-20.098-42.361-27.202
		c-13.427-7.105-24.167-11.965-32.223-14.582c-8.056-2.617-15.509-4.3-22.361-5.047c-6.852-0.748-11.25-0.982-13.195-0.701
		c-1.944,0.28-3.379,0.607-4.305,0.981c-5.372,14.396-9.076,28.511-11.113,42.346c-2.036,13.833-2.5,25.985-1.388,36.454
		c1.111,10.47,2.314,18.697,3.611,24.678c1.297,5.982,2.778,11.124,4.445,15.424C14.445,186.854,0,226.954,0,273.692z
		 M71.112,333.022c0-30.221,11.11-57.625,33.333-82.218c6.667-7.503,14.398-13.183,23.195-17.038c8.797-3.855,18.796-6.044,30-6.565
		c11.204-0.521,21.897-0.417,32.083,0.312c10.186,0.73,22.778,1.72,37.778,2.97c14.999,1.252,27.962,1.876,38.888,1.876
		c10.925,0,23.89-0.625,38.888-1.876c15.003-1.25,27.595-2.239,37.78-2.97c10.188-0.729,20.88-0.833,32.084-0.312
		c11.204,0.521,21.252,2.71,30.142,6.565c8.887,3.854,16.666,9.534,23.331,17.038c22.222,24.593,33.334,51.997,33.334,82.218
		c0,17.714-1.85,33.501-5.557,47.361c-3.702,13.859-8.38,25.477-14.027,34.854c-5.648,9.379-13.567,17.302-23.749,23.763
		c-10.187,6.459-20.048,11.463-29.584,15.003c-9.535,3.542-21.853,6.306-36.944,8.284c-15.095,1.978-28.611,3.178-40.56,3.595
		c-11.945,0.417-26.988,0.624-45.138,0.624c-18.147,0-33.147-0.207-45-0.624c-11.853-0.417-25.324-1.617-40.417-3.595
		c-15.092-1.979-27.407-4.741-36.944-8.284c-9.537-3.541-19.398-8.544-29.583-15.003c-10.186-6.461-18.103-14.384-23.75-23.763
		c-5.648-9.378-10.325-20.995-14.028-34.854S71.112,350.736,71.112,333.022z M133.333,316.668c0,27.614,14.924,50,33.333,50
		s33.333-22.386,33.333-50s-14.924-50-33.333-50S133.333,289.054,133.333,316.668z M333.333,316.668c0,27.614,14.924,50,33.333,50
		s33.333-22.386,33.333-50s-14.924-50-33.333-50S333.333,289.054,333.333,316.668z"/>
</g>
<g>
</g>
<g>
</g>
<g>
</g>
<g>
</g>
<g>
</g>
<g>
</g>
<g>
</g>
<g>
</g>
<g>
</g>
<g>
</g>
<g>
</g>
<g>
</g>
<g>
</g>
<g>
</g>
<g>
</g>
</svg>
