<?xml version="1.0" encoding="iso-8859-1"?>
<!-- Generator: Adobe Illustrator 16.0.0, SVG Export Plug-In . SVG Version: 6.00 Build 0)  -->
<!DOCTYPE svg PUBLIC "-//W3C//DTD SVG 1.1//EN" "http://www.w3.org/Graphics/SVG/1.1/DTD/svg11.dtd">
<svg version="1.1" id="Capa_1" xmlns="http://www.w3.org/2000/svg" xmlns:xlink="http://www.w3.org/1999/xlink" x="0px" y="0px"
	 width="550.801px" height="550.801px" viewBox="0 0 550.801 550.801" style="enable-background:new 0 0 550.801 550.801;"
	 xml:space="preserve">
<g>
	<path d="M488.426,197.021H475.2v-63.819c0-0.398-0.063-0.799-0.116-1.202c-0.021-2.534-0.827-5.023-2.562-6.993L366.319,3.694
		c-0.031-0.031-0.062-0.042-0.089-0.076c-0.628-0.707-1.371-1.295-2.146-1.804c-0.232-0.155-0.464-0.285-0.707-0.419
		c-0.675-0.367-1.392-0.675-2.136-0.896c-0.2-0.056-0.374-0.135-0.574-0.19C359.87,0.119,359.026,0,358.188,0H97.2
		c-11.918,0-21.6,9.693-21.6,21.601v175.415H62.375c-17.046,0-30.871,13.816-30.871,30.871v160.545
		c0,17.038,13.824,30.87,30.871,30.87h13.226V529.2c0,11.907,9.682,21.601,21.6,21.601h356.4c11.907,0,21.6-9.693,21.6-21.601
		V419.308h13.226c17.044,0,30.871-13.833,30.871-30.876v-160.54C519.297,210.838,505.47,197.021,488.426,197.021z M453.601,523.353
		H97.2V419.308h356.4V523.353z M202.321,355.082c7.878,0,14.188-0.896,16.888-2.246v-31.757h-23.422V294.29h56.523v79.945
		c-10.584,3.597-30.623,8.554-50.67,8.554c-27.701,0-47.74-6.982-61.699-20.504c-13.958-13.057-21.616-32.874-21.394-55.17
		c0.227-50.436,36.93-79.26,86.695-79.26c19.593,0,34.681,3.829,42.111,7.425l-7.198,27.475c-8.332-3.597-18.694-6.529-35.355-6.529
		c-28.598,0-50.219,16.21-50.219,49.085C154.581,336.614,174.171,355.082,202.321,355.082z M276.205,257.808v-28.371h110.117v19.807
		l-70.707,102.695v0.896h71.83v28.371H269.449v-18.468l72.286-104.035v-0.896H276.205z M453.601,197.021H97.2V21.605h250.193
		v110.513c0,5.967,4.841,10.8,10.8,10.8h95.407V197.021z"/>
</g>
<g>
</g>
<g>
</g>
<g>
</g>
<g>
</g>
<g>
</g>
<g>
</g>
<g>
</g>
<g>
</g>
<g>
</g>
<g>
</g>
<g>
</g>
<g>
</g>
<g>
</g>
<g>
</g>
<g>
</g>
</svg>
