<svg id="svg" xmlns="http://www.w3.org/2000/svg" xmlns:xlink="http://www.w3.org/1999/xlink" width="400" height="484.8484848484849" viewBox="0, 0, 400,484.8484848484849"><g id="svgg"><path id="path0" d="M182.546 107.797 C 177.031 108.997,172.705 111.332,167.090 116.142 C 165.061 117.881,161.081 121.125,158.246 123.352 C 144.992 133.762,145.400 133.303,145.400 137.808 C 145.400 142.929,148.977 147.518,157.620 153.486 C 159.919 155.073,163.150 157.469,164.800 158.809 C 181.339 172.246,187.146 173.254,204.023 165.619 C 206.786 164.369,210.566 162.434,212.423 161.319 C 216.711 158.745,219.212 157.494,223.895 155.581 C 241.204 148.512,248.507 135.933,239.846 128.109 C 237.940 126.387,232.239 123.682,224.400 120.782 C 221.210 119.601,216.530 117.566,214.000 116.260 C 211.470 114.953,207.724 113.021,205.675 111.966 C 197.473 107.745,189.443 106.297,182.546 107.797 M182.800 113.600 C 184.409 115.209,183.418 116.635,179.600 118.204 C 175.430 119.919,173.279 119.740,172.608 117.624 C 171.559 114.321,180.135 110.935,182.800 113.600 M200.647 113.565 C 204.505 115.318,204.556 118.835,200.732 119.456 C 199.150 119.713,193.901 117.226,192.937 115.763 C 191.297 113.272,196.644 111.748,200.647 113.565 M234.489 131.435 C 236.876 136.675,208.962 154.617,193.555 157.745 C 179.244 160.650,167.781 156.693,153.555 143.938 C 148.886 139.752,147.275 136.306,149.062 134.331 C 150.485 132.760,151.917 133.511,154.916 137.400 C 166.467 152.381,184.100 157.013,201.800 149.717 C 211.013 145.919,221.545 139.218,227.800 133.175 C 229.340 131.688,230.960 130.402,231.400 130.320 C 232.839 130.049,234.057 130.489,234.489 131.435 M316.667 301.867 C 316.206 302.327,316.375 302.800,317.000 302.800 C 317.330 302.800,317.600 302.530,317.600 302.200 C 317.600 301.575,317.127 301.406,316.667 301.867 M66.400 337.489 C 64.878 338.060,63.150 339.772,56.875 346.923 C 44.959 360.502,42.123 362.715,29.600 368.200 C 14.159 374.963,13.086 376.829,14.947 393.678 C 16.710 409.628,16.691 412.656,14.789 419.627 C 12.401 428.378,11.683 436.568,13.052 439.453 C 14.605 442.726,20.096 444.466,36.200 446.788 C 60.356 450.270,69.504 452.559,85.000 458.994 C 118.408 472.867,137.981 469.945,145.239 450.000 C 148.339 441.480,144.269 432.529,126.607 409.028 C 116.281 395.288,108.832 383.788,98.605 365.800 C 86.335 344.218,81.888 338.944,74.831 337.606 C 72.575 337.178,67.417 337.106,66.400 337.489 M283.883 342.856 C 280.902 347.544,279.461 353.720,278.018 368.000 C 276.324 384.769,275.977 387.340,273.945 398.200 C 272.936 403.592,270.823 412.416,267.814 423.800 C 261.842 446.401,262.266 454.122,270.007 463.745 C 275.725 470.852,279.111 472.530,287.800 472.559 C 303.393 472.611,310.779 468.699,332.179 449.051 C 344.496 437.743,349.574 434.215,366.400 425.274 C 391.413 411.985,391.892 411.018,381.018 395.800 C 373.521 385.309,372.537 383.153,366.406 363.800 C 362.297 350.829,359.937 348.565,350.600 348.646 C 345.161 348.692,344.078 349.090,339.000 352.904 C 324.041 364.138,307.607 366.430,297.274 358.721 C 293.935 356.230,289.528 349.986,286.992 344.154 C 285.316 340.298,285.469 340.362,283.883 342.856 " stroke="none" fill="#fbb609" fill-rule="evenodd"></path><path id="path1" d="M237.600 165.714 C 237.050 165.967,231.650 168.580,225.600 171.520 C 208.641 179.763,204.140 181.770,199.400 183.204 C 187.325 186.856,174.560 184.225,161.623 175.416 C 159.498 173.969,158.311 173.376,158.193 173.702 C 158.094 173.976,157.274 177.080,156.372 180.600 C 152.615 195.259,147.574 208.713,132.914 243.200 C 118.736 276.554,115.910 285.027,112.626 304.020 C 110.752 314.857,109.727 318.466,107.485 322.120 C 106.837 323.176,106.373 324.102,106.453 324.177 C 106.534 324.252,112.720 329.038,120.200 334.811 C 141.787 351.474,147.869 357.268,154.671 367.649 C 164.495 382.643,164.834 395.079,155.675 404.500 L 152.661 407.600 153.630 408.669 C 159.131 414.734,171.741 421.260,182.600 423.661 C 185.885 424.388,202.497 424.244,209.405 423.429 C 220.478 422.122,241.931 413.915,246.756 409.138 C 250.146 405.782,252.404 397.152,254.796 378.400 C 255.209 375.165,255.423 373.444,256.388 365.600 C 257.659 355.260,259.172 346.888,260.470 343.000 C 263.837 332.921,272.693 320.594,288.029 304.641 C 290.433 302.140,292.400 299.862,292.400 299.578 C 292.400 295.427,278.758 259.866,268.009 236.000 C 258.638 215.193,246.628 185.887,241.740 171.905 C 240.453 168.222,239.220 165.219,239.000 165.232 C 238.780 165.244,238.150 165.461,237.600 165.714 " stroke="none" fill="#fbfbfb" fill-rule="evenodd"></path><path id="path2" d="M179.315 108.037 C 174.991 109.419,170.709 112.146,164.600 117.410 C 162.400 119.305,158.157 122.728,155.170 125.016 C 145.401 132.500,144.800 133.233,144.800 137.660 C 144.801 143.076,148.618 147.986,157.800 154.383 C 160.440 156.222,164.126 159.001,165.990 160.559 C 182.363 174.239,191.108 174.309,214.252 160.946 C 216.701 159.533,220.289 157.737,222.225 156.956 C 236.269 151.293,244.000 143.862,244.000 136.025 C 244.000 129.178,240.630 126.334,225.800 120.660 C 217.218 117.376,216.370 116.994,210.132 113.593 C 197.434 106.669,188.586 105.073,179.315 108.037 M193.167 107.631 C 197.036 108.263,201.460 109.797,205.675 111.966 C 207.724 113.021,211.470 114.953,214.000 116.260 C 216.530 117.566,221.210 119.601,224.400 120.782 C 232.239 123.682,237.940 126.387,239.846 128.109 C 248.507 135.933,241.204 148.512,223.895 155.581 C 219.212 157.494,216.711 158.745,212.423 161.319 C 208.828 163.477,200.950 167.165,196.000 169.008 C 193.386 169.981,192.408 170.128,188.400 170.154 C 180.589 170.203,176.269 168.126,164.800 158.809 C 163.150 157.469,159.919 155.073,157.620 153.486 C 148.977 147.518,145.400 142.929,145.400 137.808 C 145.400 133.303,144.992 133.762,158.246 123.352 C 161.081 121.125,165.061 117.881,167.090 116.142 C 175.834 108.652,183.704 106.083,193.167 107.631 M175.283 113.672 C 171.479 115.517,172.210 120.403,176.151 119.473 C 178.102 119.013,182.251 117.077,182.900 116.324 C 185.387 113.438,179.786 111.489,175.283 113.672 M193.222 113.863 C 192.064 115.335,192.704 116.189,196.427 118.139 C 200.326 120.181,203.600 119.674,203.600 117.027 C 203.600 113.578,195.410 111.081,193.222 113.863 M181.781 113.664 C 183.836 114.601,183.154 115.859,179.750 117.410 C 176.363 118.954,175.019 119.122,173.931 118.138 C 171.259 115.719,177.938 111.913,181.781 113.664 M199.240 113.661 C 203.617 115.146,204.249 118.807,200.126 118.797 C 198.755 118.794,194.032 116.438,193.433 115.458 C 192.387 113.747,196.103 112.597,199.240 113.661 M231.400 130.320 C 230.960 130.402,229.340 131.688,227.800 133.175 C 220.075 140.638,208.314 147.581,196.200 151.828 C 191.611 153.437,181.138 153.742,176.684 152.397 C 169.413 150.200,159.542 143.400,154.916 137.400 C 151.917 133.511,150.485 132.760,149.062 134.331 C 144.354 139.534,165.106 155.712,179.740 158.248 C 192.945 160.536,216.734 151.025,230.623 137.904 C 235.751 133.059,236.122 129.431,231.400 130.320 M233.367 131.043 C 237.180 132.506,226.337 142.302,213.469 149.018 C 187.644 162.498,173.996 161.185,153.705 143.267 C 150.040 140.031,149.113 138.576,149.276 136.314 C 149.498 133.243,150.927 133.642,154.339 137.727 C 160.460 145.055,171.500 152.254,178.644 153.574 C 192.306 156.100,212.873 147.935,227.634 134.125 C 231.011 130.966,231.909 130.483,233.367 131.043 M316.419 301.380 C 315.311 302.559,315.577 303.600,316.987 303.600 C 317.902 303.600,318.000 303.445,318.000 302.000 C 318.000 300.146,317.692 300.025,316.419 301.380 M317.490 303.044 C 316.793 303.741,316.017 302.644,316.683 301.904 C 317.397 301.110,317.401 301.110,317.532 301.988 C 317.605 302.472,317.586 302.947,317.490 303.044 M66.851 336.860 C 64.667 337.489,63.466 338.609,56.557 346.464 C 44.597 360.064,41.664 362.349,29.227 367.758 C 13.484 374.605,12.233 376.985,14.592 395.600 C 16.114 407.612,15.857 413.572,13.418 422.800 C 8.913 439.852,11.544 443.638,29.800 446.371 C 61.300 451.085,68.584 452.806,83.885 459.152 C 100.786 466.161,106.993 467.770,117.200 467.787 C 133.989 467.815,142.807 461.783,146.418 447.800 C 148.388 440.175,143.921 431.215,126.703 408.247 C 116.784 395.016,108.887 382.802,99.001 365.400 C 86.091 342.675,81.921 338.011,73.470 336.835 C 69.819 336.327,68.689 336.331,66.851 336.860 M74.831 337.606 C 81.888 338.944,86.335 344.218,98.605 365.800 C 108.832 383.788,116.281 395.288,126.607 409.028 C 144.269 432.529,148.339 441.480,145.239 450.000 C 137.981 469.945,118.408 472.867,85.000 458.994 C 69.504 452.559,60.356 450.270,36.200 446.788 C 20.096 444.466,14.605 442.726,13.052 439.453 C 11.683 436.568,12.401 428.378,14.789 419.627 C 16.691 412.656,16.710 409.628,14.947 393.678 C 13.086 376.829,14.159 374.963,29.600 368.200 C 42.123 362.715,44.959 360.502,56.875 346.923 C 63.150 339.772,64.878 338.060,66.400 337.489 C 67.417 337.106,72.575 337.178,74.831 337.606 M283.538 342.481 C 280.126 347.777,278.746 353.818,277.206 370.200 C 276.357 379.239,275.981 382.721,275.610 385.000 C 275.395 386.320,274.937 389.200,274.591 391.400 C 273.314 399.534,271.824 406.240,268.415 419.200 C 260.675 448.624,261.318 456.198,272.496 467.270 C 277.791 472.516,282.680 474.024,291.598 473.161 C 305.818 471.784,312.350 468.001,332.600 449.415 C 344.865 438.157,349.650 434.836,366.693 425.748 C 392.250 412.120,392.709 411.158,381.254 395.200 C 375.680 387.435,372.723 381.635,369.992 373.114 C 362.435 349.538,361.735 348.543,352.390 348.096 C 345.508 347.767,343.981 348.320,337.200 353.593 C 332.618 357.156,325.190 360.502,318.986 361.797 C 304.033 364.920,294.379 359.468,287.558 344.050 C 285.720 339.896,285.307 339.734,283.538 342.481 M286.992 344.154 C 289.528 349.986,293.935 356.230,297.274 358.721 C 307.607 366.430,324.041 364.138,339.000 352.904 C 344.078 349.090,345.161 348.692,350.600 348.646 C 359.937 348.565,362.297 350.829,366.406 363.800 C 372.537 383.153,373.521 385.309,381.018 395.800 C 391.892 411.018,391.413 411.985,366.400 425.274 C 349.574 434.215,344.496 437.743,332.179 449.051 C 310.779 468.699,303.393 472.611,287.800 472.559 C 279.111 472.530,275.725 470.852,270.007 463.745 C 262.266 454.122,261.842 446.401,267.814 423.800 C 270.823 412.416,272.936 403.592,273.945 398.200 C 275.977 387.340,276.324 384.769,278.018 368.000 C 279.461 353.720,280.902 347.544,283.883 342.856 C 285.469 340.362,285.316 340.298,286.992 344.154 " stroke="none" fill="#715324" fill-rule="evenodd"></path><path id="path3" d="M188.218 0.371 C 188.081 0.592,187.471 0.674,186.862 0.552 C 186.146 0.409,185.581 0.541,185.263 0.924 C 184.991 1.251,184.417 1.425,183.983 1.311 C 183.550 1.198,182.972 1.290,182.698 1.515 C 182.424 1.741,181.343 2.053,180.295 2.209 C 179.247 2.365,178.292 2.652,178.171 2.846 C 178.051 3.041,177.699 3.200,177.388 3.200 C 177.078 3.200,175.840 3.650,174.637 4.200 C 173.435 4.750,172.291 5.200,172.095 5.200 C 171.801 5.200,167.611 7.402,164.200 9.349 C 158.003 12.887,147.212 23.630,145.065 28.400 C 144.916 28.730,144.348 29.720,143.802 30.600 C 142.375 32.899,140.000 37.874,140.000 38.565 C 140.000 38.888,139.820 39.264,139.600 39.400 C 139.380 39.536,139.200 39.997,139.200 40.424 C 139.200 40.851,139.036 41.200,138.835 41.200 C 138.634 41.200,138.344 41.965,138.190 42.900 C 138.036 43.835,137.782 44.780,137.627 45.000 C 137.471 45.220,137.111 46.210,136.826 47.200 C 136.541 48.190,136.131 49.484,135.915 50.076 C 135.699 50.668,135.646 51.350,135.796 51.593 C 135.946 51.836,135.895 52.252,135.682 52.518 C 135.243 53.064,134.780 55.426,134.645 57.800 C 134.595 58.680,134.339 59.793,134.077 60.274 C 133.512 61.308,133.468 62.772,133.977 63.576 C 134.215 63.952,134.126 64.570,133.723 65.349 C 133.065 66.622,132.879 70.209,133.368 72.200 C 133.589 73.099,133.556 73.249,133.237 72.800 C 132.933 72.371,132.819 75.445,132.834 83.600 C 132.849 91.075,132.986 94.725,133.234 94.200 C 133.496 93.646,133.526 93.954,133.332 95.200 C 132.888 98.054,133.151 103.508,133.809 105.083 C 134.309 106.280,134.329 106.897,133.929 108.833 C 133.553 110.652,133.558 111.779,133.951 114.075 C 134.585 117.772,134.650 131.185,134.041 132.324 C 133.491 133.351,133.464 135.869,133.999 136.199 C 134.248 136.353,134.155 136.914,133.749 137.698 C 133.393 138.387,133.039 139.826,132.963 140.894 C 132.886 141.963,132.688 143.054,132.521 143.319 C 132.355 143.583,132.186 144.340,132.145 145.000 C 132.105 145.660,131.777 147.640,131.417 149.400 C 131.057 151.160,130.713 152.993,130.652 153.474 C 130.591 153.955,130.350 154.585,130.116 154.874 C 129.882 155.163,129.558 156.203,129.396 157.185 C 129.234 158.166,128.943 159.291,128.751 159.685 C 128.558 160.078,128.243 160.721,128.051 161.113 C 127.859 161.505,127.575 162.403,127.420 163.109 C 127.265 163.814,126.972 164.494,126.769 164.619 C 126.566 164.745,126.400 165.197,126.400 165.624 C 126.400 166.051,126.220 166.400,126.000 166.400 C 125.780 166.400,125.600 166.664,125.600 166.986 C 125.600 167.710,124.311 170.551,123.900 170.733 C 123.735 170.807,123.600 171.106,123.600 171.399 C 123.600 171.862,121.857 175.452,120.783 177.200 C 116.947 183.447,115.331 185.985,114.640 186.850 C 114.178 187.427,113.494 188.327,113.120 188.850 C 112.126 190.240,110.578 192.214,107.168 196.441 C 104.570 199.663,98.127 208.124,95.907 211.230 C 95.526 211.764,94.356 213.400,93.307 214.866 C 92.258 216.333,90.262 219.213,88.870 221.266 C 87.479 223.320,85.726 225.900,84.974 227.000 C 84.223 228.100,83.495 229.315,83.357 229.700 C 83.219 230.085,82.948 230.400,82.753 230.400 C 82.559 230.400,82.400 230.577,82.400 230.794 C 82.400 231.191,80.047 235.228,79.599 235.600 C 79.467 235.710,79.045 236.430,78.663 237.200 C 78.281 237.970,77.528 239.320,76.991 240.200 C 76.454 241.080,75.401 242.970,74.651 244.400 C 73.900 245.830,72.682 248.080,71.943 249.400 C 70.682 251.654,68.112 256.808,65.249 262.824 C 64.562 264.267,64.000 265.657,64.000 265.912 C 64.000 266.167,63.640 267.017,63.200 267.800 C 62.760 268.583,62.400 269.417,62.400 269.652 C 62.400 269.887,62.112 270.736,61.759 271.540 C 61.407 272.343,60.936 273.450,60.713 274.000 C 60.489 274.550,60.148 275.313,59.953 275.695 C 59.759 276.077,59.600 276.662,59.600 276.995 C 59.600 277.328,59.440 277.600,59.245 277.600 C 59.050 277.600,58.770 278.406,58.622 279.391 C 58.475 280.376,58.184 281.286,57.977 281.414 C 57.770 281.542,57.600 282.076,57.600 282.600 C 57.600 283.124,57.413 283.669,57.184 283.810 C 56.955 283.952,56.872 284.397,57.000 284.800 C 57.128 285.203,57.045 285.648,56.816 285.790 C 56.587 285.931,56.400 286.476,56.400 287.000 C 56.400 287.524,56.204 288.074,55.965 288.222 C 55.726 288.369,55.616 288.818,55.721 289.219 C 55.826 289.620,55.645 290.328,55.320 290.793 C 54.995 291.257,54.838 291.922,54.971 292.269 C 55.105 292.617,55.053 293.104,54.857 293.351 C 54.462 293.849,53.987 295.953,53.853 297.800 C 53.805 298.460,53.536 299.416,53.256 299.923 C 52.976 300.431,52.854 301.337,52.986 301.937 C 53.130 302.592,52.965 303.548,52.573 304.334 C 52.038 305.406,52.006 305.849,52.393 306.784 C 52.789 307.739,52.751 308.103,52.163 309.001 C 51.140 310.561,51.105 326.325,52.119 328.359 C 52.930 329.984,52.720 330.450,49.554 334.048 C 48.319 335.452,45.551 338.940,43.403 341.800 C 36.366 351.171,34.633 352.428,23.644 356.138 C 11.844 360.122,2.049 369.255,1.409 376.870 C 1.316 377.969,1.032 379.121,0.777 379.428 C 0.072 380.277,0.424 389.120,1.181 389.588 C 1.648 389.877,1.666 390.137,1.279 390.987 C 0.896 391.827,0.921 392.315,1.407 393.480 C 1.782 394.376,1.917 395.437,1.761 396.265 C 1.597 397.142,1.713 397.914,2.097 398.502 C 2.507 399.128,2.628 400.079,2.497 401.645 C 2.361 403.276,2.484 404.157,2.946 404.861 C 3.779 406.132,3.792 411.343,2.964 412.030 C 2.654 412.287,2.400 413.095,2.400 413.825 C 2.400 414.555,2.215 415.267,1.989 415.407 C 1.764 415.546,1.613 415.872,1.655 416.130 C 1.768 416.831,1.153 418.921,0.645 419.561 C 0.347 419.936,0.158 424.132,0.074 432.245 L -0.053 444.368 1.015 446.189 C 3.850 451.028,14.610 458.263,17.524 457.292 C 17.811 457.196,18.351 457.391,18.723 457.726 C 19.095 458.060,19.850 458.354,20.400 458.380 C 23.625 458.532,24.699 458.695,25.553 459.163 C 26.153 459.492,27.088 459.592,28.074 459.435 C 29.167 459.260,29.905 459.368,30.510 459.792 C 31.480 460.471,33.239 460.597,33.820 460.028 C 34.055 459.797,34.827 459.944,35.847 460.415 C 37.140 461.011,37.778 461.093,38.816 460.795 C 39.749 460.528,40.306 460.556,40.711 460.892 C 41.026 461.154,42.300 461.393,43.542 461.425 C 44.784 461.456,46.307 461.688,46.926 461.941 C 48.329 462.513,49.473 462.529,49.812 461.981 C 49.988 461.697,50.264 461.721,50.668 462.056 C 51.288 462.571,54.373 463.212,56.800 463.331 C 57.570 463.369,58.447 463.634,58.749 463.921 C 59.084 464.238,59.734 464.346,60.411 464.197 C 61.033 464.061,61.639 464.140,61.786 464.377 C 61.929 464.609,62.476 464.800,63.000 464.800 C 63.524 464.800,64.064 464.980,64.200 465.200 C 64.336 465.420,64.876 465.600,65.400 465.600 C 65.924 465.600,66.467 465.785,66.607 466.011 C 66.746 466.236,67.072 466.387,67.330 466.345 C 68.097 466.222,69.924 466.832,72.445 468.053 C 73.747 468.684,74.900 469.200,75.006 469.200 C 75.112 469.200,77.609 470.370,80.555 471.800 C 83.501 473.230,86.039 474.400,86.195 474.400 C 86.351 474.400,87.136 474.688,87.940 475.041 C 90.452 476.143,90.941 476.325,93.200 477.000 C 94.410 477.361,95.788 477.846,96.262 478.076 C 96.736 478.306,97.300 478.385,97.517 478.252 C 97.733 478.118,98.141 478.288,98.425 478.630 C 98.760 479.034,99.279 479.166,99.909 479.008 C 100.441 478.875,101.084 478.931,101.338 479.133 C 101.914 479.590,104.097 480.053,106.200 480.162 C 107.080 480.208,108.193 480.461,108.674 480.723 C 109.594 481.225,112.489 481.378,112.920 480.947 C 113.230 480.637,121.597 480.664,121.910 480.976 C 122.380 481.447,125.861 481.172,126.678 480.600 C 127.150 480.270,127.833 480.115,128.197 480.254 C 130.148 481.003,143.225 475.300,145.800 472.577 C 146.020 472.345,146.864 471.669,147.676 471.075 C 149.464 469.768,153.591 464.748,154.514 462.759 C 155.158 461.368,155.273 461.309,157.781 461.075 C 159.210 460.941,160.817 460.545,161.353 460.194 C 161.998 459.772,162.414 459.699,162.587 459.978 C 162.974 460.606,164.629 460.488,165.206 459.792 C 165.565 459.360,166.099 459.257,167.060 459.438 C 167.888 459.593,168.635 459.503,168.994 459.205 C 169.316 458.938,170.259 458.653,171.090 458.572 C 175.088 458.184,176.107 458.009,176.560 457.633 C 176.830 457.409,177.683 457.329,178.456 457.454 C 179.408 457.609,180.049 457.494,180.445 457.098 C 180.814 456.728,181.502 456.583,182.315 456.702 C 183.074 456.814,183.970 456.649,184.501 456.302 C 185.172 455.862,185.574 455.822,186.084 456.144 C 186.606 456.474,187.183 456.373,188.533 455.717 C 189.840 455.082,190.416 454.976,190.749 455.309 C 191.081 455.641,191.744 455.625,193.299 455.246 C 195.838 454.628,196.181 454.618,202.000 455.000 C 204.850 455.188,207.629 455.141,209.304 454.877 C 211.495 454.532,212.216 454.560,213.104 455.023 C 214.361 455.679,216.240 455.782,216.591 455.215 C 216.729 454.991,217.367 455.157,218.115 455.613 C 219.541 456.483,221.007 456.635,221.426 455.957 C 221.579 455.710,221.811 455.673,221.950 455.873 C 222.390 456.505,225.008 457.089,225.908 456.756 C 226.463 456.551,227.177 456.644,227.888 457.015 C 229.191 457.695,231.041 457.780,231.413 457.178 C 231.588 456.896,231.974 456.953,232.579 457.349 C 233.893 458.210,236.175 458.548,237.151 458.026 C 237.785 457.687,238.620 457.726,240.618 458.190 C 242.065 458.525,244.903 458.803,246.925 458.806 C 251.376 458.814,250.960 458.518,253.391 463.389 C 256.363 469.341,260.778 474.845,265.431 478.400 C 268.176 480.497,269.361 481.251,272.400 482.832 L 275.800 484.600 289.379 484.720 C 303.642 484.846,304.113 484.803,308.400 482.951 C 309.170 482.618,310.160 482.193,310.600 482.007 C 315.654 479.868,323.456 475.198,326.266 472.632 C 326.526 472.395,327.644 471.480,328.750 470.600 C 329.857 469.720,334.405 465.251,338.859 460.669 C 350.292 448.907,352.146 447.616,372.400 437.325 C 388.934 428.925,397.600 423.295,397.600 420.955 C 397.600 420.866,398.140 420.048,398.800 419.137 L 400.000 417.480 400.000 409.106 L 400.000 400.732 398.679 398.066 C 397.517 395.719,394.595 390.953,393.980 390.400 C 393.858 390.290,393.227 389.484,392.579 388.608 C 391.232 386.789,390.520 385.914,388.000 382.983 C 385.834 380.463,383.355 375.758,383.548 374.530 C 383.588 374.272,383.436 373.946,383.211 373.807 C 382.985 373.667,382.800 373.124,382.800 372.600 C 382.800 372.076,382.604 371.526,382.365 371.378 C 382.126 371.231,382.020 370.768,382.129 370.351 C 382.319 369.625,381.966 368.162,381.079 366.000 C 380.854 365.450,380.709 364.612,380.758 364.138 C 380.807 363.664,380.657 363.159,380.424 363.015 C 380.191 362.871,380.000 362.234,380.000 361.600 C 380.000 360.966,379.808 360.328,379.573 360.183 C 379.338 360.038,379.247 359.654,379.371 359.331 C 379.496 359.007,379.380 358.350,379.114 357.871 C 378.848 357.392,378.680 356.830,378.741 356.622 C 378.802 356.414,378.677 355.874,378.462 355.422 C 377.839 354.107,377.468 353.023,377.534 352.708 C 377.567 352.547,377.259 351.827,376.848 351.108 C 376.438 350.388,375.764 349.170,375.351 348.400 C 374.938 347.630,374.504 346.910,374.387 346.800 C 374.270 346.690,373.590 345.792,372.875 344.805 C 371.490 342.892,367.493 339.511,365.081 338.214 C 363.486 337.357,362.942 336.498,363.587 335.853 C 363.814 335.626,364.000 335.037,364.000 334.544 C 364.000 334.051,364.196 333.526,364.435 333.378 C 364.674 333.231,364.784 332.782,364.679 332.381 C 364.574 331.980,364.738 331.295,365.044 330.858 C 365.350 330.422,365.490 329.778,365.355 329.427 C 365.221 329.077,365.332 328.523,365.602 328.197 C 365.873 327.871,365.994 327.220,365.871 326.751 C 365.749 326.282,365.927 325.472,366.268 324.952 C 366.637 324.390,366.790 323.615,366.647 323.044 C 366.511 322.504,366.666 321.580,367.000 320.941 C 367.717 319.567,367.749 318.764,367.141 317.431 C 366.779 316.636,366.800 316.282,367.241 315.751 C 368.117 314.697,368.276 301.390,367.442 298.942 C 367.008 297.667,366.937 296.891,367.209 296.383 C 367.811 295.259,367.678 293.933,366.799 292.294 C 366.359 291.472,366.179 290.800,366.399 290.800 C 366.949 290.800,366.903 289.336,366.320 288.274 C 366.057 287.793,365.807 286.770,365.765 286.000 C 365.686 284.529,365.304 282.611,364.889 281.600 C 364.753 281.270,364.592 280.550,364.530 280.000 C 364.250 277.503,363.884 276.000,363.556 276.000 C 363.360 276.000,363.200 275.556,363.200 275.014 C 363.200 273.966,362.233 270.664,361.587 269.505 C 361.374 269.123,361.200 268.459,361.200 268.029 C 361.200 267.599,361.017 267.134,360.793 266.996 C 360.570 266.858,360.486 266.584,360.607 266.389 C 360.728 266.193,360.664 265.710,360.464 265.316 C 358.955 262.342,358.400 261.005,358.172 259.794 C 358.029 259.027,357.751 258.400,357.555 258.400 C 357.360 258.400,357.200 258.225,357.200 258.012 C 357.200 257.798,356.737 256.583,356.170 255.312 C 355.604 254.040,354.871 252.370,354.542 251.600 C 353.154 248.351,347.083 236.637,346.700 236.467 C 346.535 236.393,346.400 236.165,346.400 235.959 C 346.400 235.513,338.118 222.300,335.400 218.410 C 334.740 217.465,333.930 216.293,333.600 215.804 C 331.006 211.964,317.829 194.964,314.530 191.200 C 314.047 190.650,313.146 189.534,312.526 188.719 C 311.907 187.905,309.949 185.385,308.176 183.119 C 304.227 178.073,298.000 169.330,298.000 168.832 C 298.000 168.631,297.862 168.407,297.693 168.333 C 296.760 167.928,289.200 153.686,289.200 152.333 C 289.200 151.956,289.040 151.549,288.845 151.428 C 288.650 151.307,288.368 150.555,288.218 149.755 C 288.068 148.956,287.749 147.919,287.510 147.451 C 286.534 145.541,286.400 145.178,286.400 144.429 C 286.400 143.999,286.228 143.541,286.017 143.411 C 285.807 143.280,285.642 142.685,285.652 142.087 C 285.676 140.564,285.041 137.962,284.393 136.932 C 283.969 136.257,283.954 135.938,284.324 135.491 C 284.878 134.824,284.545 131.323,283.845 130.438 C 283.547 130.062,283.459 128.083,283.579 124.438 C 284.021 111.054,283.812 85.178,283.260 84.837 C 282.839 84.577,282.780 83.764,282.994 81.152 C 283.182 78.849,283.115 77.425,282.779 76.600 C 282.510 75.940,282.218 74.140,282.129 72.600 C 282.041 71.060,281.927 69.080,281.877 68.200 C 281.826 67.320,281.570 66.220,281.308 65.756 C 281.044 65.288,280.932 64.295,281.057 63.526 C 281.210 62.581,281.091 61.948,280.683 61.540 C 280.315 61.173,280.163 60.527,280.289 59.868 C 280.402 59.278,280.285 58.544,280.030 58.236 C 279.774 57.928,279.675 57.241,279.808 56.709 C 279.966 56.079,279.834 55.560,279.430 55.225 C 279.050 54.909,278.894 54.364,279.030 53.825 C 279.161 53.300,279.014 52.744,278.667 52.456 C 278.346 52.189,278.170 51.638,278.276 51.230 C 278.383 50.823,278.274 50.369,278.035 50.222 C 277.796 50.074,277.600 49.434,277.600 48.800 C 277.600 48.166,277.417 47.534,277.193 47.396 C 276.970 47.258,276.886 46.984,277.007 46.789 C 277.128 46.593,277.041 46.065,276.814 45.616 C 276.586 45.167,276.232 44.462,276.027 44.049 C 275.822 43.636,275.532 42.644,275.382 41.845 C 275.232 41.045,274.950 40.293,274.755 40.172 C 274.560 40.051,274.400 39.603,274.400 39.176 C 274.400 38.749,274.240 38.400,274.045 38.400 C 273.849 38.400,273.571 37.770,273.426 37.000 C 273.282 36.230,273.037 35.598,272.882 35.595 C 272.727 35.592,272.060 34.427,271.400 33.005 C 270.740 31.584,270.065 30.416,269.900 30.410 C 269.735 30.405,269.594 30.175,269.587 29.900 C 269.568 29.197,265.662 23.569,262.716 20.000 C 258.867 15.337,251.447 9.102,247.600 7.298 C 246.830 6.937,246.110 6.516,246.000 6.363 C 245.784 6.063,238.448 2.721,236.800 2.172 C 235.664 1.794,235.795 1.831,234.200 1.443 C 233.540 1.283,232.640 0.938,232.200 0.676 C 231.153 0.053,188.597 -0.242,188.218 0.371 M224.800 69.225 C 231.301 71.338,236.447 75.994,239.186 82.242 C 241.746 88.083,242.515 90.435,242.164 91.349 C 242.026 91.708,242.174 92.676,242.491 93.501 C 243.203 95.349,243.164 101.781,242.433 103.142 C 242.134 103.698,242.029 104.629,242.176 105.411 C 242.318 106.168,242.248 106.847,242.012 106.992 C 241.786 107.133,241.600 107.676,241.600 108.200 C 241.600 108.724,241.420 109.264,241.200 109.400 C 240.980 109.536,240.800 109.968,240.800 110.361 C 240.800 111.273,238.187 116.448,237.182 117.527 L 236.418 118.348 233.909 117.323 C 232.529 116.759,230.815 116.097,230.100 115.851 C 228.497 115.300,228.484 114.908,230.000 112.662 C 230.660 111.684,231.200 110.516,231.200 110.066 C 231.200 109.615,231.396 109.126,231.635 108.978 C 231.874 108.831,231.975 108.347,231.859 107.904 C 231.743 107.461,231.925 106.675,232.264 106.158 C 233.042 104.971,232.907 97.969,232.101 97.700 C 231.797 97.599,231.692 97.173,231.833 96.611 C 231.961 96.103,231.870 95.567,231.632 95.420 C 231.395 95.273,231.203 94.848,231.206 94.476 C 231.228 92.076,226.582 86.197,223.350 84.537 C 218.113 81.847,209.535 88.292,208.156 95.951 C 208.013 96.748,207.714 97.629,207.491 97.909 C 207.242 98.223,207.189 99.645,207.353 101.609 C 207.499 103.364,207.563 104.800,207.494 104.800 C 207.127 104.800,203.157 103.291,202.932 103.065 C 202.786 102.919,202.257 102.800,201.757 102.800 C 201.257 102.800,200.726 102.604,200.578 102.365 C 200.431 102.126,199.970 102.019,199.555 102.128 C 198.798 102.326,198.541 100.867,198.686 97.200 C 198.708 96.650,198.770 94.799,198.824 93.086 C 198.878 91.373,199.075 89.877,199.261 89.762 C 199.447 89.647,199.600 89.111,199.600 88.571 C 199.600 88.031,199.764 87.277,199.965 86.895 C 200.165 86.513,200.641 85.317,201.021 84.238 C 203.392 77.519,211.157 69.679,215.532 69.586 C 215.899 69.578,216.593 69.353,217.073 69.086 C 218.125 68.500,222.831 68.585,224.800 69.225 M163.447 73.911 C 163.913 74.165,164.386 74.281,164.497 74.170 C 165.740 72.927,172.095 79.539,174.138 84.200 C 174.523 85.080,175.016 86.122,175.233 86.516 C 175.450 86.910,175.513 87.417,175.374 87.641 C 175.235 87.866,175.414 88.373,175.770 88.767 C 176.134 89.169,176.308 89.775,176.165 90.147 C 176.025 90.512,176.145 91.093,176.432 91.438 C 176.719 91.784,176.978 92.997,177.007 94.133 C 177.037 95.270,177.209 97.424,177.390 98.920 C 177.731 101.736,177.202 102.777,175.289 103.057 C 175.006 103.099,174.054 103.508,173.174 103.967 C 172.295 104.425,171.494 104.800,171.394 104.800 C 171.294 104.800,171.322 103.755,171.455 102.477 C 171.650 100.608,171.566 100.023,171.023 99.481 C 170.652 99.110,170.467 98.615,170.611 98.382 C 170.755 98.149,170.382 96.932,169.781 95.679 C 165.516 86.782,159.274 84.939,154.953 91.301 C 154.319 92.236,153.665 93.060,153.500 93.133 C 153.335 93.207,153.200 93.601,153.200 94.010 C 153.200 94.418,153.005 94.873,152.768 95.020 C 152.530 95.167,152.439 95.703,152.567 96.211 C 152.701 96.743,152.604 97.199,152.339 97.287 C 151.705 97.498,151.738 105.163,152.379 106.360 C 152.644 106.856,152.761 107.526,152.637 107.847 C 152.514 108.169,152.575 108.740,152.773 109.116 C 152.971 109.492,153.405 110.430,153.739 111.200 C 154.072 111.970,154.879 113.396,155.533 114.369 C 156.910 116.417,156.864 116.674,154.886 117.943 L 153.416 118.885 152.308 117.558 C 151.699 116.828,151.200 115.998,151.200 115.715 C 151.200 115.432,151.064 115.200,150.898 115.200 C 150.731 115.200,150.349 114.615,150.048 113.900 C 149.747 113.185,149.253 112.077,148.950 111.439 C 148.648 110.800,148.400 109.955,148.400 109.562 C 148.400 109.169,148.220 108.736,148.000 108.600 C 147.780 108.464,147.600 107.943,147.600 107.443 C 147.600 106.943,147.475 106.409,147.323 106.256 C 147.171 106.104,147.031 105.165,147.012 104.168 C 146.993 103.172,146.782 102.232,146.542 102.079 C 145.903 101.670,146.078 92.463,146.748 91.259 C 147.036 90.742,147.186 89.988,147.080 89.585 C 146.975 89.182,147.112 88.525,147.385 88.126 C 147.659 87.727,147.879 87.130,147.875 86.800 C 147.868 86.235,148.264 85.219,149.982 81.400 C 151.280 78.516,156.181 73.832,157.440 74.273 C 157.682 74.357,158.072 74.196,158.307 73.913 C 158.834 73.279,162.280 73.277,163.447 73.911 M197.000 107.535 C 200.588 108.492,204.807 110.303,209.155 112.751 C 215.005 116.045,217.446 117.166,225.761 120.378 C 238.115 125.149,240.752 126.741,242.930 130.742 C 247.530 139.194,240.154 149.611,225.031 156.020 C 219.577 158.332,217.129 159.560,211.713 162.705 C 191.553 174.407,181.732 173.951,165.586 160.563 C 163.489 158.823,159.801 156.050,157.391 154.400 C 148.350 148.209,144.162 142.615,144.471 137.146 C 144.690 133.273,145.662 132.113,154.452 125.233 C 158.551 122.025,163.411 118.121,165.252 116.558 C 172.867 110.094,176.802 107.940,183.105 106.785 C 185.975 106.259,193.800 106.682,197.000 107.535 M176.648 114.014 C 173.798 114.867,172.650 117.509,174.750 118.379 C 176.067 118.925,181.747 116.819,182.438 115.528 C 183.301 113.918,179.921 113.034,176.648 114.014 M194.004 114.195 C 193.199 115.165,193.771 115.807,196.832 117.361 C 200.758 119.356,203.788 118.594,202.382 115.966 C 201.353 114.043,195.208 112.744,194.004 114.195 M228.985 133.238 C 221.984 140.427,208.259 148.640,196.800 152.498 L 191.800 154.181 185.400 154.184 C 174.049 154.189,161.586 147.664,154.132 137.815 C 151.867 134.823,150.731 134.027,149.814 134.789 C 145.912 138.027,162.616 152.378,174.671 156.146 C 186.532 159.854,196.606 157.745,215.500 147.601 C 225.063 142.467,234.656 134.176,233.754 131.825 C 233.224 130.444,231.090 131.076,228.985 133.238 M240.375 164.900 C 240.571 165.395,241.767 168.770,243.031 172.400 C 247.807 186.115,257.998 211.057,267.746 232.892 C 279.919 260.160,293.630 295.629,293.597 299.767 C 293.593 300.239,292.675 301.269,286.615 307.601 C 276.095 318.592,268.035 329.172,263.896 337.420 C 260.608 343.971,259.530 349.018,256.806 370.600 C 255.793 378.629,255.128 383.572,254.788 385.600 C 250.603 410.571,250.407 410.827,229.200 419.126 C 216.339 424.159,212.035 424.902,195.400 424.960 C 182.552 425.004,181.731 424.898,174.186 422.209 C 166.194 419.361,158.582 414.961,154.100 410.599 C 150.996 407.578,150.970 407.849,154.729 404.095 C 166.655 392.185,162.033 373.919,142.137 354.338 C 136.212 348.507,135.120 347.601,119.145 335.269 C 103.539 323.221,104.792 324.508,106.327 322.105 C 108.713 318.367,109.714 314.898,111.596 303.848 C 114.528 286.633,118.062 275.604,128.597 250.800 C 147.213 206.969,152.060 194.033,156.209 177.112 C 157.629 171.321,157.514 171.362,162.690 174.823 C 174.846 182.952,186.113 185.574,197.000 182.808 C 202.680 181.365,208.181 178.923,231.600 167.451 C 239.186 163.735,239.837 163.545,240.375 164.900 M318.400 301.836 C 318.400 303.860,317.761 304.384,316.174 303.661 C 314.892 303.077,314.948 302.473,316.429 300.893 C 317.932 299.289,318.400 299.513,318.400 301.836 M77.600 337.545 C 83.298 339.755,88.200 345.923,98.010 363.227 C 108.968 382.555,116.077 393.579,127.461 408.891 C 144.337 431.591,148.579 440.304,146.570 448.142 C 143.329 460.790,134.099 467.633,119.400 468.286 C 109.850 468.711,100.369 466.274,82.400 458.777 C 68.785 453.096,65.279 452.262,33.800 447.214 C 22.155 445.346,19.987 444.878,16.919 443.569 C 10.653 440.896,9.916 435.376,13.798 420.200 C 15.830 412.255,15.884 408.894,14.219 394.000 C 12.272 376.572,13.671 374.072,29.000 367.593 C 41.510 362.305,44.491 360.007,55.963 346.800 C 62.212 339.606,63.974 337.843,65.800 336.960 C 67.620 336.080,74.733 336.433,77.600 337.545 M287.361 343.032 C 290.050 350.030,296.196 357.836,300.812 360.114 C 311.113 365.199,326.100 361.865,339.749 351.450 C 344.285 347.989,347.993 347.123,354.474 348.010 C 361.520 348.975,363.577 351.888,368.583 368.000 C 372.838 381.697,375.296 386.834,381.788 395.600 C 392.626 410.236,391.854 412.369,371.790 423.207 C 349.244 435.387,345.252 438.055,333.800 448.592 C 311.891 468.752,305.064 472.646,290.200 473.461 C 280.742 473.980,276.410 472.209,270.398 465.369 C 262.386 456.253,261.289 449.942,264.815 433.237 C 265.940 427.905,266.691 424.860,269.954 412.400 C 273.133 400.261,275.548 385.871,277.005 370.400 C 278.602 353.425,280.184 346.616,283.650 341.790 C 285.456 339.276,285.986 339.454,287.361 343.032 " stroke="none" fill="#040404" fill-rule="evenodd"></path><path id="path4" d="M238.000 164.915 C 237.450 165.167,232.050 167.783,226.000 170.728 C 205.602 180.656,201.239 182.485,194.800 183.803 C 185.321 185.743,173.050 182.469,162.039 175.061 C 157.750 172.176,157.943 172.116,156.818 176.700 C 152.558 194.070,148.111 206.092,131.408 245.400 C 118.913 274.804,115.175 285.961,112.401 302.126 C 110.280 314.487,109.184 318.541,107.048 321.923 C 105.766 323.954,105.741 324.537,106.900 325.302 C 108.556 326.393,131.750 344.400,135.631 347.606 C 160.532 368.179,168.484 391.342,155.114 404.363 C 151.822 407.569,151.813 407.718,154.736 410.506 C 160.590 416.090,171.528 421.531,182.000 424.067 C 185.265 424.858,204.266 424.704,210.701 423.835 C 221.306 422.403,241.452 414.532,246.784 409.738 C 250.660 406.253,252.747 398.511,255.390 377.800 C 255.727 375.160,256.180 371.650,256.397 370.000 C 256.613 368.350,257.071 364.840,257.415 362.200 C 258.959 350.341,259.954 345.496,261.768 340.997 C 265.741 331.143,273.953 320.089,288.726 304.708 C 292.553 300.724,293.209 299.857,292.972 299.098 C 286.183 277.385,280.191 261.939,267.742 234.063 C 256.203 208.225,246.815 185.015,240.548 166.831 C 239.723 164.439,239.465 164.244,238.000 164.915 M241.740 171.905 C 246.628 185.887,258.638 215.193,268.009 236.000 C 277.468 257.002,284.685 275.174,289.548 290.231 C 293.027 301.002,293.212 299.250,288.029 304.641 C 272.693 320.594,263.837 332.921,260.470 343.000 C 259.172 346.888,257.659 355.260,256.388 365.600 C 256.158 367.470,255.803 370.350,255.600 372.000 C 252.537 396.853,250.492 405.439,246.756 409.138 C 241.931 413.915,220.478 422.122,209.405 423.429 C 202.497 424.244,185.885 424.388,182.600 423.661 C 171.741 421.260,159.131 414.734,153.630 408.669 L 152.661 407.600 155.675 404.500 C 164.834 395.079,164.495 382.643,154.671 367.649 C 147.869 357.268,141.787 351.474,120.200 334.811 C 112.720 329.038,106.534 324.252,106.453 324.177 C 106.373 324.102,106.837 323.176,107.485 322.120 C 109.727 318.466,110.752 314.857,112.626 304.020 C 115.910 285.027,118.736 276.554,132.914 243.200 C 147.574 208.713,152.615 195.259,156.372 180.600 C 157.274 177.080,158.094 173.976,158.193 173.702 C 158.311 173.376,159.498 173.969,161.623 175.416 C 174.560 184.225,187.325 186.856,199.400 183.204 C 204.140 181.770,208.641 179.763,225.600 171.520 C 238.466 165.267,238.480 165.261,239.000 165.232 C 239.220 165.219,240.453 168.222,241.740 171.905 " stroke="none" fill="#888888" fill-rule="evenodd"></path><path id="path5" d="M186.512 106.695 C 187.564 106.777,189.184 106.776,190.112 106.692 C 191.040 106.608,190.180 106.541,188.200 106.542 C 186.220 106.543,185.460 106.612,186.512 106.695 M171.724 111.391 C 170.588 112.156,169.536 112.979,169.387 113.220 C 169.154 113.598,172.703 111.262,173.780 110.329 C 174.647 109.578,173.656 110.090,171.724 111.391 M203.633 110.152 C 204.041 110.524,208.000 112.393,208.000 112.213 C 208.000 111.988,204.180 110.000,203.747 110.000 C 203.593 110.000,203.542 110.068,203.633 110.152 M178.700 113.482 C 179.195 113.578,180.005 113.578,180.500 113.482 C 180.995 113.387,180.590 113.309,179.600 113.309 C 178.610 113.309,178.205 113.387,178.700 113.482 M195.705 113.487 C 196.314 113.579,197.214 113.577,197.705 113.482 C 198.197 113.387,197.700 113.311,196.600 113.314 C 195.500 113.317,195.097 113.395,195.705 113.487 M193.680 114.080 C 192.863 114.897,193.770 116.800,194.976 116.800 C 195.148 116.800,194.864 116.452,194.344 116.026 C 193.525 115.354,193.466 115.143,193.903 114.426 C 194.471 113.495,194.390 113.370,193.680 114.080 M174.034 115.364 C 173.513 115.919,173.208 116.641,173.317 117.064 C 173.494 117.748,173.511 117.745,173.554 117.026 C 173.579 116.600,173.991 115.835,174.470 115.326 C 174.948 114.817,175.249 114.400,175.139 114.400 C 175.029 114.400,174.532 114.834,174.034 115.364 M165.375 116.500 L 164.200 117.800 165.500 116.625 C 166.215 115.979,166.800 115.394,166.800 115.325 C 166.800 115.016,166.470 115.288,165.375 116.500 M213.600 115.396 C 213.600 115.670,216.049 116.884,216.232 116.701 C 216.319 116.614,215.762 116.244,214.995 115.878 C 214.228 115.512,213.600 115.295,213.600 115.396 M162.575 118.900 L 161.400 120.200 162.700 119.025 C 163.415 118.379,164.000 117.794,164.000 117.725 C 164.000 117.416,163.670 117.688,162.575 118.900 M159.000 121.644 C 155.955 124.103,155.466 124.786,158.325 122.586 C 160.534 120.886,161.534 119.967,161.124 120.014 C 161.056 120.022,160.100 120.755,159.000 121.644 M239.600 126.925 C 239.600 126.994,240.185 127.579,240.900 128.225 L 242.200 129.400 241.025 128.100 C 239.930 126.888,239.600 126.616,239.600 126.925 M146.975 131.300 L 145.800 132.600 147.100 131.425 C 147.815 130.779,148.400 130.194,148.400 130.125 C 148.400 129.816,148.070 130.088,146.975 131.300 M227.988 133.900 L 225.400 136.600 228.100 134.012 C 229.585 132.588,230.800 131.373,230.800 131.312 C 230.800 131.017,230.393 131.392,227.988 133.900 M244.120 136.000 C 244.120 137.210,244.195 137.705,244.287 137.100 C 244.378 136.495,244.378 135.505,244.287 134.900 C 244.195 134.295,244.120 134.790,244.120 136.000 M230.587 136.900 L 228.200 139.400 230.700 137.013 C 232.075 135.699,233.200 134.574,233.200 134.513 C 233.200 134.217,232.805 134.578,230.587 136.900 M144.453 137.600 C 144.430 139.030,144.556 140.427,144.732 140.704 C 144.908 140.980,144.985 140.080,144.903 138.704 C 144.687 135.075,144.499 134.614,144.453 137.600 M149.216 137.640 C 149.197 138.422,151.078 141.039,152.637 142.400 C 153.268 142.950,153.009 142.535,152.063 141.478 C 151.117 140.421,150.093 138.981,149.787 138.278 C 149.481 137.575,149.224 137.288,149.216 137.640 M156.400 140.600 C 157.146 141.370,157.847 142.000,157.957 142.000 C 158.067 142.000,157.546 141.370,156.800 140.600 C 156.054 139.830,155.353 139.200,155.243 139.200 C 155.133 139.200,155.654 139.830,156.400 140.600 M220.200 140.235 L 219.000 141.266 220.300 140.406 C 221.015 139.933,221.600 139.468,221.600 139.373 C 221.600 139.073,221.431 139.178,220.200 140.235 M224.400 142.049 C 223.006 143.271,223.005 143.272,224.288 142.419 C 224.996 141.948,225.682 141.391,225.812 141.181 C 226.197 140.557,225.877 140.754,224.400 142.049 M155.200 144.600 C 155.946 145.370,156.647 146.000,156.757 146.000 C 156.867 146.000,156.346 145.370,155.600 144.600 C 154.854 143.830,154.153 143.200,154.043 143.200 C 153.933 143.200,154.454 143.830,155.200 144.600 M161.344 144.709 C 161.660 145.221,164.000 146.953,164.000 146.675 C 164.000 146.576,163.339 145.991,162.532 145.375 C 161.724 144.759,161.189 144.459,161.344 144.709 M211.900 145.429 C 210.405 146.240,210.496 146.578,212.000 145.800 C 212.660 145.459,213.200 145.094,213.200 144.990 C 213.200 144.732,213.157 144.747,211.900 145.429 M238.181 147.700 L 236.600 149.400 238.300 147.819 C 239.881 146.348,240.184 146.000,239.881 146.000 C 239.816 146.000,239.051 146.765,238.181 147.700 M149.800 148.400 C 150.883 149.500,151.860 150.400,151.970 150.400 C 152.080 150.400,151.283 149.500,150.200 148.400 C 149.117 147.300,148.140 146.400,148.030 146.400 C 147.920 146.400,148.717 147.300,149.800 148.400 M164.669 147.232 C 165.166 147.833,167.600 149.364,167.600 149.076 C 167.600 148.983,166.835 148.402,165.900 147.785 C 164.965 147.168,164.411 146.920,164.669 147.232 M213.900 148.426 C 212.635 149.079,211.600 149.703,211.600 149.812 C 211.600 149.922,212.680 149.466,214.000 148.800 C 215.320 148.134,216.400 147.501,216.400 147.394 C 216.400 147.128,216.474 147.097,213.900 148.426 M159.344 147.909 C 159.660 148.421,162.000 150.153,162.000 149.875 C 162.000 149.776,161.339 149.191,160.532 148.575 C 159.724 147.959,159.189 147.659,159.344 147.909 M208.000 151.400 C 206.570 152.149,205.580 152.761,205.800 152.761 C 206.020 152.761,207.370 152.149,208.800 151.400 C 210.230 150.651,211.220 150.039,211.000 150.039 C 210.780 150.039,209.430 150.651,208.000 151.400 M154.400 152.146 C 154.400 152.256,154.940 152.730,155.600 153.200 C 156.260 153.670,156.800 153.964,156.800 153.854 C 156.800 153.744,156.260 153.270,155.600 152.800 C 154.940 152.330,154.400 152.036,154.400 152.146 M228.400 154.200 C 227.410 154.730,226.742 155.172,226.916 155.182 C 227.341 155.206,230.400 153.634,230.400 153.392 C 230.400 153.127,230.417 153.120,228.400 154.200 M183.300 154.296 C 184.565 154.375,186.635 154.375,187.900 154.296 C 189.165 154.216,188.130 154.151,185.600 154.151 C 183.070 154.151,182.035 154.216,183.300 154.296 M187.700 157.876 C 188.085 157.976,188.715 157.976,189.100 157.876 C 189.485 157.775,189.170 157.693,188.400 157.693 C 187.630 157.693,187.315 157.775,187.700 157.876 M218.300 158.626 C 217.255 159.170,216.400 159.705,216.400 159.814 C 216.400 159.993,220.360 158.123,220.767 157.752 C 221.262 157.301,219.961 157.762,218.300 158.626 M207.600 164.600 C 206.170 165.349,205.140 165.970,205.311 165.981 C 205.737 166.007,210.400 163.637,210.400 163.394 C 210.400 163.125,210.494 163.085,207.600 164.600 M231.600 167.451 C 208.181 178.923,202.680 181.365,197.000 182.808 C 186.113 185.574,174.846 182.952,162.690 174.823 C 157.514 171.362,157.629 171.321,156.209 177.112 C 152.060 194.033,147.213 206.969,128.597 250.800 C 118.062 275.604,114.528 286.633,111.596 303.848 C 109.714 314.898,108.713 318.367,106.327 322.105 C 104.792 324.508,103.539 323.221,119.145 335.269 C 135.120 347.601,136.212 348.507,142.137 354.338 C 162.033 373.919,166.655 392.185,154.729 404.095 C 150.970 407.849,150.996 407.578,154.100 410.599 C 159.860 416.204,170.983 421.879,180.986 424.315 C 184.875 425.262,204.838 425.236,211.401 424.276 C 218.949 423.171,229.613 419.502,240.260 414.347 C 247.990 410.604,250.060 408.186,251.988 400.648 C 252.663 398.008,253.122 395.540,254.788 385.600 C 255.128 383.572,255.793 378.629,256.806 370.600 C 259.530 349.018,260.608 343.971,263.896 337.420 C 268.035 329.172,276.095 318.592,286.615 307.601 C 292.675 301.269,293.593 300.239,293.597 299.767 C 293.630 295.629,279.919 260.160,267.746 232.892 C 257.998 211.057,247.807 186.115,243.031 172.400 C 240.022 163.762,240.127 163.998,239.309 164.011 C 238.919 164.017,235.450 165.565,231.600 167.451 M240.759 167.404 C 245.743 181.932,256.452 208.563,265.207 228.200 C 275.024 250.219,280.826 263.989,284.954 275.068 C 287.002 280.567,293.200 299.119,293.200 299.753 C 293.200 299.907,291.392 301.934,289.182 304.258 C 266.281 328.338,260.611 338.148,258.005 358.200 C 257.805 359.740,257.356 363.160,257.007 365.800 C 256.659 368.440,256.007 373.480,255.558 377.000 C 255.109 380.520,254.218 386.460,253.578 390.200 C 250.625 407.442,249.682 409.150,240.600 413.703 C 231.094 418.468,218.601 422.780,211.200 423.852 C 204.224 424.861,184.397 424.878,180.800 423.876 C 170.298 420.953,159.907 415.653,154.500 410.461 C 151.801 407.870,151.827 407.689,155.439 403.908 C 165.733 393.134,163.319 378.171,148.402 360.300 C 142.410 353.122,138.402 349.624,119.000 334.645 C 104.607 323.533,105.493 324.559,107.346 321.150 C 109.391 317.388,110.609 312.831,112.195 303.000 C 114.601 288.086,118.987 274.379,128.513 252.000 C 147.158 208.199,152.383 194.410,156.211 178.900 C 157.975 171.751,157.531 171.987,162.761 175.414 C 173.908 182.717,184.492 185.544,194.256 183.826 C 200.518 182.724,206.862 180.071,227.200 170.048 C 240.308 163.589,239.504 163.745,240.759 167.404 M175.200 167.397 C 175.200 167.668,178.449 169.284,178.630 169.103 C 178.714 169.019,177.976 168.559,176.991 168.081 C 176.006 167.602,175.200 167.294,175.200 167.397 M184.900 171.076 C 185.285 171.176,185.915 171.176,186.300 171.076 C 186.685 170.975,186.370 170.893,185.600 170.893 C 184.830 170.893,184.515 170.975,184.900 171.076 M316.451 300.869 C 315.161 302.246,314.914 302.976,315.595 303.397 C 315.825 303.539,315.888 303.372,315.745 303.000 C 315.505 302.377,316.968 300.400,317.670 300.400 C 318.376 300.400,318.025 303.538,317.300 303.711 C 316.767 303.839,316.791 303.869,317.400 303.839 C 318.052 303.807,318.223 303.475,318.326 302.046 C 318.500 299.607,317.955 299.264,316.451 300.869 M72.100 336.676 C 72.485 336.776,73.115 336.776,73.500 336.676 C 73.885 336.575,73.570 336.493,72.800 336.493 C 72.030 336.493,71.715 336.575,72.100 336.676 M284.662 340.300 C 284.560 340.465,284.909 340.600,285.438 340.600 C 285.967 340.600,286.400 340.465,286.400 340.300 C 286.400 340.135,286.051 340.000,285.624 340.000 C 285.197 340.000,284.764 340.135,284.662 340.300 M59.775 342.500 L 58.600 343.800 59.900 342.625 C 61.112 341.530,61.384 341.200,61.075 341.200 C 61.006 341.200,60.421 341.785,59.775 342.500 M56.575 346.100 L 55.400 347.400 56.700 346.225 C 57.912 345.130,58.184 344.800,57.875 344.800 C 57.806 344.800,57.221 345.385,56.575 346.100 M350.105 347.887 C 350.714 347.979,351.614 347.977,352.105 347.882 C 352.597 347.787,352.100 347.711,351.000 347.714 C 349.900 347.717,349.497 347.795,350.105 347.887 M50.778 352.700 L 49.400 354.200 50.900 352.822 C 52.296 351.538,52.584 351.200,52.278 351.200 C 52.212 351.200,51.537 351.875,50.778 352.700 M295.600 356.600 C 296.346 357.370,297.047 358.000,297.157 358.000 C 297.267 358.000,296.746 357.370,296.000 356.600 C 295.254 355.830,294.553 355.200,294.443 355.200 C 294.333 355.200,294.854 355.830,295.600 356.600 M277.693 363.600 C 277.693 364.370,277.775 364.685,277.876 364.300 C 277.976 363.915,277.976 363.285,277.876 362.900 C 277.775 362.515,277.693 362.830,277.693 363.600 M310.100 362.691 C 310.925 362.778,312.275 362.778,313.100 362.691 C 313.925 362.605,313.250 362.534,311.600 362.534 C 309.950 362.534,309.275 362.605,310.100 362.691 M35.600 364.600 C 34.610 365.130,33.942 365.572,34.116 365.582 C 34.541 365.606,37.600 364.034,37.600 363.792 C 37.600 363.527,37.617 363.520,35.600 364.600 M276.893 371.600 C 276.893 372.370,276.975 372.685,277.076 372.300 C 277.176 371.915,277.176 371.285,277.076 370.900 C 276.975 370.515,276.893 370.830,276.893 371.600 M16.575 374.500 L 15.400 375.800 16.700 374.625 C 17.415 373.979,18.000 373.394,18.000 373.325 C 18.000 373.016,17.670 373.288,16.575 374.500 M13.701 381.400 C 13.705 382.280,13.787 382.593,13.883 382.095 C 13.979 381.598,13.975 380.878,13.875 380.495 C 13.775 380.113,13.696 380.520,13.701 381.400 M275.693 382.800 C 275.693 383.570,275.775 383.885,275.876 383.500 C 275.976 383.115,275.976 382.485,275.876 382.100 C 275.775 381.715,275.693 382.030,275.693 382.800 M13.720 388.000 C 13.720 389.210,13.795 389.705,13.887 389.100 C 13.978 388.495,13.978 387.505,13.887 386.900 C 13.795 386.295,13.720 386.790,13.720 388.000 M14.493 396.800 C 14.493 397.570,14.575 397.885,14.676 397.500 C 14.776 397.115,14.776 396.485,14.676 396.100 C 14.575 395.715,14.493 396.030,14.493 396.800 M387.078 404.195 C 387.444 404.962,387.814 405.519,387.901 405.432 C 388.084 405.249,386.870 402.800,386.596 402.800 C 386.495 402.800,386.712 403.428,387.078 404.195 M15.309 405.600 C 15.309 406.590,15.387 406.995,15.482 406.500 C 15.578 406.005,15.578 405.195,15.482 404.700 C 15.387 404.205,15.309 404.610,15.309 405.600 M15.293 412.400 C 15.293 413.170,15.375 413.485,15.476 413.100 C 15.576 412.715,15.576 412.085,15.476 411.700 C 15.375 411.315,15.293 411.630,15.293 412.400 M386.000 413.800 C 385.028 414.790,384.323 415.600,384.433 415.600 C 384.543 415.600,385.428 414.790,386.400 413.800 C 387.372 412.810,388.077 412.000,387.967 412.000 C 387.857 412.000,386.972 412.810,386.000 413.800 M367.100 425.429 C 365.605 426.240,365.696 426.578,367.200 425.800 C 367.860 425.459,368.400 425.094,368.400 424.990 C 368.400 424.732,368.357 424.747,367.100 425.429 M11.693 430.800 C 11.693 431.570,11.775 431.885,11.876 431.500 C 11.976 431.115,11.976 430.485,11.876 430.100 C 11.775 429.715,11.693 430.030,11.693 430.800 M13.401 441.134 C 14.060 441.868,14.960 442.655,15.400 442.883 C 15.840 443.111,16.020 443.140,15.800 442.948 C 15.580 442.755,14.680 441.968,13.801 441.199 L 12.202 439.800 13.401 441.134 M262.940 447.600 C 262.940 449.470,263.009 450.235,263.093 449.300 C 263.177 448.365,263.177 446.835,263.093 445.900 C 263.009 444.965,262.940 445.730,262.940 447.600 M335.200 447.000 C 334.228 447.990,333.523 448.800,333.633 448.800 C 333.743 448.800,334.628 447.990,335.600 447.000 C 336.572 446.010,337.277 445.200,337.167 445.200 C 337.057 445.200,336.172 446.010,335.200 447.000 M330.585 451.300 L 328.600 453.400 330.700 451.415 C 332.651 449.571,332.983 449.200,332.685 449.200 C 332.622 449.200,331.677 450.145,330.585 451.300 M139.578 460.700 L 138.200 462.200 139.700 460.822 C 141.096 459.538,141.384 459.200,141.078 459.200 C 141.012 459.200,140.337 459.875,139.578 460.700 M115.100 468.296 C 116.475 468.374,118.725 468.374,120.100 468.296 C 121.475 468.218,120.350 468.154,117.600 468.154 C 114.850 468.154,113.725 468.218,115.100 468.296 M293.700 473.076 C 294.085 473.176,294.715 473.176,295.100 473.076 C 295.485 472.975,295.170 472.893,294.400 472.893 C 293.630 472.893,293.315 472.975,293.700 473.076 M284.705 473.483 C 285.202 473.579,285.922 473.575,286.305 473.475 C 286.687 473.375,286.280 473.296,285.400 473.301 C 284.520 473.305,284.207 473.387,284.705 473.483 M289.500 473.482 C 289.995 473.578,290.805 473.578,291.300 473.482 C 291.795 473.387,291.390 473.309,290.400 473.309 C 289.410 473.309,289.005 473.387,289.500 473.482 " stroke="none" fill="#3c3c3c" fill-rule="evenodd"></path></g></svg>