<?xml version="1.0" standalone="no"?>
<!DOCTYPE svg PUBLIC "-//W3C//DTD SVG 20010904//EN"
 "http://www.w3.org/TR/2001/REC-SVG-20010904/DTD/svg10.dtd">
<svg version="1.0" xmlns="http://www.w3.org/2000/svg"
 width="253.000000pt" height="306.000000pt" viewBox="0 0 253.000000 306.000000"
 preserveAspectRatio="xMidYMid meet">
<metadata>
Created by potrace 1.15, written by Peter Selinger 2001-2017
</metadata>
<g transform="translate(0.000000,306.000000) scale(0.100000,-0.100000)"
fill="red" stroke="none">
<path d="M1728 2915 c-15 -8 -32 -24 -38 -35 -16 -30 -12 -85 9 -111 19 -24
18 -25 -32 -161 -28 -75 -53 -136 -54 -134 -2 1 -27 59 -56 128 l-54 125 24
27 c34 40 32 104 -5 139 -40 38 -108 38 -146 1 -43 -44 -39 -106 9 -151 l34
-32 -21 -146 c-12 -79 -23 -144 -24 -142 -1 1 -41 71 -89 155 -48 84 -92 151
-99 149 -16 -5 -25 -67 -26 -182 -1 -55 -4 -117 -8 -137 l-7 -36 -83 129 c-80
123 -83 129 -68 151 21 30 20 97 -2 124 -67 83 -191 42 -192 -63 0 -45 38
-103 67 -103 14 0 15 -15 10 -122 -4 -66 -7 -142 -7 -167 l0 -45 -96 152 c-53
84 -102 152 -109 152 -22 0 -25 -26 -25 -192 l0 -160 -90 112 c-88 110 -100
132 -80 145 15 9 12 72 -5 104 -29 57 -119 65 -166 15 -18 -19 -24 -37 -24
-71 0 -38 5 -49 33 -74 18 -16 41 -29 52 -29 11 0 20 -6 20 -13 0 -7 7 -66 16
-131 8 -65 13 -120 10 -123 -2 -3 -53 35 -111 85 -107 88 -107 89 -109 136 -2
57 -27 85 -83 93 -32 4 -44 1 -71 -22 -27 -23 -32 -34 -32 -70 0 -59 33 -98
83 -99 l35 -1 160 -259 160 -259 -31 -39 c-55 -69 -39 -163 36 -208 18 -11 42
-20 55 -20 l22 0 0 -739 0 -739 43 -6 c97 -13 604 -18 704 -7 390 45 659 197
817 460 168 280 194 734 57 1035 -53 116 -161 248 -265 322 l-28 20 26 29 c79
85 43 213 -68 241 l-28 7 6 81 c3 44 8 183 12 309 5 177 9 227 19 227 24 0 55
51 55 91 0 74 -78 120 -142 84z m-144 -550 c58 -137 102 -253 98 -257 -10 -9
-293 -81 -298 -75 -3 3 11 110 31 239 46 302 57 365 62 353 2 -5 50 -122 107
-260z m-460 -77 c91 -142 169 -263 171 -270 4 -9 -50 -28 -187 -65 -106 -28
-194 -50 -196 -48 -3 3 5 171 25 538 3 65 9 114 13 110 4 -4 82 -124 174 -265z
m-307 -409 c-17 -10 -290 -80 -294 -75 -3 3 -73 528 -73 549 0 4 85 -99 190
-230 128 -160 186 -239 177 -244z m988 169 c15 -7 33 -25 41 -40 13 -25 13
-32 -1 -61 -8 -18 -23 -37 -33 -44 -11 -6 -230 -68 -488 -137 -740 -197 -789
-209 -818 -202 -64 16 -86 82 -43 131 20 23 79 42 507 156 267 71 550 146 630
168 164 45 169 45 205 29z m-344 -374 c175 -68 301 -212 348 -396 38 -147 36
-336 -4 -493 -60 -236 -231 -405 -470 -465 -90 -23 -291 -37 -378 -26 l-57 7
0 644 0 644 43 12 c349 94 405 107 430 103 15 -3 55 -16 88 -30z"/>
<path d="M1474 2433 c5 -35 2 -51 -10 -64 -25 -28 -21 -69 10 -95 16 -15 26
-33 26 -51 0 -35 14 -57 31 -51 9 3 13 17 11 43 -2 22 3 51 14 70 20 38 12 85
-16 92 -15 4 -21 17 -26 54 -5 40 -10 49 -27 49 -18 0 -19 -4 -13 -47z"/>
<path d="M980 2369 c0 -5 5 -30 11 -54 9 -37 9 -47 -5 -60 -35 -35 -9 -115 36
-115 11 0 20 -16 28 -50 13 -53 25 -69 42 -52 8 8 7 25 -1 58 -10 39 -10 49 4
64 32 36 5 120 -39 120 -9 0 -19 20 -26 50 -9 38 -16 50 -31 50 -10 0 -19 -5
-19 -11z"/>
<path d="M505 2188 c4 -18 6 -57 6 -87 -2 -56 17 -91 46 -91 8 0 22 -18 30
-40 11 -27 22 -40 35 -40 22 0 23 10 3 56 -11 26 -12 40 -3 59 16 35 3 71 -31
85 -20 8 -35 25 -45 51 -20 50 -52 55 -41 7z"/>
</g>
</svg>
