<svg id="svg" xmlns="http://www.w3.org/2000/svg" xmlns:xlink="http://www.w3.org/1999/xlink" width="400" height="400" viewBox="0, 0, 400,400"><g id="svgg"><path id="path0" d="M185.600 17.207 C 183.510 17.401,179.370 17.930,176.400 18.383 C 173.430 18.835,169.197 19.468,166.994 19.789 C 153.916 21.693,135.492 27.733,120.409 35.059 C 40.089 74.073,0.057 163.002,24.052 249.109 C 34.980 288.323,58.113 320.409,93.809 345.865 C 134.747 375.059,193.064 385.376,243.800 372.400 C 377.067 338.316,425.555 169.367,330.063 71.829 C 300.056 41.180,264.761 24.000,219.000 17.768 C 213.754 17.053,191.311 16.676,185.600 17.207 M217.600 19.558 C 228.208 20.861,237.367 22.481,243.200 24.084 C 251.758 26.436,252.477 26.682,265.400 31.666 C 268.636 32.914,282.161 39.972,281.871 40.262 C 281.785 40.348,280.294 39.813,278.557 39.073 C 198.498 4.943,108.239 27.820,58.104 94.948 C 39.729 119.550,29.314 144.121,23.201 177.294 C 21.190 188.201,20.829 188.973,20.810 182.400 C 20.772 169.264,25.493 148.218,32.398 130.743 C 52.008 81.114,97.877 39.668,148.800 25.564 C 155.533 23.699,160.815 22.454,164.600 21.838 C 166.800 21.480,170.760 20.838,173.400 20.411 C 177.548 19.740,181.504 19.332,190.600 18.637 C 195.346 18.275,211.692 18.832,217.600 19.558 M209.000 78.843 C 216.927 79.614,225.332 82.060,232.544 85.697 C 236.421 87.651,237.518 87.592,242.666 85.146 C 253.055 80.210,263.211 85.271,265.872 96.709 C 266.863 100.971,267.111 127.096,266.218 133.242 C 264.684 143.800,259.934 148.593,251.000 148.598 C 242.195 148.603,237.825 144.521,235.038 133.689 C 232.194 122.635,227.474 117.676,216.000 113.689 C 185.207 102.988,150.878 125.939,168.737 145.286 C 173.981 150.966,177.778 152.291,204.600 157.794 C 235.036 164.038,247.953 169.265,258.397 179.562 C 273.513 194.467,277.322 219.241,267.470 238.581 C 252.275 268.413,199.871 279.320,160.849 260.773 C 155.341 258.156,155.177 258.171,151.340 261.641 C 144.041 268.244,131.093 265.060,127.638 255.813 C 126.132 251.783,126.017 250.138,125.977 232.087 C 125.935 212.530,125.958 212.324,128.706 208.245 C 133.557 201.045,142.767 199.745,150.710 205.139 C 153.754 207.206,154.771 208.870,157.207 215.774 C 160.391 224.798,164.521 228.473,176.558 232.997 C 205.993 244.060,245.293 230.218,240.180 210.588 C 237.690 201.026,228.367 196.272,202.600 191.421 C 173.873 186.012,160.828 181.334,150.200 172.629 C 129.878 155.983,125.833 125.194,141.234 104.379 C 155.844 84.633,178.956 75.924,209.000 78.843 M190.800 80.075 C 164.226 82.054,141.975 97.818,135.828 119.020 C 133.690 126.394,134.852 128.340,137.607 122.000 C 150.116 93.219,182.566 78.246,217.815 84.990 C 225.580 86.476,228.213 86.182,224.100 84.288 C 216.793 80.924,202.938 79.171,190.800 80.075 M247.036 84.847 C 245.176 85.283,243.163 86.447,241.079 88.291 C 240.242 89.031,239.117 89.837,238.579 90.083 C 237.406 90.617,237.300 91.811,238.374 92.386 C 239.797 93.148,241.538 92.813,244.638 91.180 C 247.959 89.431,251.297 88.400,253.640 88.400 C 255.318 88.400,257.103 87.214,256.614 86.423 C 255.588 84.763,250.773 83.971,247.036 84.847 M206.200 113.593 C 213.162 114.536,214.314 115.864,207.790 115.427 C 188.958 114.166,177.198 118.429,169.400 129.343 C 166.654 133.187,165.846 131.222,168.306 126.684 C 173.849 116.459,188.917 111.253,206.200 113.593 M267.394 143.218 C 265.278 149.589,256.462 154.201,249.890 152.376 C 247.876 151.817,248.291 151.352,251.095 151.025 C 257.215 150.312,261.960 147.622,265.394 142.921 C 266.607 141.259,267.627 139.697,267.660 139.450 C 267.693 139.202,267.795 139.501,267.888 140.113 C 267.980 140.725,267.758 142.122,267.394 143.218 M181.285 155.700 C 181.778 157.332,190.383 159.797,206.800 163.010 C 214.134 164.445,223.952 166.554,230.033 168.002 C 238.730 170.072,239.147 169.394,230.941 166.524 C 222.081 163.425,219.859 162.887,194.822 157.770 C 181.169 154.980,181.062 154.964,181.285 155.700 M182.600 190.000 C 182.915 190.509,181.988 190.509,181.200 190.000 C 180.712 189.685,180.764 189.611,181.476 189.606 C 181.958 189.603,182.464 189.780,182.600 190.000 M189.800 191.600 L 191.400 192.378 189.841 192.182 C 187.521 191.890,186.400 191.556,186.400 191.157 C 186.400 190.556,188.114 190.779,189.800 191.600 M198.747 193.040 C 200.646 193.391,203.370 193.949,204.800 194.278 C 206.230 194.608,208.480 195.094,209.800 195.360 C 212.802 195.963,214.415 196.769,212.657 196.788 C 212.029 196.795,210.319 196.541,208.857 196.223 C 207.396 195.906,203.590 195.157,200.400 194.559 C 197.210 193.960,193.970 193.243,193.200 192.964 L 191.800 192.456 193.547 192.428 C 194.508 192.413,196.848 192.688,198.747 193.040 M137.236 203.615 C 132.500 204.595,128.443 209.382,128.282 214.180 C 128.168 217.549,128.965 217.599,131.167 214.361 C 134.063 210.100,137.903 207.816,142.944 207.353 C 147.985 206.890,149.040 206.010,146.671 204.242 C 145.387 203.285,140.427 202.955,137.236 203.615 M241.092 221.093 C 231.614 234.980,210.466 241.373,185.887 237.781 C 177.245 236.518,180.029 238.834,190.200 241.368 C 209.671 246.219,238.063 237.168,242.761 224.612 C 244.539 219.861,243.470 217.608,241.092 221.093 M273.389 234.100 C 269.520 252.436,246.963 268.770,219.600 273.051 C 208.340 274.812,182.951 273.309,181.393 270.789 C 181.022 270.188,183.791 270.323,186.542 271.041 C 190.503 272.074,214.585 271.637,220.400 270.427 C 246.109 265.077,263.966 252.670,271.957 234.604 C 272.902 232.467,273.801 232.151,273.389 234.100 M78.578 260.247 C 80.098 260.830,80.195 261.790,80.400 278.219 C 80.590 293.415,80.641 294.296,81.400 295.375 C 82.644 297.144,82.737 297.327,82.987 298.514 C 83.136 299.219,83.600 299.772,84.251 300.019 C 86.397 300.835,325.661 300.314,326.918 299.491 C 328.020 298.768,328.354 297.466,327.562 296.976 C 327.321 296.828,272.781 296.737,206.362 296.775 C 101.205 296.836,85.600 296.770,85.600 296.266 C 85.600 295.240,85.770 295.239,206.877 295.176 L 326.354 295.115 328.566 296.381 C 333.433 299.165,333.854 304.060,329.408 306.169 C 327.778 306.943,79.290 307.190,75.891 306.421 C 73.225 305.818,71.508 304.343,70.530 301.814 C 70.033 300.527,69.762 265.172,70.246 264.687 C 70.381 264.552,70.918 264.721,71.438 265.062 C 72.764 265.930,74.552 264.854,76.381 262.089 C 77.141 260.940,77.801 260.000,77.848 260.000 C 77.896 260.000,78.224 260.111,78.578 260.247 M157.269 261.462 C 158.374 262.463,158.160 263.102,156.423 263.988 C 155.555 264.431,153.843 265.495,152.618 266.353 C 149.625 268.450,146.088 269.390,142.369 269.079 C 137.039 268.632,137.282 267.472,142.800 267.023 C 147.003 266.680,149.493 265.614,152.546 262.849 C 154.924 260.695,156.054 260.363,157.269 261.462 M334.400 306.722 C 334.400 307.641,332.165 309.811,330.600 310.412 C 329.029 311.014,79.695 310.968,78.107 310.365 C 74.557 309.015,75.773 309.001,203.272 308.943 L 328.504 308.886 331.152 307.485 C 334.303 305.818,334.400 305.795,334.400 306.722 " stroke="none" fill="#555da3" fill-rule="evenodd"></path><path id="path1" d="M179.800 9.594 C 178.700 9.770,177.293 10.114,176.674 10.357 C 176.055 10.601,174.422 10.800,173.047 10.800 C 171.671 10.800,169.208 11.156,167.573 11.591 C 165.938 12.025,163.831 12.385,162.890 12.391 C 161.950 12.396,160.156 12.760,158.904 13.200 C 157.652 13.640,156.171 13.997,155.614 13.994 C 155.056 13.991,153.430 14.337,152.000 14.763 C 150.570 15.189,147.960 15.934,146.200 16.418 C 143.131 17.263,141.562 17.785,136.500 19.645 C 135.235 20.110,133.210 20.850,132.000 21.289 C 130.790 21.728,129.030 22.428,128.089 22.844 C 127.148 23.260,126.195 23.600,125.971 23.600 C 125.022 23.600,107.065 32.411,104.556 34.108 C 103.480 34.835,101.250 36.233,99.600 37.215 C 94.070 40.506,92.632 41.495,83.000 48.635 C 80.360 50.592,77.080 53.229,75.710 54.496 C 74.341 55.763,73.030 56.800,72.798 56.800 C 72.095 56.800,58.459 70.453,57.018 72.600 C 56.279 73.700,55.098 75.140,54.393 75.800 C 52.953 77.149,43.893 89.162,40.215 94.600 C 37.016 99.330,31.473 109.087,28.512 115.200 C 24.598 123.280,24.184 124.182,23.466 126.200 C 22.493 128.935,19.942 135.350,19.410 136.400 C 19.131 136.950,18.774 138.120,18.616 139.000 C 18.458 139.880,18.185 140.780,18.010 141.000 C 17.835 141.220,17.503 142.210,17.271 143.200 C 17.040 144.190,16.591 145.810,16.274 146.800 C 15.479 149.280,14.811 151.831,14.337 154.200 C 14.117 155.300,13.588 157.370,13.162 158.800 C 12.737 160.230,12.389 162.030,12.389 162.800 C 12.389 163.570,12.032 165.341,11.595 166.736 C 11.116 168.263,10.798 170.410,10.794 172.136 C 10.791 173.883,10.518 175.702,10.094 176.800 C 9.466 178.428,9.400 180.646,9.400 200.000 C 9.400 219.354,9.466 221.572,10.094 223.200 C 10.518 224.298,10.791 226.117,10.794 227.864 C 10.798 229.590,11.116 231.737,11.595 233.264 C 12.032 234.659,12.398 236.520,12.408 237.400 C 12.418 238.280,12.774 239.990,13.200 241.200 C 13.626 242.410,13.980 243.865,13.987 244.433 C 13.994 245.001,14.336 246.621,14.748 248.033 C 15.159 249.445,15.712 251.410,15.977 252.400 C 17.211 257.012,17.709 258.630,18.006 259.000 C 18.184 259.220,18.455 260.120,18.609 261.000 C 18.763 261.880,19.116 262.963,19.392 263.406 C 19.669 263.849,20.033 264.839,20.201 265.606 C 20.370 266.372,20.831 267.720,21.227 268.600 C 21.623 269.480,22.319 271.022,22.773 272.026 C 23.228 273.031,23.600 274.067,23.600 274.328 C 23.600 274.590,25.310 278.326,27.400 282.631 C 29.490 286.936,31.200 290.559,31.200 290.682 C 31.200 290.986,34.880 297.454,37.368 301.523 C 38.486 303.350,39.670 305.330,40.000 305.923 C 40.617 307.031,42.638 310.328,44.214 312.800 C 44.705 313.570,45.782 315.280,46.607 316.600 C 47.432 317.920,48.218 319.090,48.355 319.200 C 48.492 319.310,49.134 320.120,49.781 321.000 C 50.428 321.880,51.075 322.690,51.219 322.800 C 51.363 322.910,51.717 323.450,52.006 324.000 C 52.609 325.148,63.014 338.254,63.487 338.462 C 63.660 338.538,65.499 340.490,67.574 342.800 C 69.649 345.110,72.259 347.783,73.373 348.739 C 74.488 349.696,76.840 351.862,78.600 353.552 C 80.360 355.242,82.486 357.160,83.325 357.813 C 90.314 363.254,101.399 371.278,103.200 372.200 C 103.970 372.593,105.625 373.610,106.878 374.458 C 108.131 375.306,109.248 376.000,109.360 376.000 C 109.473 376.000,110.518 376.565,111.682 377.256 C 116.716 380.240,130.862 386.959,137.400 389.470 C 147.655 393.409,156.501 395.926,168.847 398.417 L 176.694 400.000 206.351 400.000 L 236.008 400.000 243.104 398.574 C 259.264 395.327,272.000 391.346,283.524 385.939 C 295.101 380.507,303.103 376.330,306.400 373.999 C 306.950 373.610,308.300 372.791,309.400 372.178 C 311.663 370.918,319.695 365.168,326.075 360.242 C 334.994 353.356,347.805 340.707,354.002 332.668 C 354.991 331.386,356.436 329.586,357.213 328.668 C 357.990 327.751,359.160 326.190,359.813 325.200 C 360.466 324.210,362.260 321.668,363.800 319.552 C 366.924 315.258,369.447 311.278,371.722 307.054 C 372.559 305.500,373.394 304.042,373.577 303.814 C 375.233 301.754,381.913 287.294,385.134 278.800 C 387.566 272.385,390.389 263.589,391.196 259.907 C 391.402 258.968,392.091 255.860,392.728 253.000 C 395.646 239.891,396.784 231.565,397.265 219.802 C 398.118 198.930,396.570 184.509,391.019 161.600 C 389.314 154.562,385.549 143.559,382.397 136.400 C 381.767 134.970,380.942 133.013,380.563 132.050 C 379.740 129.963,374.620 119.670,372.578 116.000 C 371.783 114.570,370.454 112.140,369.625 110.600 C 366.990 105.704,363.899 100.574,361.239 96.678 C 360.668 95.841,359.570 94.197,358.800 93.025 C 357.105 90.447,355.152 87.768,352.975 85.038 C 352.081 83.917,350.780 82.164,350.084 81.142 C 349.389 80.120,347.645 78.005,346.210 76.441 C 344.774 74.876,343.600 73.392,343.600 73.142 C 343.600 72.481,328.815 57.644,327.440 56.925 C 326.803 56.591,325.087 55.211,323.627 53.859 C 322.168 52.507,319.733 50.500,318.216 49.400 C 316.699 48.300,314.252 46.500,312.778 45.400 C 311.305 44.300,309.368 42.860,308.474 42.200 C 307.580 41.540,305.037 39.920,302.823 38.600 C 300.609 37.280,297.584 35.420,296.099 34.467 C 293.779 32.977,282.978 27.520,276.600 24.616 C 274.726 23.762,271.766 22.614,269.000 21.668 C 268.340 21.443,266.810 20.875,265.600 20.406 C 258.957 17.834,251.167 15.439,245.800 14.321 C 244.700 14.091,242.645 13.565,241.233 13.152 C 239.821 12.738,237.931 12.396,237.033 12.391 C 236.135 12.385,234.062 12.025,232.427 11.591 C 230.792 11.156,228.436 10.800,227.191 10.800 C 225.946 10.800,224.044 10.498,222.964 10.130 C 220.789 9.388,183.940 8.930,179.800 9.594 M219.000 17.768 C 249.531 21.925,271.762 29.533,294.841 43.720 C 363.747 86.079,394.819 165.663,373.213 244.456 C 341.318 360.769,208.742 413.832,103.997 352.209 C 96.555 347.831,94.774 346.643,86.400 340.472 C 34.636 302.324,8.235 233.749,19.845 167.600 C 28.895 116.043,59.584 71.161,104.609 43.639 C 123.524 32.076,148.693 22.454,166.994 19.789 C 169.197 19.468,173.430 18.835,176.400 18.383 C 187.438 16.701,208.892 16.391,219.000 17.768 M190.637 78.420 C 169.678 80.158,152.462 89.204,141.234 104.379 C 125.833 125.194,129.878 155.983,150.200 172.629 C 160.828 181.334,173.873 186.012,202.600 191.421 C 211.210 193.042,222.476 195.844,225.908 197.218 C 246.078 205.294,245.500 222.282,224.724 231.981 C 206.688 240.402,179.290 237.884,163.950 226.396 C 160.545 223.846,159.443 222.109,157.207 215.774 C 154.144 207.093,151.938 204.639,145.308 202.533 C 137.327 199.999,129.078 204.401,126.576 212.531 C 125.849 214.893,125.684 247.827,126.381 251.500 C 128.754 264.012,142.531 269.610,151.340 261.641 C 155.177 258.171,155.341 258.156,160.849 260.773 C 199.871 279.320,252.275 268.413,267.470 238.581 C 277.322 219.241,273.513 194.467,258.397 179.562 C 247.953 169.265,235.036 164.038,204.600 157.794 C 192.803 155.373,183.176 153.153,179.578 152.022 C 167.293 148.161,161.004 137.348,165.510 127.833 C 174.126 109.640,207.637 105.059,226.790 119.456 C 231.434 122.947,232.946 125.557,235.038 133.689 C 237.825 144.521,242.195 148.603,251.000 148.598 C 259.934 148.593,264.684 143.800,266.218 133.242 C 267.111 127.096,266.863 100.971,265.872 96.709 C 263.211 85.271,253.055 80.210,242.666 85.146 C 237.518 87.592,236.421 87.651,232.544 85.697 C 220.995 79.873,205.519 77.186,190.637 78.420 M206.000 80.179 C 215.160 81.113,226.400 84.169,226.400 85.725 C 226.400 86.171,222.030 85.797,217.815 84.990 C 182.566 78.246,150.116 93.219,137.607 122.000 C 134.852 128.340,133.690 126.394,135.828 119.020 C 143.244 93.438,173.235 76.837,206.000 80.179 M254.651 85.167 C 257.552 86.485,256.953 88.400,253.640 88.400 C 251.297 88.400,247.959 89.431,244.638 91.180 C 241.538 92.813,239.797 93.148,238.374 92.386 C 237.300 91.811,237.406 90.617,238.579 90.083 C 239.117 89.837,240.242 89.031,241.079 88.291 C 245.236 84.613,250.674 83.362,254.651 85.167 M194.822 157.770 C 219.859 162.887,222.081 163.425,230.941 166.524 C 239.147 169.394,238.730 170.072,230.033 168.002 C 223.952 166.554,214.134 164.445,206.800 163.010 C 190.383 159.797,181.778 157.332,181.285 155.700 C 181.062 154.964,181.169 154.980,194.822 157.770 M146.671 204.242 C 149.040 206.010,147.985 206.890,142.944 207.353 C 137.903 207.816,134.063 210.100,131.167 214.361 C 128.965 217.599,128.168 217.549,128.282 214.180 C 128.410 210.374,130.055 207.742,134.036 204.977 C 136.827 203.039,144.462 202.595,146.671 204.242 M243.357 219.833 C 245.535 225.508,235.979 234.775,223.200 239.381 C 214.201 242.624,198.932 243.544,190.200 241.368 C 180.029 238.834,177.245 236.518,185.887 237.781 C 210.466 241.373,231.614 234.980,241.092 221.093 C 242.461 219.087,242.964 218.807,243.357 219.833 M76.381 262.089 C 74.552 264.854,72.764 265.930,71.438 265.062 C 70.918 264.721,70.381 264.552,70.246 264.687 C 69.762 265.172,70.033 300.527,70.530 301.814 C 71.508 304.343,73.225 305.818,75.891 306.421 C 79.290 307.190,327.778 306.943,329.408 306.169 C 333.854 304.060,333.433 299.165,328.566 296.381 L 326.354 295.115 206.877 295.176 C 85.770 295.239,85.600 295.240,85.600 296.266 C 85.600 296.770,101.205 296.836,206.362 296.775 C 272.781 296.737,327.321 296.828,327.562 296.976 C 328.354 297.466,328.020 298.768,326.918 299.491 C 325.661 300.314,86.397 300.835,84.251 300.019 C 83.600 299.772,83.136 299.219,82.987 298.514 C 82.737 297.327,82.644 297.144,81.400 295.375 C 80.641 294.296,80.590 293.415,80.400 278.219 C 80.185 260.971,80.049 260.000,77.848 260.000 C 77.801 260.000,77.141 260.940,76.381 262.089 " stroke="none" fill="#09090c" fill-rule="evenodd"></path><path id="path2" d="M190.600 18.637 C 181.504 19.332,177.548 19.740,173.400 20.411 C 170.760 20.838,166.800 21.480,164.600 21.838 C 160.815 22.454,155.533 23.699,148.800 25.564 C 97.877 39.668,52.008 81.114,32.398 130.743 C 25.493 148.218,20.772 169.264,20.810 182.400 C 20.829 188.973,21.190 188.201,23.201 177.294 C 29.314 144.121,39.729 119.550,58.104 94.948 C 108.239 27.820,198.498 4.943,278.557 39.073 C 280.294 39.813,281.785 40.348,281.871 40.262 C 282.161 39.972,268.636 32.914,265.400 31.666 C 252.477 26.682,251.758 26.436,243.200 24.084 C 229.577 20.339,203.570 17.646,190.600 18.637 M191.600 113.258 C 180.061 114.461,168.410 122.435,166.989 130.100 C 166.579 132.312,167.482 132.028,169.400 129.343 C 177.198 118.429,188.958 114.166,207.790 115.427 C 210.664 115.620,212.000 115.575,212.000 115.286 C 212.000 113.746,199.159 112.470,191.600 113.258 M267.660 139.450 C 267.627 139.697,266.607 141.259,265.394 142.921 C 261.960 147.622,257.215 150.312,251.095 151.025 C 248.291 151.352,247.876 151.817,249.890 152.376 C 257.745 154.558,268.918 146.945,267.888 140.113 C 267.795 139.501,267.693 139.202,267.660 139.450 M181.200 190.000 C 181.988 190.509,182.915 190.509,182.600 190.000 C 182.464 189.780,181.958 189.603,181.476 189.606 C 180.764 189.611,180.712 189.685,181.200 190.000 M186.400 191.157 C 186.400 191.556,187.521 191.890,189.841 192.182 L 191.400 192.378 189.800 191.600 C 188.114 190.779,186.400 190.556,186.400 191.157 M193.200 192.964 C 193.970 193.243,197.210 193.960,200.400 194.559 C 203.590 195.157,207.396 195.906,208.857 196.223 C 210.319 196.541,212.029 196.795,212.657 196.788 C 214.415 196.769,212.802 195.963,209.800 195.360 C 208.480 195.094,206.230 194.608,204.800 194.278 C 199.986 193.169,195.306 192.400,193.547 192.428 L 191.800 192.456 193.200 192.964 M271.957 234.604 C 263.966 252.670,246.109 265.077,220.400 270.427 C 214.585 271.637,190.503 272.074,186.542 271.041 C 183.791 270.323,181.022 270.188,181.393 270.789 C 182.951 273.309,208.340 274.812,219.600 273.051 C 245.092 269.063,264.761 256.031,271.900 238.400 C 273.931 233.385,273.981 230.028,271.957 234.604 M152.546 262.849 C 149.493 265.614,147.003 266.680,142.800 267.023 C 137.282 267.472,137.039 268.632,142.369 269.079 C 146.088 269.390,149.625 268.450,152.618 266.353 C 153.843 265.495,155.555 264.431,156.423 263.988 C 158.160 263.102,158.374 262.463,157.269 261.462 C 156.054 260.363,154.924 260.695,152.546 262.849 M331.152 307.485 L 328.504 308.886 203.272 308.943 C 75.773 309.001,74.557 309.015,78.107 310.365 C 79.695 310.968,329.029 311.014,330.600 310.412 C 332.165 309.811,334.400 307.641,334.400 306.722 C 334.400 305.795,334.303 305.818,331.152 307.485 " stroke="none" fill="#a7accd" fill-rule="evenodd"></path></g></svg>