<?xml version="1.0" encoding="UTF-8"?>
<!DOCTYPE svg PUBLIC "-//W3C//DTD SVG 1.1//EN" "http://www.w3.org/Graphics/SVG/1.1/DTD/svg11.dtd">
<!-- Creator: CorelDRAW X6 -->
<svg xmlns="http://www.w3.org/2000/svg" xml:space="preserve" width="10in" height="9.68055in" version="1.1" style="shape-rendering:geometricPrecision; text-rendering:geometricPrecision; image-rendering:optimizeQuality; fill-rule:evenodd; clip-rule:evenodd"
viewBox="0 0 10000 9681"
 xmlns:xlink="http://www.w3.org/1999/xlink">
 <defs>
  <style type="text/css">
   <![CDATA[
    .fil1 {fill:#3D4145;fill-rule:nonzero}
    .fil9 {fill:#4D4C4E;fill-rule:nonzero}
    .fil7 {fill:#6B726E;fill-rule:nonzero}
    .fil5 {fill:#9C9EA0;fill-rule:nonzero}
    .fil10 {fill:#BCAE83;fill-rule:nonzero}
    .fil4 {fill:#C7B49C;fill-rule:nonzero}
    .fil0 {fill:#CC4153;fill-rule:nonzero}
    .fil3 {fill:#E7CEB0;fill-rule:nonzero}
    .fil6 {fill:#EDDCA1;fill-rule:nonzero}
    .fil2 {fill:#F3EDAF;fill-rule:nonzero}
    .fil8 {fill:#FEFEFE;fill-rule:nonzero}
   ]]>
  </style>
 </defs>
 <g id="Layer_x0020_1">
  <metadata id="CorelCorpID_0Corel-Layer"/>
  <path class="fil0" d="M1321 4475c85,-22 -201,-49 -103,-81 0,45 226,-170 452,-386 224,-214 448,-428 451,-387 -13,7 -24,13 -32,18 -114,72 -139,207 -147,464 -4,132 7,390 38,631 53,413 101,467 171,494 35,14 89,31 143,38 110,14 -636,1069 -533,1057 1,8 3,17 4,26 -47,83 -94,126 -94,126 163,490 -135,763 -135,763 111,508 -350,629 -350,629l-33 146c90,144 244,103 164,735 -81,632 -500,738 -500,738 32,-97 -149,-331 -149,-331 -601,-1186 308,-1164 308,-1164l7 -151c0,0 -263,-318 -236,-531 26,-213 143,-396 143,-396 0,0 -165,-307 -139,-513 26,-207 111,-329 111,-329 0,0 -118,-269 -88,-513 31,-244 172,-404 172,-404 0,0 258,-206 288,-438 14,-104 50,-185 88,-242z"/>
  <path class="fil1" d="M2329 2957l-361 583c-47,39 -85,88 -113,147l-418 504 203 -118c-44,74 -90,144 -118,186 -79,25 -161,49 -243,69l-57 15 -32 49c-60,92 -96,194 -110,304 -18,139 -178,294 -232,338l-11 8 -8 10c-7,8 -172,199 -208,485 -25,201 33,411 71,519 -33,68 -76,178 -94,322 -24,185 64,410 118,528 -42,83 -103,224 -122,381 -25,201 115,436 207,564 -219,54 -419,249 -433,669 -6,161 68,314 146,475 75,158 153,322 150,483l-4 199 193 -49c21,-6 521,-139 612,-865 58,-461 -88,-624 -165,-713 -1,-1 -1,-1 -3,-3l1 -4 15 -65c194,-86 436,-303 383,-699 90,-117 239,-382 142,-771 18,-24 38,-54 58,-89l26 -46 -8 -53c-1,-6 -1,-13 -3,-18 38,-79 143,-253 224,-386 303,-499 357,-607 304,-715 -24,-50 -71,-83 -126,-90 -39,-6 -79,-17 -104,-26 -13,-19 -43,-96 -78,-374 -29,-232 -40,-479 -36,-606 4,-103 10,-172 19,-224 43,-69 69,-110 86,-132l82 -42 -4 -54 481 -579 -526 304 97 -424zm-360 871c-17,71 -24,161 -28,275 -4,132 7,390 38,631 53,413 101,467 171,494 35,14 89,31 143,38 108,14 -629,1057 -535,1057l1 0c1,8 3,17 4,26 -47,83 -94,126 -94,126 163,490 -135,763 -135,763 111,508 -350,629 -350,629l-33 146c-88,169 244,103 164,735 -79,632 -500,738 -500,738 8,-368 -304,-690 -296,-957 15,-493 307,-539 415,-539 25,0 40,3 40,3l7 -151c0,0 -263,-318 -236,-531 26,-213 143,-396 143,-396 0,0 -165,-307 -139,-513 26,-207 111,-329 111,-329 0,0 -118,-269 -88,-513 31,-244 172,-404 172,-404 0,0 258,-206 288,-438 13,-104 50,-185 88,-242 85,-22 178,-49 276,-81 0,4 1,6 3,6 28,0 225,-342 369,-574zm128 -193c-26,32 -74,106 -128,193 21,-89 57,-149 119,-189 3,-1 6,-3 8,-4zm21 -18c1,0 3,1 3,6 -8,4 -17,8 -24,13 10,-11 17,-18 21,-18z"/>
  <path class="fil1" d="M1113 7942c-26,0 -51,-14 -65,-39 -21,-36 -22,-51 28,-103 1,-1 243,-214 243,-214 0,0 -113,288 -118,292 -13,7 -75,64 -88,64z"/>
  <path class="fil1" d="M757 8422c-50,-222 -38,-265 -15,-322 50,-128 107,-153 113,-156 33,-25 81,-18 106,17 25,33 18,81 -15,106 -4,3 -54,35 -110,111 -25,35 -43,82 -78,244z"/>
  <polygon class="fil2" points="801,7850 1321,7968 1286,8093 786,7968 "/>
  <path class="fil1" d="M801 7774c-15,0 -31,4 -43,14 -18,13 -29,32 -32,53l-15 118c-4,38 19,74 57,83l500 125c6,1 13,3 18,3 33,0 64,-22 74,-56l35 -125c6,-19 3,-42 -8,-60 -11,-18 -28,-31 -49,-35l-519 -118c-6,-1 -11,-3 -17,-3zm0 76l519 118 -35 125 -500 -125 15 -118z"/>
  <path class="fil0" d="M9099 4475c-85,-22 -178,-49 -276,-81 0,45 -226,-170 -452,-386 -224,-214 -448,-428 -451,-387 13,7 24,13 32,18 114,72 139,207 147,464 4,132 -7,390 -38,631 -53,413 -101,467 -171,494 -35,14 -89,31 -143,38 -110,14 636,1069 533,1057 -1,8 -3,17 -4,26 47,83 94,126 94,126 -163,490 135,763 135,763 -111,508 350,629 350,629l33 146c-90,144 -244,103 -164,735 81,632 500,738 500,738 -32,-97 149,-331 149,-331 601,-1186 -308,-1164 -308,-1164l-7 -151c0,0 263,-318 236,-531 -26,-213 -135,-393 -135,-393 0,0 157,-308 131,-515 -26,-207 -111,-329 -111,-329 0,0 118,-269 88,-513 -31,-244 -172,-404 -172,-404 0,0 121,-206 90,-438 -13,-104 -50,-185 -86,-242z"/>
  <path class="fil1" d="M7925 3465c-83,0 -151,63 -157,147l-7 100 89 46c13,7 18,10 19,11 43,28 68,90 78,340 4,126 -7,375 -36,606 -36,278 -65,353 -78,374 -25,10 -65,22 -104,26 -56,7 -103,40 -126,90 -53,110 1,217 304,715 81,132 186,307 224,386 -1,6 -1,11 -3,18l-8 53 26 46c19,35 40,65 58,89 -99,389 51,654 142,771 -53,396 189,613 383,699l15 65 1 4c-1,1 -1,1 -3,3 -78,88 -224,251 -165,713 92,726 592,860 613,865l193 49 -4 -199c-3,-163 75,-325 150,-483 78,-163 150,-315 146,-475 -13,-421 -214,-615 -433,-669 90,-128 232,-361 207,-564 -19,-157 -78,-297 -117,-379 50,-117 135,-344 111,-531 -18,-144 -61,-256 -94,-322 38,-108 97,-318 71,-519 -22,-178 -94,-318 -147,-401 40,-97 89,-261 67,-440 -14,-111 -51,-213 -110,-304l-32 -49 -57 -15c-92,-25 -182,-51 -271,-78l-18 -6c-75,-60 -253,-229 -376,-347 -413,-393 -464,-433 -550,-433zm0 151c71,0 821,785 892,785 4,0 6,-1 6,-6 99,31 192,58 276,81 38,57 74,138 88,242 29,232 -90,438 -90,438 0,0 140,160 172,404 31,244 -88,513 -88,513 0,0 85,122 111,329 26,207 -131,515 -131,515 0,0 108,181 135,393 26,213 -236,531 -236,531l7 151c0,0 15,-3 40,-3 108,0 400,46 415,539 8,268 -303,589 -296,957 0,0 -419,-106 -500,-738 -79,-632 251,-564 164,-735l-33 -146c0,0 -461,-121 -350,-629 0,0 -297,-272 -135,-763 0,0 -47,-43 -94,-126 1,-10 3,-19 4,-26l1 0c93,0 -643,-1043 -535,-1057 54,-7 108,-24 143,-38 69,-26 118,-81 171,-494 31,-240 42,-499 38,-631 -10,-256 -33,-390 -147,-464 -8,-6 -19,-11 -32,-18 -1,-3 0,-4 4,-4z"/>
  <path class="fil1" d="M8421 7361c-18,0 -36,-7 -51,-19 -31,-28 -33,-76 -6,-107l186 -136 -60 239c-14,17 -49,24 -69,24z"/>
  <path class="fil1" d="M9250 7011c-24,0 -76,-76 -90,-96l-125 -272 276 249c25,33 18,81 -17,106 -13,8 -29,14 -44,14z"/>
  <path class="fil1" d="M803 7011c-15,0 -32,-4 -44,-15 -33,-25 -42,-72 -17,-106l276 -249 -129 271c-15,21 -63,99 -86,99z"/>
  <path class="fil0" d="M6250 7789c0,0 -457,426 -1124,472 -685,47 -1201,-418 -1201,-418 19,74 44,238 192,383l-3 0c0,0 1,0 3,0l1 1 4 0c28,38 319,301 925,326 458,19 815,-233 875,-271l13 -3 -1 0c303,-208 317,-492 317,-492z"/>
  <path class="fil0" d="M5128 8261c667,-46 1124,-472 1124,-472 -478,207 -650,144 -864,136 -168,-7 -261,56 -294,82 -40,-28 -133,-76 -288,-64 -214,18 -383,88 -869,-100l25 26c122,100 583,432 1167,392z"/>
  <polygon class="fil3" points="1296,4292 1296,6178 1447,6746 1960,7021 2272,7779 2528,8149 7824,7797 8232,6821 8460,6149 8790,4358 5019,3950 "/>
  <polygon class="fil3" points="5042,6900 5976,7046 6097,7051 6356,7140 7758,7626 7858,7708 7328,8474 6576,9162 5679,9510 4890,9553 4214,9440 3374,9036 2743,8479 2433,8031 2629,7886 4119,7115 "/>
  <path class="fil4" d="M7429 8214c0,0 -1219,1099 -2338,1099 -1118,0 -2324,-960 -2324,-960 0,0 663,1200 2413,1200 1750,0 2249,-1339 2249,-1339z"/>
  <path class="fil3" d="M1785 6850l-3 -3 -251 -175 -4 -7c-10,-10 -17,-21 -21,-33l-4 -7 -121 -994c-90,49 -193,107 -221,131 -24,19 -43,71 -17,308 19,178 82,451 146,657 0,1 1,3 1,4 126,96 313,197 504,161 6,19 11,39 17,58 1,0 1,0 3,0 -6,-19 -11,-39 -18,-60 -3,-15 -7,-28 -11,-40z"/>
  <path class="fil3" d="M8907 5611c-24,-19 -174,-103 -192,-113l-135 946c-3,18 -13,35 -28,46l-1 1 -72 50 -119 83c-4,24 -8,43 -13,61 189,46 372,-90 476,-189 -43,167 -90,304 -126,346 0,0 0,0 1,0 78,-85 204,-613 232,-914 21,-246 1,-299 -24,-318z"/>
  <path class="fil4" d="M1846 6717l114 350c0,0 919,389 1725,151 806,-238 1090,-863 1185,-1213 94,-350 -190,153 -190,153 0,0 -1024,635 -1629,635 -606,0 -1204,-76 -1204,-76z"/>
  <path class="fil4" d="M8261 6717l-114 350c0,0 -919,389 -1725,151 -806,-238 -1090,-863 -1185,-1213 -94,-350 189,151 189,151 0,0 1024,635 1629,635 606,0 1206,-75 1206,-75z"/>
  <path class="fil3" d="M8346 6686c-8,43 -15,76 -29,129 111,26 292,46 378,29 38,-40 85,-181 128,-347 -103,99 -286,236 -476,189z"/>
  <path class="fil3" d="M1813 6949c-6,-19 -11,-39 -18,-60 -193,36 -381,-67 -507,-164 42,132 82,235 114,267 94,18 307,-13 411,-43z"/>
  <path class="fil4" d="M8114 7103c0,0 667,-354 806,-722 139,-368 35,-639 35,-639 0,0 -111,667 -715,972l-125 389z"/>
  <path class="fil4" d="M1964 7061c0,0 -667,-354 -806,-722 -139,-368 -35,-639 -35,-639 0,0 111,667 715,972l125 389z"/>
  <path class="fil1" d="M8260 7033c101,25 251,21 361,21 54,0 110,-10 146,-18 72,-18 126,-65 231,-469 61,-235 104,-489 115,-621 24,-256 15,-392 -89,-478 -51,-43 -201,-124 -279,-164l-4 0 -28 193c0,0 168,93 193,114 25,21 44,74 22,318 -26,301 -153,829 -232,914 -86,17 -268,-3 -378,-29 18,-76 25,-113 39,-190l-189 132c-11,47 -24,94 -36,142 -19,61 -39,121 -60,178 -81,232 -172,442 -272,632l-1 0 0 1c0,0 81,15 210,-44l3 -1c149,-299 224,-538 249,-629z"/>
  <path class="fil1" d="M2392 8174l178 -51c1,0 3,-1 3,-1l0 -1c0,0 -383,-638 -471,-844 -51,-121 -79,-203 -86,-222 -7,-19 -14,-39 -19,-58l-79 -192 -206 -144c4,13 83,215 88,229 6,19 11,40 18,60 -104,31 -315,60 -411,43 -31,-32 -72,-135 -114,-267 -64,-206 -126,-479 -146,-657 -26,-238 -8,-288 17,-308 28,-24 131,-82 221,-131l-24 -194c-47,25 -253,132 -314,185 -103,86 -108,219 -81,468 14,128 63,375 126,603 111,390 193,460 264,476 32,8 74,11 121,11 128,0 292,-25 399,-57 125,389 303,742 518,1050 -3,1 -1,4 -1,4z"/>
  <path class="fil5" d="M1283 4524l40 151c113,-90 215,-164 303,-224 -142,29 -257,54 -343,72z"/>
  <path class="fil4" d="M5550 4890l-90 -49c-10,-4 -167,-82 -388,-72l-19 0c-226,-10 -386,72 -389,72l-92 50 -96 -39c-861,-332 -1533,-371 -2028,-392l-882 157c-22,6 -44,13 -63,18 18,774 175,1290 478,1575 264,249 657,354 1314,354 1015,0 1157,-963 1163,-1004l17 -121 110 -53c3,-1 264,-113 479,-113 217,0 478,111 479,113l110 53 17 121c6,40 156,1004 1163,1004 657,0 1050,-106 1314,-354 296,-278 451,-778 475,-1521l-1228 -285c-458,47 -1038,174 -1743,446l-100 39z"/>
  <path class="fil0" d="M9710 5454c0,0 -1819,-568 -2160,-1503l1588 189c0,0 -122,657 572,1314z"/>
  <path class="fil0" d="M3138 3543l-1007 410c0,0 69,143 82,385l-1203 143c0,0 -29,657 -724,1314 0,0 1485,-357 2232,-1274 -65,394 -275,594 -518,849 0,0 1163,-350 1892,-1429 -43,165 -183,694 -303,890 0,0 3982,-994 4065,-1986l-4551 601c0,1 17,36 35,97z"/>
  <path class="fil1" d="M7672 4042c315,607 1282,1046 1771,1236 -376,-467 -399,-897 -389,-1071l-1382 -165zm2328 1582l-313 -97c-76,-24 -1858,-590 -2208,-1550l-42 -115 1789 214 -15 79c-1,10 -101,629 550,1244l239 225z"/>
  <path class="fil1" d="M1079 4550c-22,161 -118,596 -522,1071 168,-64 392,-156 633,-275 454,-225 1061,-596 1379,-1085l199 -304 -60 358c-54,324 -265,646 -446,874 385,-174 1079,-565 1567,-1287l249 -368 -113 431c-88,333 -165,585 -233,751 300,-89 972,-297 1643,-572 1301,-532 1713,-936 1806,-1204l-3972 572c1,4 3,8 4,13l19 65 -1003 407c24,69 53,186 61,339l4 71 -1215 144zm-1079 1411l233 -221c661,-625 700,-1256 700,-1263l3 -64 64 -8 1131 -135c-19,-179 -69,-285 -69,-286l-35 -72 74 -31 942 -382c-6,-13 -8,-19 -8,-21l-43 -93 101 -15 4267 -615 -8 94c-36,442 -683,922 -1921,1429 -906,369 -1811,621 -1821,624l-185 51 99 -164c39,-64 100,-200 188,-490 -721,842 -1646,1129 -1690,1142l-275 83 199 -207c110,-114 321,-354 467,-629 -751,761 -2043,1158 -2104,1178l-306 94z"/>
  <path class="fil2" d="M9311 3404c-3,-33 -6,-65 -10,-97 -3,-24 -7,-47 -11,-69 -88,-74 -186,-139 -289,-197 -111,-65 -229,-124 -349,-178 -118,-56 -240,-107 -363,-156 -61,-25 -122,-49 -185,-72 -61,-24 -124,-47 -186,-69 131,22 261,51 390,85 83,21 167,46 250,72 -589,-1540 -1997,-2542 -3533,-2542 -1537,0 -2944,1003 -3533,2540 82,-26 167,-50 250,-72 129,-33 258,-63 390,-85 -63,22 -125,46 -188,69 -61,22 -124,47 -185,72 -122,50 -244,100 -363,156 -119,54 -236,113 -347,178 -103,60 -203,125 -289,197 -4,22 -7,46 -10,69 -4,32 -7,65 -10,97 -6,65 -8,132 -8,197 -1,132 7,264 24,394 18,131 42,261 78,386 18,63 38,125 60,185 11,31 24,60 38,89 7,14 13,29 19,42l8 17c10,4 19,10 29,14l58 28c33,15 78,36 115,53 3,-1 4,-4 6,-6l-108 -414c24,-6 229,-60 585,-128 -29,-6 -57,-11 -86,-18 -81,-21 749,-136 1465,-210 656,-68 1314,-111 1975,-113 661,1 1319,46 1975,113 718,74 1743,118 1704,135 -78,31 -157,56 -238,76 -13,3 -24,6 -36,8 390,72 617,131 642,138l-104 394c21,-10 42,-18 63,-28l58 -28c10,-4 19,-10 29,-14l8 -17c7,-14 14,-28 21,-42 13,-29 25,-58 38,-89 22,-60 43,-122 60,-185 36,-126 60,-256 78,-386 17,-131 26,-263 25,-394 -3,-65 -6,-132 -11,-197z"/>
  <path class="fil6" d="M6563 3468c-101,-11 -202,-20 -304,-28 -3,0 -7,-1 -10,-1 117,-246 143,-507 149,-600 90,-64 179,-140 246,-200 1,31 2,67 2,106 0,183 -15,443 -82,688 0,0 0,0 0,1 -1,5 -2,11 -2,17 0,6 1,12 2,17l0 0z"/>
  <path class="fil6" d="M3489 3467c1,-6 2,-11 2,-17 0,-6 -1,-11 -2,-17 -67,-246 -82,-506 -82,-688 0,-39 1,-75 2,-106 67,60 156,136 246,200 6,92 31,353 149,599 -94,7 -187,16 -282,26 -11,1 -22,2 -32,3l0 0z"/>
  <path class="fil1" d="M6975 4035c-331,-35 -663,-63 -994,-82 -326,-19 -653,-31 -979,-31 -325,1 -650,11 -974,31 -335,19 -668,47 -1001,82 -718,74 -1547,190 -1465,210 15,4 29,7 44,10 14,3 28,7 42,8 0,0 317,-6 890,-11 6,0 11,-1 17,-1 67,-6 133,-10 200,-14 79,-6 160,-11 239,-15 17,-1 33,-3 50,-3 42,-3 85,-4 126,-7 99,-6 199,-11 297,-15 140,-7 282,-13 422,-18l618 -17c165,-3 331,-6 494,-6 113,0 225,1 338,3 0,0 0,0 -1,0 0,0 0,0 1,0l958 26c221,10 443,19 664,32 61,3 121,7 181,11 4,0 8,0 13,1 71,4 142,10 213,15 336,1 682,4 1039,8 13,-3 24,-6 36,-8 79,-19 -750,-136 -1467,-210z"/>
  <path class="fil1" d="M9032 7942c-13,0 -25,-3 -38,-10 -7,-4 -168,-346 -168,-346 0,0 242,214 243,214 36,21 49,67 28,103 -14,25 -39,39 -65,39z"/>
  <path class="fil6" d="M2251 3654c-4,-46 -10,-131 -10,-244 0,-141 9,-328 42,-543l997 -283c-8,149 -13,450 51,757 -40,-86 -82,-200 -113,-339 -26,-119 -110,-153 -208,-153 -85,0 -180,26 -255,43 -158,39 -367,92 -401,175 -67,163 -99,585 -99,585l-6 3z"/>
  <path class="fil6" d="M7803 3624c-8,-97 -40,-419 -96,-556 -35,-83 -243,-138 -403,-175 -74,-18 -168,-44 -253,-44 -98,0 -183,34 -209,154 -35,158 -85,286 -131,374 72,-321 68,-638 60,-793l283 80 713 204c12,75 21,147 28,214 19,205 18,371 12,479 -1,24 -3,45 -4,63 0,0 0,0 0,1z"/>
  <path class="fil6" d="M6111 3428c-9,-1 -18,-1 -27,-2 -352,-24 -706,-34 -1058,-34l0 0 0 0 0 0c-10,0 -21,0 -31,0 -351,1 -703,10 -1054,35l0 0c-1,-4 -3,-8 -6,-13 0,0 0,0 0,0 -144,-279 -153,-608 -153,-611l0 0c0,-21 -11,-42 -29,-53l0 0c-36,-25 -74,-53 -108,-81 -74,-699 49,-1346 136,-1699l26 -79c0,0 42,2211 558,2211 517,0 619,0 619,0l104 0c0,0 103,0 619,0 486,0 540,-1961 546,-2190 89,335 226,1013 151,1747l-4 13 0 0c-35,28 -69,54 -104,78l0 0c-18,11 -29,32 -29,53l0 0c0,0 0,0 0,0 0,3 -6,230 -90,466 -17,49 -38,98 -63,145 -3,4 -4,10 -6,14z"/>
  <path class="fil6" d="M1832 3823c141,-113 232,-384 283,-593 -3,66 -5,126 -5,180 0,183 15,294 16,303 0,1 0,3 1,4 -11,4 -22,7 -34,9 -89,29 -177,59 -261,97z"/>
  <path class="fil1" d="M6158 9257c-367,149 -713,207 -978,224 -265,18 -535,-14 -799,-85 -1,0 -3,0 -4,1l-353 51c676,247 1422,263 2129,-6 193,-74 368,-163 529,-261 -8,1 -308,71 -524,76 0,0 0,-1 -1,-1z"/>
  <path class="fil1" d="M2572 8119c0,0 732,1033 1806,1276l-135 58 -218 -7c0,0 -844,-242 -1635,-1278l10 -142 172 92z"/>
  <path class="fil1" d="M7803 3624c-3,29 -4,50 -6,60 -82,-22 -165,-43 -250,-63 -276,-61 -554,-106 -835,-138 -10,-1 -19,-1 -29,-3 1,-4 4,-8 4,-13 8,-31 15,-61 22,-92 72,-319 68,-639 60,-793l997 283c57,356 46,633 36,757zm-1240 -190c-3,11 -3,24 0,35 -104,-11 -208,-21 -314,-29 117,-246 143,-507 149,-600 90,-64 179,-140 246,-200 6,176 1,496 -81,794zm-3074 33c3,-11 3,-22 0,-33 -82,-299 -86,-618 -81,-794 67,60 156,136 246,200 6,92 31,353 149,599 -106,10 -210,18 -314,29zm-150 17c-140,17 -281,35 -419,58 -139,24 -278,49 -415,79 -83,19 -167,40 -250,63 -1,-7 -1,-17 -3,-29 -10,-103 -28,-399 32,-788l997 -283c-7,149 -11,449 53,757 8,43 19,85 31,128 1,4 3,8 4,13 -10,1 -19,1 -29,3zm4932 371c0,0 -1,0 -1,-1 -8,-4 -18,-10 -26,-15 -92,-43 -189,-75 -286,-107 -11,-4 -22,-7 -35,-10 1,-3 1,-6 3,-8 1,-11 26,-194 11,-483 -7,-124 -19,-267 -46,-424 -4,-25 -22,-46 -47,-53l-142 -40c-31,-1100 -483,-1617 -497,-1633 404,651 401,1424 394,1604l-882 -250 -1 0c-4,-1 -7,-1 -11,-1 -1,0 -1,0 -3,0 -4,0 -10,0 -14,1 0,0 -1,0 -3,0 -4,1 -7,1 -11,4 -1,0 -3,1 -4,1 -3,1 -6,4 -8,6l-1 1c-1,0 -1,1 -1,1 -1,1 -1,1 -3,1 -1,1 -25,24 -61,58 3,-82 3,-208 -6,-363 -1,-14 -1,-29 -3,-44 -28,-388 -119,-931 -393,-1407 3,7 29,86 64,219 88,335 226,1013 151,1747 0,3 0,7 -1,10 -1,1 -3,1 -4,3 -35,28 -69,54 -104,78 -18,13 -28,32 -29,53 0,3 -8,332 -153,611 -3,4 -4,10 -6,14 -361,-25 -722,-35 -1085,-36 -361,0 -724,10 -1085,35 -1,-4 -3,-8 -6,-13 -146,-279 -153,-608 -153,-611 0,-21 -11,-42 -29,-53 -36,-25 -74,-51 -108,-81 -74,-699 47,-1347 136,-1700 42,-168 76,-268 79,-276 -397,690 -410,1524 -401,1814 -38,-35 -61,-58 -61,-58 0,0 -1,-1 -3,-1l-1 -1c0,0 -1,-1 -3,-1 -3,-1 -6,-4 -8,-6 -1,-1 -3,-1 -4,-3 -4,-1 -7,-3 -11,-4 -1,0 -1,-1 -3,-1 -6,-1 -10,-1 -14,-1 -1,0 -3,0 -4,0 -4,0 -7,1 -11,1 -1,0 -1,0 -3,0l-881 250c-7,-181 -11,-953 394,-1604 -14,17 -467,533 -497,1633l-142 40c-25,7 -43,28 -47,53 -26,157 -39,299 -46,422 -15,289 10,474 11,483 0,3 1,6 1,8 -11,4 -22,7 -35,10 -97,32 -194,65 -286,108 -8,6 -17,11 -26,15 0,0 -1,0 -1,1 -4,3 -22,11 -42,21 -8,4 -15,7 -22,11 -4,3 -10,6 -14,7 65,-25 133,-44 200,-61 68,-17 136,-32 204,-44 138,-25 275,-47 413,-64 138,-18 276,-33 415,-44 139,-13 278,-24 417,-32 557,-33 1114,-43 1672,-43 558,0 1117,10 1672,43 139,8 278,19 417,32 139,13 278,26 415,46 139,17 276,39 413,64 68,13 136,28 204,44 68,17 135,35 201,61 -4,-3 -7,-4 -11,-6 -8,-4 -17,-8 -25,-13 -15,-10 -32,-18 -38,-19z"/>
  <path class="fil1" d="M4707 2800l200 0 0 -1469 -485 0 0 242 -235 0 0 -476 1713 0 0 476 -233 0 0 -242 -485 0 0 1469 200 0 0 272 -674 0 0 -272 -1 0zm383 454c0,0 83,0 468,0l0 -631 -200 0 0 -1118 132 0 0 242 586 0 0 -828 -2064 0 0 828 586 0 0 -242 132 0 0 1117 -199 0 0 631c375,0 456,0 456,0l103 0 0 1z"/>
  <path class="fil1" d="M1118 4789c-25,-11 -50,-24 -71,-33l-58 -28c-10,-4 -19,-10 -29,-14l-8 -15c-7,-14 -14,-28 -19,-42 -11,-25 -22,-50 -32,-76 -1,-4 -3,-7 -4,-11 -22,-60 -43,-122 -60,-185 -35,-125 -60,-256 -78,-386 -6,-42 -10,-83 -14,-125 -8,-89 -13,-179 -11,-268 0,-29 1,-58 3,-89 1,-36 3,-72 7,-110 3,-33 7,-65 10,-97 3,-22 7,-47 10,-69 88,-74 186,-139 289,-199 111,-65 229,-124 347,-178 119,-56 240,-107 363,-156 61,-25 124,-49 185,-72 8,-3 17,-6 25,-10 54,-21 107,-40 161,-60 -131,22 -261,51 -390,85 -83,21 -167,46 -250,72 589,-1542 1997,-2543 3535,-2543 240,0 478,25 708,72 1249,254 2328,1171 2825,2469 -82,-26 -167,-50 -250,-72 -129,-33 -258,-63 -389,-85 54,19 108,39 163,60 8,3 17,6 24,8 63,24 124,47 185,72 122,50 244,100 363,156 119,54 236,113 349,178 103,60 203,125 289,199 4,22 8,46 11,69 4,32 7,65 10,97 6,65 8,132 8,197 1,132 -8,264 -25,394 -18,131 -42,261 -78,386 -18,63 -38,125 -60,185 -11,31 -24,60 -38,89 -7,14 -14,29 -21,42l-8 17c-10,4 -19,10 -29,14l-58 28c-21,10 -42,18 -63,28l-133 507 71 -267c25,-11 51,-21 81,-33 43,-17 85,-33 128,-51l63 -28c22,-10 42,-19 65,-32l22 -11 14 -22c8,-13 13,-18 17,-28l14 -25c10,-17 18,-33 25,-50 15,-33 31,-67 43,-101 26,-68 49,-135 68,-204 38,-138 64,-278 79,-418 17,-140 19,-283 13,-425 -3,-71 -11,-142 -21,-211 -4,-35 -10,-71 -17,-106 -7,-36 -14,-69 -25,-108l-7 -28 -19 -15c-111,-88 -232,-154 -354,-213 -101,-47 -203,-89 -307,-128 -289,-801 -786,-1512 -1439,-2008 -675,-513 -1468,-783 -2296,-783 -826,0 -1621,271 -2296,783 -653,496 -1150,1206 -1439,2008 -103,38 -206,79 -307,128 -122,58 -243,125 -354,213l-19 15 -7 28c-11,39 -18,72 -25,108 -7,35 -13,69 -17,106 -10,69 -17,140 -21,211 -7,142 -3,283 13,425 15,140 42,281 79,418 19,68 42,136 68,204 13,33 28,67 43,101 8,17 17,33 25,50l14 25c6,10 8,15 17,28l14 22 22 11c24,13 43,22 65,32l63 28c11,4 22,10 35,14l163 -144c-11,-6 -26,-13 -42,-19z"/>
  <polygon class="fil0" points="4707,2800 4907,2800 4907,1331 4422,1331 4422,1572 4188,1572 4188,1096 5900,1096 5900,1572 5667,1572 5667,1331 5182,1331 5182,2800 5381,2800 5381,3072 4707,3072 "/>
  <path class="fil1" d="M6683 9182c0,0 942,-597 1328,-1517l-117 -43 -92 85c0,0 -679,1139 -1643,1550l-13 65 536 -140z"/>
  <path class="fil1" d="M5686 6925c0,0 -222,207 -582,253 -358,46 -640,-174 -640,-174 13,38 29,124 108,197l-1 0c0,0 0,0 1,0l1 0c15,19 175,151 494,151 242,0 424,-140 454,-161l7 -1 -1 0c157,-115 158,-265 158,-265z"/>
  <path class="fil7" d="M5063 5276c215,0 476,111 479,111l110 53 17 121c6,40 156,1004 1163,1004 657,0 1050,-106 1314,-354 306,-288 461,-810 478,-1594 -113,-51 -322,-126 -633,-162 -460,-53 -1240,-26 -2340,397l-97 38 -90 -49c-10,-4 -167,-82 -388,-72l-19 0c-226,-10 -386,72 -389,72l-92 50 -96 -39c-1100,-424 -1879,-450 -2340,-397 -310,36 -519,111 -633,162 15,785 172,1307 478,1594 264,249 657,354 1314,354 1015,0 1157,-963 1163,-1004l17 -121 110 -53c0,-1 263,-111 478,-111zm1768 1744c-1024,0 -1465,-756 -1586,-1256 -61,-18 -132,-33 -182,-33 -50,0 -119,15 -182,33 -121,500 -563,1256 -1586,1256 -1349,0 -2247,-432 -2247,-2539l0 -119 97 -68c46,-32 1122,-753 3408,100 106,-39 286,-89 510,-81 224,-8 404,42 510,81 2285,-853 3363,-132 3408,-100l97 68 0 119c0,2107 -899,2539 -2247,2539z"/>
  <path class="fil1" d="M9240 8422c50,-222 38,-265 15,-322 -50,-128 -107,-153 -113,-156 -33,-25 -81,-18 -106,17 -25,33 -18,81 15,106 4,3 54,35 110,111 25,35 43,82 78,244z"/>
  <path class="fil8" d="M3457 5201c84,0 151,68 151,151 0,84 -68,151 -151,151 -84,0 -151,-68 -151,-151 0,-84 68,-151 151,-151z"/>
  <path class="fil8" d="M6690 5201c84,0 151,68 151,151 0,84 -68,151 -151,151 -84,0 -151,-68 -151,-151 0,-84 68,-151 151,-151z"/>
  <path class="fil1" d="M5063 5200c238,0 510,118 513,119l146 71 22 161c6,38 146,939 1088,939 636,0 1013,-100 1261,-333 281,-264 428,-744 451,-1465 -354,-114 -1176,-375 -2754,232l-125 49 -28 -11c-3,-1 -299,-117 -583,-117 -285,0 -563,115 -565,117l-29 13 -125 -50c-1575,-607 -2399,-346 -2753,-232 24,721 172,1201 451,1465 249,235 626,333 1261,333 950,0 1082,-900 1088,-939l22 -161 146 -71c4,-1 276,-119 514,-119zm1768 1442c-1071,0 -1232,-1025 -1238,-1069l-11 -81 -72 -36c0,0 -247,-104 -446,-104 -200,0 -447,104 -449,106l-69 35 -11 81c-6,43 -157,1069 -1238,1069 -678,0 -1086,-113 -1365,-375 -318,-300 -482,-833 -501,-1629l-1 -57 54 -17c15,-4 31,-10 49,-15 367,-118 1226,-396 2860,233l69 28c85,-32 332,-117 594,-117 264,0 526,86 611,117l71 -28c1635,-631 2493,-353 2860,-233 18,6 33,11 49,15l54 17 -1 57c-18,796 -182,1329 -501,1629 -281,263 -689,375 -1367,375zm-1768 -986c63,0 144,19 203,38l42 13 10 43c49,200 349,1199 1513,1199 756,0 1242,-142 1578,-458 400,-378 594,-1033 594,-2004l0 -90 -79 -43c-1,-1 -6,-3 -10,-6 -192,-115 -1253,-649 -3314,124l-26 10 -26 -10c-104,-39 -272,-83 -481,-76l-6 0c-210,-7 -376,38 -481,76l-26 10 -26 -10c-910,-340 -1731,-471 -2439,-388 -488,58 -775,204 -875,264 -4,3 -8,4 -10,6l-79 43 0 90c0,971 194,1628 594,2004 336,317 822,458 1578,458 1164,0 1464,-999 1513,-1199l10 -43 42 -13c58,-18 140,-38 203,-38zm1768 1440c-967,0 -1482,-649 -1649,-1271 -50,-13 -92,-19 -119,-19 -28,0 -69,7 -119,19 -167,622 -682,1271 -1649,1271 -797,0 -1315,-154 -1682,-500 -431,-407 -640,-1099 -640,-2115l0 -179 163 -89c135,-81 436,-226 935,-285 726,-86 1562,44 2485,386 117,-40 293,-83 508,-76 215,-7 392,35 508,76 922,-342 1758,-472 2485,-386 499,58 800,204 935,285l6 3 157 86 0 179c0,1015 -210,1707 -642,2115 -365,346 -885,500 -1681,500z"/>
  <path class="fil1" d="M7153 5067c-1,7 -36,125 -218,117 10,18 15,-38 -83,-96 126,10 218,22 301,-21z"/>
  <path class="fil1" d="M7206 5137c-1,7 -36,125 -218,117 10,18 15,-38 -83,-96 126,10 218,24 301,-21z"/>
  <path class="fil1" d="M7246 5225c-1,7 -36,125 -218,117 10,18 15,-38 -83,-96 126,11 218,24 301,-21z"/>
  <path class="fil1" d="M6583 5337c8,-58 63,-99 121,-90 58,8 99,63 90,121 -8,58 -63,99 -121,90 -58,-8 -99,-64 -90,-121zm88 631c17,3 32,4 47,6 217,19 306,-90 306,-90 31,-44 50,-108 58,-199 28,-326 -118,-614 -325,-640 -207,-26 -383,219 -425,546 -40,325 132,351 339,378z"/>
  <path class="fil1" d="M2993 5060c1,7 33,126 217,119 -10,18 -14,-38 85,-94 -126,10 -219,21 -301,-25z"/>
  <path class="fil1" d="M2939 5131c1,7 33,126 217,119 -10,18 -14,-38 85,-94 -126,8 -219,21 -301,-25z"/>
  <path class="fil1" d="M2897 5218c1,7 33,126 217,119 -10,18 -14,-38 85,-94 -128,8 -219,21 -301,-25z"/>
  <path class="fil1" d="M3467 5460c-58,7 -113,-33 -119,-92 -8,-58 33,-113 92,-119 58,-7 113,33 119,92 7,58 -33,111 -92,119zm338 138c-36,-326 -208,-575 -415,-551 -207,24 -358,308 -335,636 6,90 26,154 56,199 0,0 88,111 304,94 15,-1 31,-3 47,-6 207,-24 381,-46 343,-372z"/>
  <path class="fil9" d="M5835 8182c0,0 -260,-68 -340,-68 -81,0 -442,100 -442,100l-442 -176 -340 143 426 150 281 0 78 38c0,0 242,-18 357,-38 115,-19 426,-150 426,-150l269 -151 -274 153z"/>
  <path class="fil8" d="M5014 8214c0,0 0,51 38,51 38,0 464,-3 747,-83l-226 -135 -550 15 -8 151z"/>
  <path class="fil8" d="M5078 8214c0,0 0,51 -38,51 -38,0 -464,-3 -747,-83l226 -135 550 15 8 151z"/>
  <path class="fil0" d="M5836 8182c0,0 -311,131 -426,150 -115,19 -361,38 -361,38 0,0 -251,-18 -367,-38 -115,-19 -426,-150 -426,-150l-1 0 3 0c0,0 260,-68 340,-68 81,0 442,100 442,100 0,0 3,0 6,0 1,0 4,0 4,0 1,0 361,-100 442,-100 81,0 340,68 340,68l6 0zm344 -190c-1,-1 -3,0 -3,0 0,0 -218,101 -333,-14 -115,-115 -297,-228 -442,-228 -122,0 -293,103 -340,133 -56,-31 -254,-133 -376,-133 -143,0 -326,114 -442,228 -115,115 -333,14 -333,14 0,0 -1,0 -3,0 -1,1 0,1 0,1l385 410c0,0 192,215 303,275 111,60 367,104 440,104 1,0 10,0 10,0 1,0 4,0 4,0 74,0 329,-44 440,-104 111,-60 303,-275 303,-275l385 -410c3,1 4,0 3,-1z"/>
  <path class="fil1" d="M4381 8190c99,39 242,92 308,104 106,18 332,35 360,38 28,-1 249,-19 354,-38 68,-11 210,-64 308,-104 -82,-19 -179,-39 -218,-39 -72,0 -408,57 -435,61 0,0 -7,1 -13,1 -4,0 -11,-1 -11,-1l-4 0c-39,-7 -363,-61 -433,-61 -39,0 -135,19 -217,39zm668 217l-3 0c-10,-1 -254,-18 -371,-39 -118,-21 -422,-147 -435,-153l-4 -1 -186 -101 204 31c49,-13 265,-67 343,-67 74,0 399,53 447,63 47,-10 372,-63 447,-63 78,0 293,54 343,67l201 -31 -186 104c-13,6 -317,132 -435,153 -115,19 -354,38 -364,39l-3 -1z"/>
  <polygon class="fil2" points="9239,7850 8719,7968 8754,8093 9254,7968 "/>
  <path class="fil1" d="M9239 7774c-6,0 -11,0 -17,1l-519 118c-21,4 -38,17 -49,35 -11,18 -14,39 -8,60l35 125c10,33 40,56 74,56 6,0 13,-1 18,-3l500 -125c38,-10 61,-44 57,-83l-15 -118c-3,-21 -14,-40 -32,-53 -13,-7 -28,-13 -43,-13zm0 76l15 118 -500 125 -35 -125 519 -118z"/>
  <path class="fil6" d="M8243 3837c-90,-42 -186,-74 -282,-106 -10,-4 -22,-8 -33,-11 0,-3 1,-6 1,-8 1,-11 26,-194 11,-483 54,219 151,506 303,608z"/>
  <path class="fil10" d="M8247 3840c-93,-43 -189,-76 -286,-108 0,0 0,0 0,0 96,32 192,63 282,106 1,1 3,2 4,3z"/>
  <path class="fil1" d="M5754 8365c-51,58 -204,218 -288,263 -100,54 -347,97 -413,97l-14 0c-65,0 -313,-43 -413,-97 -83,-46 -236,-206 -289,-264l-258 -275c71,3 149,-13 207,-71 106,-106 276,-211 401,-211 86,0 238,65 349,126l29 17 28 -18c94,-60 225,-125 310,-125 124,0 296,107 401,211 60,60 136,74 207,71l-258 276zm400 -425c-1,1 -183,82 -268,-3 -122,-122 -318,-244 -482,-244 -118,0 -264,76 -343,125 -90,-47 -257,-125 -374,-125 -164,0 -360,124 -482,244 -85,83 -267,3 -269,1 0,0 -115,-42 -115,-26 0,15 432,528 432,528 8,10 200,224 318,288 124,67 392,111 467,111 4,0 7,0 10,0l4 0c75,0 344,-44 468,-111 118,-64 310,-278 317,-286 0,0 431,-517 431,-529 3,-14 -113,28 -113,28z"/>
 </g>
</svg>
