<?xml version="1.0" encoding="UTF-8"?>
<svg width="96px" height="96px" viewBox="0 0 96 96" version="1.1" xmlns="http://www.w3.org/2000/svg" xmlns:xlink="http://www.w3.org/1999/xlink">
    <!-- Generator: Sketch 44.1 (41455) - http://www.bohemiancoding.com/sketch -->
    <title>软件包安装器-96px</title>
    <desc>Created with Sketch.</desc>
    <defs>
        <path d="M76,26 L77.9051611,26 C79.0101939,26 80.271534,26.8201959 80.7193385,27.824993 L87.1146615,42.175007 C87.5638559,43.1829228 87.0281439,44 85.9241546,44 L80,44 L80,77.9934007 C80,79.1016149 79.1026867,80 77.9991611,80 L10.0008389,80 C8.89580608,80 8,79.0974426 8,77.9934007 L8,44 L1.90984537,44 C0.803152132,44 0.270531517,43.1798041 0.717107993,42.175007 L7.09489201,27.824993 C7.54285458,26.8170772 8.80331333,26 9.90683888,26 L12,26 L12,2 C12,0.84 12.7532468,0 14,0 L56.01998,0 L76,20 L76,26 Z" id="path-1"></path>
        <filter x="-9.8%" y="-8.1%" width="119.6%" height="121.2%" filterUnits="objectBoundingBox" id="filter-2">
            <feOffset dx="0" dy="2" in="SourceAlpha" result="shadowOffsetOuter1"></feOffset>
            <feGaussianBlur stdDeviation="2.5" in="shadowOffsetOuter1" result="shadowBlurOuter1"></feGaussianBlur>
            <feComposite in="shadowBlurOuter1" in2="SourceAlpha" operator="out" result="shadowBlurOuter1"></feComposite>
            <feColorMatrix values="0 0 0 0 0   0 0 0 0 0   0 0 0 0 0  0 0 0 0.2 0" type="matrix" in="shadowBlurOuter1"></feColorMatrix>
        </filter>
        <linearGradient x1="49.9995456%" y1="0.694444444%" x2="49.9995456%" y2="26.5027911%" id="linearGradient-3">
            <stop stop-color="#FFFFFF" offset="0%"></stop>
            <stop stop-color="#C9DAE9" offset="100%"></stop>
        </linearGradient>
    </defs>
    <g id="Page-1" stroke="none" stroke-width="1" fill="none" fill-rule="evenodd">
        <g id="软件包安装器-96px">
            <g id="Group-2" transform="translate(4.000000, 8.000000)">
                <g id="Combined-Shape">
                    <use fill="black" fill-opacity="1" filter="url(#filter-2)" xlink:href="#path-1"></use>
                    <use fill-opacity="0" fill="#FFCD6F" fill-rule="evenodd" xlink:href="#path-1"></use>
                </g>
                <path d="M74.001998,78 L14,78 C12.7532468,78 12,77.048 12,76 L12,2 C12,0.84 12.7532468,0 14,0 L56.01998,0 L76,20 L76,76 C75.9360639,78 74.001998,78 74.001998,78 Z" id="path14361" fill="#92D700"></path>
                <path d="M74.001998,78 L14,78 C12.7532468,78 12,77.048 12,76 L12,2 C12,0.84 12.7532468,0 14,0 L56.01998,0 L76,20 L76,76 C75.9360639,78 74.001998,78 74.001998,78 Z" id="path14361" fill="#D70751"></path>
                <g id="Group" transform="translate(12.000000, 0.000000)">
                    <path d="M0,76 C0,77.048 0.753246753,78 2,78 L62.001998,78 C62.001998,78 63.9360639,78 64,76 L64,75 C63.9360639,77 62.001998,77 62.001998,77 L2,77 C0.753246753,77 0,76.048 0,75 L0,76 Z" id="Combined-Shape" fill="#000000" opacity="0.1"></path>
                    <path d="M-3.55271368e-15,2 C-3.55271368e-15,0.84 0.753246753,0 2,0 L44.01998,0 L44.01998,1 L2,1 C0.753246753,1 -3.55271368e-15,1.84 -3.55271368e-15,3 L-3.55271368e-15,39.5 L-3.55271368e-15,2 Z" id="Combined-Shape" fill="#FFFFFF" opacity="0.196711754"></path>
                </g>
                <path d="M28.1469891,60.8430337 C28.1304179,60.8583052 28.1304179,63.2819237 28.0961707,63.9145534 C28.0622919,64.4259859 28.010737,65.5252085 26.7822591,65.5252085 C25.5195341,65.5252085 25.2124147,64.2453274 25.1100415,63.6887302 C24.9907289,63.071372 24.9907289,62.5589647 24.9907289,62.3337914 C24.9907289,61.6108324 25.0419155,59.5927209 26.970066,59.5927209 C27.5504261,59.5927209 27.874485,59.7438112 28.1304179,59.8637086 L28.1469891,60.8430337 L28.1469891,60.8430337 Z M23.1988304,62.6200507 C23.1988304,60.8729269 23.6937568,58.5240413 26.748012,58.5237164 C27.4476847,58.5237164 27.8575455,58.6293171 28.1812362,58.7193215 C28.1812362,56.7324027 28.1812362,56.5065796 27.720557,56.0698799 C28.8809089,55.9798756 29.4104506,55.8141636 30.0243213,55.5577975 C29.8026355,56.7324027 29.8026355,60.6016142 29.8026355,62.8900636 C29.8026355,65.2395991 30.0073818,66.3235501 30.2802542,66.8050896 C30.1266944,66.7898181 29.9904424,66.7751964 29.8538221,66.7751964 C29.7168336,66.7599249 29.5636421,66.7599249 29.3758352,66.7599249 C28.84703,66.7599249 28.5229711,66.7898181 28.1985439,66.8050896 L28.1642968,65.4654222 C27.874485,66.3534433 27.1917518,66.8655257 26.1337731,66.8655257 C25.7585276,66.8655257 23.1988304,66.8655257 23.1988304,62.6200507 Z M37.0597139,62.0023675 L37.0597139,62.0023675 L37.0265716,62.8900636 L32.4868008,62.8900636 C32.4868008,63.6276443 32.5210479,65.7663031 35.1831182,65.7663031 C36.2068498,65.7663031 36.667529,65.5105868 37.0265716,65.3143319 C36.9234619,65.7809248 36.8383964,66.1272952 36.8553359,66.6692708 C36.5482164,66.7453033 35.9844275,66.8950939 34.8248122,66.8950939 C32.2139284,66.8950939 30.6613916,65.6905955 30.6613916,62.6343474 C30.6613916,61.9123632 30.6613916,58.5087698 34.142079,58.5087698 C36.667529,58.5087698 37.0597139,60.2406221 37.0597139,62.0023675 Z M32.4529219,61.8512772 L32.4529219,61.8512772 L35.3705569,61.8512772 C35.4044357,60.7819478 35.3027991,59.4874451 33.9715798,59.4874451 C32.7604096,59.4874451 32.4702296,60.6016142 32.4529219,61.8512772 Z M37.714092,64.290817 L37.7144602,64.290817 L37.7144602,60.5873175 C37.7144602,57.3500859 37.7144602,56.3554893 37.0490347,56.1150445 C37.782218,56.0546084 38.4653195,55.9798756 39.5741165,55.5279044 C39.4378645,56.8981147 39.4212933,59.5780992 39.4212933,60.3458979 C39.6768579,59.7285397 40.1544766,58.5240413 41.7928153,58.5240413 C42.6114323,58.5240413 43.3795993,58.8856832 43.8568497,59.5927209 C44.3514077,60.3458979 44.419902,61.5351248 44.419902,62.0771003 C44.419902,62.9654463 44.2494028,64.1400516 43.7544765,65.013451 C42.7138055,66.8950939 40.785655,66.8950939 40.1202294,66.8950939 C39.0788219,66.8950939 38.2090183,66.7599249 37.5093457,66.5188303 C37.714092,66.0372909 37.714092,65.405311 37.714092,64.290817 Z M42.6110641,62.6496189 L42.6110641,62.6496189 C42.6110641,61.4756635 42.3551312,59.8949015 41.058159,59.8949015 C40.9049676,59.8949015 40.1029217,59.9095231 39.7449839,60.9782027 C39.6249348,61.3102764 39.4717434,61.9867711 39.4717434,63.2819237 C39.4717434,64.3658747 39.4717434,65.2993853 39.5059905,65.8413609 C39.7276762,65.8862006 40.0686746,65.9320151 40.3419152,65.9320151 C42.3212523,65.9320151 42.6110641,64.0497223 42.6110641,62.6496189 Z M47.700262,66.8050896 C47.3585272,66.7599249 47.1191655,66.7297069 46.6242391,66.7297069 C46.079231,66.7297069 45.7028807,66.7602499 45.311064,66.8050896 C45.4815632,66.5188303 45.5496892,66.3830115 45.6008758,65.4049861 C45.6693701,64.0646689 45.6863095,60.4810669 45.5669969,59.7282148 C45.4815632,59.1556962 45.3283717,59.0656919 45.0893783,58.9152515 C46.4883553,58.7947041 46.8809085,58.7046998 47.5290263,58.433712 C47.3931426,59.095585 47.3750984,59.4276588 47.3750984,60.4359022 C47.3415877,65.6311342 47.32428,66.1877313 47.700262,66.8050896 Z M48.4713749,64.3960928 L48.4713749,64.3960928 C48.4713749,62.3779812 49.9045991,61.6413754 52.0724796,61.6410505 C52.5335271,61.6410505 52.8067677,61.6709436 53.1311948,61.6855653 C53.1311948,60.5116099 53.1311948,59.6833751 51.7141736,59.6833751 C50.8274305,59.6833751 49.9572587,59.9543628 49.2910967,60.4664452 C49.1379052,59.8182191 48.967406,59.5329346 48.7622915,59.2015107 C49.2572178,58.9756876 50.2467022,58.5237164 51.9354911,58.5237164 C54.4951882,58.5237164 54.8369231,59.6528321 54.8369231,60.7975442 L54.8196154,63.8690638 C54.8196154,64.6670806 54.8196154,65.2392742 54.8534943,65.8111428 C54.9054174,66.398283 55.0074223,66.5493733 55.1952291,66.8050896 C54.9054174,66.7898181 54.6321768,66.7599249 54.342365,66.7599249 C53.830131,66.7599249 53.5230115,66.7898181 53.215892,66.8050896 C53.1647055,66.2777357 53.1473978,65.8715789 53.1647055,65.2090561 C52.8402783,65.8413609 52.3118413,66.8655257 50.7416286,66.8655257 C50.60464,66.8655257 50.178208,66.8655257 49.7517759,66.6998137 C48.7958021,66.2930072 48.4713749,65.3448749 48.4713749,64.3960928 Z M53.1643372,62.5436932 L52.2591817,62.5436932 C51.6114322,62.5436932 50.1778397,62.6499438 50.1778397,64.0649938 C50.1778397,64.8025744 50.398789,65.5551016 51.4236253,65.5551016 C51.8673651,65.5551016 52.4642963,65.3594965 52.8226023,64.6817022 C53.1131506,64.1549982 53.1304583,63.4924753 53.1643372,62.5436932 Z M62.9928968,65.3146568 C63.0102044,65.8267392 63.0102044,66.3687148 63.2488296,66.8054145 C62.8728477,66.7755214 62.6511619,66.7300318 61.9522257,66.7300318 C61.5423649,66.7300318 61.3206791,66.7605748 60.9962519,66.8054145 C61.0640097,66.6098094 61.0989934,66.5344267 61.1328722,66.2780606 C61.1840588,65.93234 61.218306,64.7726813 61.218306,64.3658747 L61.218306,62.7399481 C61.218306,62.0322606 61.218306,61.0080958 61.1663829,60.6471037 C61.132504,60.3913875 61.0478068,59.6989715 60.0572176,59.6989715 C59.0846726,59.6989715 58.7606137,60.3309513 58.6409328,60.8430337 C58.505049,61.3697378 58.505049,61.9422563 58.505049,64.1702696 C58.5216202,66.097727 58.5216202,66.2777357 58.6921194,66.8050896 C58.4023076,66.7751964 58.0440016,66.7453033 57.5321358,66.7453033 C57.1222749,66.7453033 56.8494026,66.7599249 56.5087725,66.8050896 C56.6280851,66.5639949 56.6965794,66.4434476 56.7304582,65.6005912 C56.7650736,64.7723564 56.8331997,60.70689 56.6785352,59.7438112 C56.593838,59.1560212 56.4226023,59.0208522 56.2355319,58.8704118 C57.6179378,58.8099756 58.060941,58.6140456 58.4881096,58.4190904 L58.4881096,60.014474 C58.6924877,59.5472313 59.1189197,58.5084449 60.8257528,58.5084449 C62.9590179,58.5084449 62.9755891,59.8786552 62.9928968,60.7816228 L62.9928968,65.3146568 Z M47.8442473,56.3028514 L46.4309085,57.5492652 L45.0183063,56.3028514 L46.4309085,55.0564376 L47.8442473,56.3028514 Z M55.6104323,27.3477961 L55.6104333,27.3477933 L55.2704661,28.0680146 C55.7733996,26.5478987 55.4836804,24.8924288 55.5543006,23.4610394 L55.4144201,23.4234641 C55.2912905,19.82326 52.178176,15.9967141 49.4091004,14.7015818 C47.0207337,13.5992934 43.3453838,13.4096189 41.6478158,14.2407483 C41.8814005,14.0338708 42.8125746,13.9469555 42.5319104,13.7876106 C39.8732907,14.0515259 40.4676652,14.7147094 38.4292249,15.2348449 C37.8706108,15.7748978 40.060702,14.8020777 38.8823625,15.5014765 C37.7891281,15.8034172 37.279856,15.311348 35.6596971,16.9876414 C35.8041042,17.220307 36.6881969,16.2977488 35.9507727,17.2239424 C34.4279414,17.035626 31.1414474,20.7073546 30.4434068,21.9241716 L30.808271,21.9866448 C30.2093682,23.4882015 29.4207918,24.4456298 29.3144102,25.3446623 C29.1591398,27.556029 28.3868585,31.5890002 29.4588163,32.8275468 L29.354699,33.8619322 C29.5013693,34.155725 29.6131826,34.4540443 29.7956151,34.730635 L29.557502,34.749651 C30.6851405,38.3082091 30.7688883,34.8157438 32.2586746,38.5114642 C32.0422901,38.4385816 31.8240962,38.3589092 31.5094809,37.93429 C31.4714554,38.2584133 31.9680503,39.2312334 32.556993,39.9903862 L32.3075644,40.275125 C32.6357603,40.8722166 32.9386071,41.0030421 33.1663071,41.2103726 C31.940437,40.5413044 34.3034536,43.4154016 34.5166678,43.7816239 L34.7049851,43.4457312 C34.6773718,43.9287463 35.0508351,44.5520931 35.750686,45.4149112 L36.3337449,45.3918217 C36.5736683,45.867593 37.4518763,46.7240706 37.9846883,46.7648152 L37.6302363,47.2270069 C38.9674666,47.650267 38.2798382,47.7883363 39.9230847,48.3700362 L39.5912674,47.7838098 C40.4296397,48.5112739 40.6885753,49.1472971 41.8714413,49.7050051 C43.5119724,50.2767468 43.7292612,50.049951 45.4123443,50.531608 C43.9854814,50.4917722 42.308282,50.5062579 41.1801915,50.1020101 C33.4836396,48.0178475 26.4425773,38.989044 26.9568262,29.6890823 C26.8387163,27.8063655 27.1442384,25.4537601 26.8309794,24.9852316 C27.2705383,23.552031 27.7807137,21.8055723 28.8060451,19.7268423 C28.7318052,19.5874148 28.9748961,20.1338064 29.4959367,19.2451853 C29.8119111,18.5512191 30.0703947,17.7866337 30.4683048,17.1116808 L30.673372,17.0641501 C30.8784382,15.8722309 33.452857,14.0456468 34.2188016,13.126243 L34.27131,13.4775266 C35.9430749,11.909878 38.9221955,10.8591967 40.599393,10.1104551 C40.1589318,10.5984498 41.5862468,10.0624732 42.6142954,10 C42.2901721,10.1810744 41.9678609,10.3227642 41.6641099,10.5359794 C42.898128,10.2412806 42.8392791,10.6568448 44.1004594,10.4902571 C43.6577339,10.5540856 43.1203917,10.7301786 43.2059544,10.7967253 C44.6151623,10.9596916 44.8306417,10.3612418 46.1348261,10.7958193 L46.052442,10.4101316 C47.8645386,11.063809 48.2438894,10.9529009 50.2130695,11.9976985 C50.9034142,12.0316467 50.9731275,11.571722 52.0165669,11.9967934 C52.2003567,12.3191045 51.9749191,12.3793117 53.2578298,13.1420859 C53.3999717,13.0850481 53.0020616,12.7229003 52.6874454,12.4345392 C55.2654884,13.8125132 58.067156,16.750439 58.9222782,19.894337 C58.1210244,18.4194885 58.8398885,20.6466991 58.5642029,20.5303593 C58.9213721,21.4923151 59.2133546,22.4868639 59.394429,23.5131004 C59.1567689,22.6715597 58.6411609,20.6390032 57.7366949,19.3284801 C57.6624542,20.1740961 56.5696728,18.7440639 57.1672166,20.6064103 C57.6217124,21.2664254 57.2591124,19.9373412 57.8204418,21.1097959 C57.8294959,21.6670509 58.041805,22.2206853 58.1653877,22.9463392 C57.973449,22.9151045 57.7366949,22.1437283 57.5968163,22.3587537 C57.7910164,23.2718198 58.1110652,23.7480469 58.2323856,23.8182104 C58.1703672,23.9712176 58.0083051,23.6756146 57.9969887,24.2966981 C58.0721356,25.7262782 58.3976151,25.1232963 58.5524344,25.191204 C58.3958049,25.8951293 57.7661203,26.7226381 58.0775663,27.9335705 C57.9883887,27.566443 57.813199,27.1975044 57.6814674,26.8498422 C57.5592429,27.8837746 57.9105274,28.0852195 57.4329439,29.3377997 C57.7769846,28.208803 57.7398643,27.1893555 57.4152889,27.6800665 C57.5592429,29.2852875 56.1446024,30.5174972 56.2985156,31.5333225 L55.8874761,30.9674655 C54.7743234,32.5808355 55.8612219,31.8560867 55.1043314,33.0787894 C55.3822784,32.5984905 54.9585662,32.880965 55.320262,32.3368376 C55.0798874,32.3504182 54.2487571,33.3585485 53.48734,33.9515657 C50.496904,36.3485334 46.9270295,36.6622435 43.4703255,35.3716388 C43.3358776,35.4816408 44.0868825,36.0705845 44.6414211,36.3553232 C45.9578308,36.8419616 47.4467102,36.8614251 48.6191649,36.8179679 C46.0854861,37.8777033 41.2494536,35.7423876 39.6673175,32.9094853 C40.0244867,32.9873466 41.2508108,34.9012991 42.1693095,35.2113888 C41.6265402,34.7768104 41.2069006,34.2236299 40.8175906,33.6546045 C41.5509404,34.4970512 42.4418248,35.1851327 43.415097,35.6405336 C43.3535327,35.4042316 43.6839928,35.3567 43.2240644,35.0461582 C40.2938346,32.8003875 38.5618616,30.8923206 39.1634789,26.4741138 C39.6098267,26.1364108 39.7293358,24.2935297 40.7542141,23.6484534 C41.37892,22.2673119 43.2516796,20.9957231 45.2529985,20.9631256 C47.2950621,20.8517654 49.0193392,22.0545497 49.8848727,23.188978 C48.3090752,21.7182049 45.7283178,21.2718571 43.5269112,22.3610179 C41.2761618,23.3745789 39.9416459,25.8530302 40.1362999,28.3206163 C40.2195929,28.1983908 40.2942829,28.2744419 40.3341233,27.9702378 C40.2653161,32.7668885 45.5037862,36.2828936 49.2746534,34.5083676 L49.3190148,34.6084115 C50.8486388,34.1905839 50.6512674,33.8465432 51.6512488,33.1602721 C51.5733866,33.3209751 50.9776531,33.7324248 51.3330111,33.7401617 C51.8191947,33.6106943 53.3375004,32.1974111 54.0853359,31.5333225 C54.4280184,30.794087 53.9019991,31.1336012 54.3804877,30.2037861 L54.965809,29.9127097 C55.2912896,28.9729355 55.651177,28.4414826 55.6104323,27.3477961 Z" id="Combined-Shape" fill="#C10648"></path>
                <path d="M28.1469891,59.8430337 C28.1304179,59.8583052 28.1304179,62.2819237 28.0961707,62.9145534 C28.0622919,63.4259859 28.010737,64.5252085 26.7822591,64.5252085 C25.5195341,64.5252085 25.2124147,63.2453274 25.1100415,62.6887302 C24.9907289,62.071372 24.9907289,61.5589647 24.9907289,61.3337914 C24.9907289,60.6108324 25.0419155,58.5927209 26.970066,58.5927209 C27.5504261,58.5927209 27.874485,58.7438112 28.1304179,58.8637086 L28.1469891,59.8430337 L28.1469891,59.8430337 Z M23.1988304,61.6200507 C23.1988304,59.8729269 23.6937568,57.5240413 26.748012,57.5237164 C27.4476847,57.5237164 27.8575455,57.6293171 28.1812362,57.7193215 C28.1812362,55.7324027 28.1812362,55.5065796 27.720557,55.0698799 C28.8809089,54.9798756 29.4104506,54.8141636 30.0243213,54.5577975 C29.8026355,55.7324027 29.8026355,59.6016142 29.8026355,61.8900636 C29.8026355,64.2395991 30.0073818,65.3235501 30.2802542,65.8050896 C30.1266944,65.7898181 29.9904424,65.7751964 29.8538221,65.7751964 C29.7168336,65.7599249 29.5636421,65.7599249 29.3758352,65.7599249 C28.84703,65.7599249 28.5229711,65.7898181 28.1985439,65.8050896 L28.1642968,64.4654222 C27.874485,65.3534433 27.1917518,65.8655257 26.1337731,65.8655257 C25.7585276,65.8655257 23.1988304,65.8655257 23.1988304,61.6200507 Z M37.0597139,61.0023675 L37.0597139,61.0023675 L37.0265716,61.8900636 L32.4868008,61.8900636 C32.4868008,62.6276443 32.5210479,64.7663031 35.1831182,64.7663031 C36.2068498,64.7663031 36.667529,64.5105868 37.0265716,64.3143319 C36.9234619,64.7809248 36.8383964,65.1272952 36.8553359,65.6692708 C36.5482164,65.7453033 35.9844275,65.8950939 34.8248122,65.8950939 C32.2139284,65.8950939 30.6613916,64.6905955 30.6613916,61.6343474 C30.6613916,60.9123632 30.6613916,57.5087698 34.142079,57.5087698 C36.667529,57.5087698 37.0597139,59.2406221 37.0597139,61.0023675 Z M32.4529219,60.8512772 L32.4529219,60.8512772 L35.3705569,60.8512772 C35.4044357,59.7819478 35.3027991,58.4874451 33.9715798,58.4874451 C32.7604096,58.4874451 32.4702296,59.6016142 32.4529219,60.8512772 Z M37.714092,63.290817 L37.7144602,63.290817 L37.7144602,59.5873175 C37.7144602,56.3500859 37.7144602,55.3554893 37.0490347,55.1150445 C37.782218,55.0546084 38.4653195,54.9798756 39.5741165,54.5279044 C39.4378645,55.8981147 39.4212933,58.5780992 39.4212933,59.3458979 C39.6768579,58.7285397 40.1544766,57.5240413 41.7928153,57.5240413 C42.6114323,57.5240413 43.3795993,57.8856832 43.8568497,58.5927209 C44.3514077,59.3458979 44.419902,60.5351248 44.419902,61.0771003 C44.419902,61.9654463 44.2494028,63.1400516 43.7544765,64.013451 C42.7138055,65.8950939 40.785655,65.8950939 40.1202294,65.8950939 C39.0788219,65.8950939 38.2090183,65.7599249 37.5093457,65.5188303 C37.714092,65.0372909 37.714092,64.405311 37.714092,63.290817 Z M42.6110641,61.6496189 L42.6110641,61.6496189 C42.6110641,60.4756635 42.3551312,58.8949015 41.058159,58.8949015 C40.9049676,58.8949015 40.1029217,58.9095231 39.7449839,59.9782027 C39.6249348,60.3102764 39.4717434,60.9867711 39.4717434,62.2819237 C39.4717434,63.3658747 39.4717434,64.2993853 39.5059905,64.8413609 C39.7276762,64.8862006 40.0686746,64.9320151 40.3419152,64.9320151 C42.3212523,64.9320151 42.6110641,63.0497223 42.6110641,61.6496189 Z M47.700262,65.8050896 C47.3585272,65.7599249 47.1191655,65.7297069 46.6242391,65.7297069 C46.079231,65.7297069 45.7028807,65.7602499 45.311064,65.8050896 C45.4815632,65.5188303 45.5496892,65.3830115 45.6008758,64.4049861 C45.6693701,63.0646689 45.6863095,59.4810669 45.5669969,58.7282148 C45.4815632,58.1556962 45.3283717,58.0656919 45.0893783,57.9152515 C46.4883553,57.7947041 46.8809085,57.7046998 47.5290263,57.433712 C47.3931426,58.095585 47.3750984,58.4276588 47.3750984,59.4359022 C47.3415877,64.6311342 47.32428,65.1877313 47.700262,65.8050896 Z M48.4713749,63.3960928 L48.4713749,63.3960928 C48.4713749,61.3779812 49.9045991,60.6413754 52.0724796,60.6410505 C52.5335271,60.6410505 52.8067677,60.6709436 53.1311948,60.6855653 C53.1311948,59.5116099 53.1311948,58.6833751 51.7141736,58.6833751 C50.8274305,58.6833751 49.9572587,58.9543628 49.2910967,59.4664452 C49.1379052,58.8182191 48.967406,58.5329346 48.7622915,58.2015107 C49.2572178,57.9756876 50.2467022,57.5237164 51.9354911,57.5237164 C54.4951882,57.5237164 54.8369231,58.6528321 54.8369231,59.7975442 L54.8196154,62.8690638 C54.8196154,63.6670806 54.8196154,64.2392742 54.8534943,64.8111428 C54.9054174,65.398283 55.0074223,65.5493733 55.1952291,65.8050896 C54.9054174,65.7898181 54.6321768,65.7599249 54.342365,65.7599249 C53.830131,65.7599249 53.5230115,65.7898181 53.215892,65.8050896 C53.1647055,65.2777357 53.1473978,64.8715789 53.1647055,64.2090561 C52.8402783,64.8413609 52.3118413,65.8655257 50.7416286,65.8655257 C50.60464,65.8655257 50.178208,65.8655257 49.7517759,65.6998137 C48.7958021,65.2930072 48.4713749,64.3448749 48.4713749,63.3960928 Z M53.1643372,61.5436932 L52.2591817,61.5436932 C51.6114322,61.5436932 50.1778397,61.6499438 50.1778397,63.0649938 C50.1778397,63.8025744 50.398789,64.5551016 51.4236253,64.5551016 C51.8673651,64.5551016 52.4642963,64.3594965 52.8226023,63.6817022 C53.1131506,63.1549982 53.1304583,62.4924753 53.1643372,61.5436932 Z M62.9928968,64.3146568 C63.0102044,64.8267392 63.0102044,65.3687148 63.2488296,65.8054145 C62.8728477,65.7755214 62.6511619,65.7300318 61.9522257,65.7300318 C61.5423649,65.7300318 61.3206791,65.7605748 60.9962519,65.8054145 C61.0640097,65.6098094 61.0989934,65.5344267 61.1328722,65.2780606 C61.1840588,64.93234 61.218306,63.7726813 61.218306,63.3658747 L61.218306,61.7399481 C61.218306,61.0322606 61.218306,60.0080958 61.1663829,59.6471037 C61.132504,59.3913875 61.0478068,58.6989715 60.0572176,58.6989715 C59.0846726,58.6989715 58.7606137,59.3309513 58.6409328,59.8430337 C58.505049,60.3697378 58.505049,60.9422563 58.505049,63.1702696 C58.5216202,65.097727 58.5216202,65.2777357 58.6921194,65.8050896 C58.4023076,65.7751964 58.0440016,65.7453033 57.5321358,65.7453033 C57.1222749,65.7453033 56.8494026,65.7599249 56.5087725,65.8050896 C56.6280851,65.5639949 56.6965794,65.4434476 56.7304582,64.6005912 C56.7650736,63.7723564 56.8331997,59.70689 56.6785352,58.7438112 C56.593838,58.1560212 56.4226023,58.0208522 56.2355319,57.8704118 C57.6179378,57.8099756 58.060941,57.6140456 58.4881096,57.4190904 L58.4881096,59.014474 C58.6924877,58.5472313 59.1189197,57.5084449 60.8257528,57.5084449 C62.9590179,57.5084449 62.9755891,58.8786552 62.9928968,59.7816228 L62.9928968,64.3146568 Z M47.8442473,55.3028514 L46.4309085,56.5492652 L45.0183063,55.3028514 L46.4309085,54.0564376 L47.8442473,55.3028514 Z M55.6104323,26.3477961 L55.6104333,26.3477933 L55.2704661,27.0680146 C55.7733996,25.5478987 55.4836804,23.8924288 55.5543006,22.4610394 L55.4144201,22.4234641 C55.2912905,18.82326 52.178176,14.9967141 49.4091004,13.7015818 C47.0207337,12.5992934 43.3453838,12.4096189 41.6478158,13.2407483 C41.8814005,13.0338708 42.8125746,12.9469555 42.5319104,12.7876106 C39.8732907,13.0515259 40.4676652,13.7147094 38.4292249,14.2348449 C37.8706108,14.7748978 40.060702,13.8020777 38.8823625,14.5014765 C37.7891281,14.8034172 37.279856,14.311348 35.6596971,15.9876414 C35.8041042,16.220307 36.6881969,15.2977488 35.9507727,16.2239424 C34.4279414,16.035626 31.1414474,19.7073546 30.4434068,20.9241716 L30.808271,20.9866448 C30.2093682,22.4882015 29.4207918,23.4456298 29.3144102,24.3446623 C29.1591398,26.556029 28.3868585,30.5890002 29.4588163,31.8275468 L29.354699,32.8619322 C29.5013693,33.155725 29.6131826,33.4540443 29.7956151,33.730635 L29.557502,33.749651 C30.6851405,37.3082091 30.7688883,33.8157438 32.2586746,37.5114642 C32.0422901,37.4385816 31.8240962,37.3589092 31.5094809,36.93429 C31.4714554,37.2584133 31.9680503,38.2312334 32.556993,38.9903862 L32.3075644,39.275125 C32.6357603,39.8722166 32.9386071,40.0030421 33.1663071,40.2103726 C31.940437,39.5413044 34.3034536,42.4154016 34.5166678,42.7816239 L34.7049851,42.4457312 C34.6773718,42.9287463 35.0508351,43.5520931 35.750686,44.4149112 L36.3337449,44.3918217 C36.5736683,44.867593 37.4518763,45.7240706 37.9846883,45.7648152 L37.6302363,46.2270069 C38.9674666,46.650267 38.2798382,46.7883363 39.9230847,47.3700362 L39.5912674,46.7838098 C40.4296397,47.5112739 40.6885753,48.1472971 41.8714413,48.7050051 C43.5119724,49.2767468 43.7292612,49.049951 45.4123443,49.531608 C43.9854814,49.4917722 42.308282,49.5062579 41.1801915,49.1020101 C33.4836396,47.0178475 26.4425773,37.989044 26.9568262,28.6890823 C26.8387163,26.8063655 27.1442384,24.4537601 26.8309794,23.9852316 C27.2705383,22.552031 27.7807137,20.8055723 28.8060451,18.7268423 C28.7318052,18.5874148 28.9748961,19.1338064 29.4959367,18.2451853 C29.8119111,17.5512191 30.0703947,16.7866337 30.4683048,16.1116808 L30.673372,16.0641501 C30.8784382,14.8722309 33.452857,13.0456468 34.2188016,12.126243 L34.27131,12.4775266 C35.9430749,10.909878 38.9221955,9.85919665 40.599393,9.11045508 C40.1589318,9.59844981 41.5862468,9.0624732 42.6142954,9 C42.2901721,9.1810744 41.9678609,9.32276422 41.6641099,9.53597941 C42.898128,9.24128059 42.8392791,9.65684482 44.1004594,9.49025708 C43.6577339,9.55408564 43.1203917,9.73017859 43.2059544,9.79672532 C44.6151623,9.95969163 44.8306417,9.36124182 46.1348261,9.79581926 L46.052442,9.41013161 C47.8645386,10.063809 48.2438894,9.95290086 50.2130695,10.9976985 C50.9034142,11.0316467 50.9731275,10.571722 52.0165669,10.9967934 C52.2003567,11.3191045 51.9749191,11.3793117 53.2578298,12.1420859 C53.3999717,12.0850481 53.0020616,11.7229003 52.6874454,11.4345392 C55.2654884,12.8125132 58.067156,15.750439 58.9222782,18.894337 C58.1210244,17.4194885 58.8398885,19.6466991 58.5642029,19.5303593 C58.9213721,20.4923151 59.2133546,21.4868639 59.394429,22.5131004 C59.1567689,21.6715597 58.6411609,19.6390032 57.7366949,18.3284801 C57.6624542,19.1740961 56.5696728,17.7440639 57.1672166,19.6064103 C57.6217124,20.2664254 57.2591124,18.9373412 57.8204418,20.1097959 C57.8294959,20.6670509 58.041805,21.2206853 58.1653877,21.9463392 C57.973449,21.9151045 57.7366949,21.1437283 57.5968163,21.3587537 C57.7910164,22.2718198 58.1110652,22.7480469 58.2323856,22.8182104 C58.1703672,22.9712176 58.0083051,22.6756146 57.9969887,23.2966981 C58.0721356,24.7262782 58.3976151,24.1232963 58.5524344,24.191204 C58.3958049,24.8951293 57.7661203,25.7226381 58.0775663,26.9335705 C57.9883887,26.566443 57.813199,26.1975044 57.6814674,25.8498422 C57.5592429,26.8837746 57.9105274,27.0852195 57.4329439,28.3377997 C57.7769846,27.208803 57.7398643,26.1893555 57.4152889,26.6800665 C57.5592429,28.2852875 56.1446024,29.5174972 56.2985156,30.5333225 L55.8874761,29.9674655 C54.7743234,31.5808355 55.8612219,30.8560867 55.1043314,32.0787894 C55.3822784,31.5984905 54.9585662,31.880965 55.320262,31.3368376 C55.0798874,31.3504182 54.2487571,32.3585485 53.48734,32.9515657 C50.496904,35.3485334 46.9270295,35.6622435 43.4703255,34.3716388 C43.3358776,34.4816408 44.0868825,35.0705845 44.6414211,35.3553232 C45.9578308,35.8419616 47.4467102,35.8614251 48.6191649,35.8179679 C46.0854861,36.8777033 41.2494536,34.7423876 39.6673175,31.9094853 C40.0244867,31.9873466 41.2508108,33.9012991 42.1693095,34.2113888 C41.6265402,33.7768104 41.2069006,33.2236299 40.8175906,32.6546045 C41.5509404,33.4970512 42.4418248,34.1851327 43.415097,34.6405336 C43.3535327,34.4042316 43.6839928,34.3567 43.2240644,34.0461582 C40.2938346,31.8003875 38.5618616,29.8923206 39.1634789,25.4741138 C39.6098267,25.1364108 39.7293358,23.2935297 40.7542141,22.6484534 C41.37892,21.2673119 43.2516796,19.9957231 45.2529985,19.9631256 C47.2950621,19.8517654 49.0193392,21.0545497 49.8848727,22.188978 C48.3090752,20.7182049 45.7283178,20.2718571 43.5269112,21.3610179 C41.2761618,22.3745789 39.9416459,24.8530302 40.1362999,27.3206163 C40.2195929,27.1983908 40.2942829,27.2744419 40.3341233,26.9702378 C40.2653161,31.7668885 45.5037862,35.2828936 49.2746534,33.5083676 L49.3190148,33.6084115 C50.8486388,33.1905839 50.6512674,32.8465432 51.6512488,32.1602721 C51.5733866,32.3209751 50.9776531,32.7324248 51.3330111,32.7401617 C51.8191947,32.6106943 53.3375004,31.1974111 54.0853359,30.5333225 C54.4280184,29.794087 53.9019991,30.1336012 54.3804877,29.2037861 L54.965809,28.9127097 C55.2912896,27.9729355 55.651177,27.4414826 55.6104323,26.3477961 Z" id="Combined-Shape" fill="#FFFFFF"></path>
                <path d="M57.858,20.056 C56.754,20.056 56,19.104 56,18 L56,-1.77635684e-15 L76,20 L57.858,20.056 Z" id="path14363" fill="#FF5491"></path>
            </g>
            <rect id="rect11806" fill="#C0D0DF" x="12" y="36" width="72" height="52" rx="2"></rect>
            <path d="M12,37.9992604 C12,36.8950994 12.8973133,36 14.0008389,36 L81.9991611,36 C83.1041939,36 84,36.8959923 84,37.9992604 L84,85.0007396 C84,86.1049006 83.1026867,87 81.9991611,87 L14.0008389,87 C12.8958061,87 12,86.1040077 12,85.0007396 L12,37.9992604 Z" id="rect11806" fill="#DEE8F2"></path>
            <path d="M91.1146615,50.175007 C91.5638559,51.1829228 91.0281439,52 89.9241546,52 L5.90984537,52 C4.80315213,52 4.27053152,51.1798041 4.71710799,50.175007 L11.094892,35.824993 C11.5428546,34.8170772 12.8033133,34 13.9068389,34 L81.9051611,34 C83.0101939,34 84.271534,34.8201959 84.7193385,35.824993 L91.1146615,50.175007 Z" id="polygon11815" fill="url(#linearGradient-3)"></path>
            <path d="M82.3708347,35.0479964 C82.9244889,35.0483152 83.5560195,35.458533 83.7806842,35.9626421 L90.0684208,50.0712508 C90.293405,50.5760769 90.0379961,50.9855868 89.475281,50.9859306 L6.33435914,51.0367275 C5.78179289,51.0370651 5.51711512,50.624991 5.7372932,50.1295903 L12.0546693,35.9154941 C12.2774851,35.4141584 12.9109636,35.0080063 13.4605926,35.0083228 L82.3708347,35.0479964 Z" id="polygon11815" fill="#F0F8FA"></path>
            <g id="Page-1" transform="translate(29.000000, 62.000000)" fill="#10ACFF">
                <path d="M12.9041321,4.65451163 C12.7569685,4.65451163 8.75476242,4.65474419 8.75476242,4.65474419 C8.75476242,4.65474419 8.75568364,4.05265116 8.75568364,3.9607907 C8.75568364,3.72451163 8.97792606,3.49288372 9.21905333,3.49195349 C9.44267758,3.49125581 12.4490533,3.49195349 12.6807382,3.49195349 C12.8893927,3.49195349 13.1316715,3.72823256 13.13052,3.95706977 C13.1295988,4.13846512 13.1268352,4.24939535 13.1268352,4.42218605 C13.1268352,4.42218605 13.1268352,4.65451163 12.9041321,4.65451163 M14.0480473,7.90706977 C14.28572,7.90706977 14.2871018,7.6924186 14.2871018,7.6707907 C14.2866412,7.59009302 14.2854897,7.06172093 14.2854897,6.98032558 C14.2854897,6.74776744 14.0517321,6.74427907 14.0517321,6.74427907 C14.0517321,6.74427907 9.50439879,6.74055814 9.21168364,6.74055814 C8.74762303,6.74055814 8.75476242,6.28706977 8.75476242,6.28706977 C8.74877455,6.25753488 8.75499273,5.81404651 8.75476242,5.81404651 L13.3626655,5.81404651 C14.6419988,5.81404651 14.5123382,4.88381395 14.5123382,4.88381395 L14.5123382,3.96195349 C14.5123382,3.96195349 14.6371624,2.32567442 12.9039018,2.32567442 L9.02191394,2.32567442 C7.25779273,2.32567442 7.37732,3.94009302 7.37732,3.94009302 C7.37732,4.81451163 7.37778061,5.12706977 7.37778061,6.27730233 C7.37778061,7.90706977 8.99220485,7.89962791 8.99220485,7.89962791 L14.0480473,7.90706977 Z" id="Fill-1"></path>
                <path d="M5.5269503,6.51732558 C5.5269503,6.51732558 5.53063515,6.74406977 5.29664727,6.74406977 C5.04561697,6.74406977 3.81971394,6.74709302 3.06639273,6.74476744 C2.31307152,6.74244186 1.38909576,6.57546512 1.38863515,5.13430233 C1.38817455,3.69337209 2.41486545,3.49360465 3.05556848,3.49360465 C3.69604121,3.49360465 5.52579879,3.49616279 5.52579879,3.49616279 C5.52579879,3.49616279 5.5269503,6.31081395 5.5269503,6.51732558 M6.67961697,0.23244186 C6.58081697,0.232906977 5.85996848,0.232906977 5.76139879,0.23244186 C5.76139879,0.23244186 5.53086545,0.23244186 5.53086545,0.47244186 C5.53086545,0.491511628 5.52971394,2.32546512 5.52971394,2.32546512 C4.56036848,2.32523256 3.55601697,2.32593023 2.54705939,2.32546512 C0.379677576,2.32476744 -0.00193454545,4.22011628 -9.21212122e-05,5.11965116 C0.00221090909,6.01872093 0.389580606,7.90313953 2.58114424,7.90104651 C4.77293818,7.89895349 4.83442909,7.90383721 5.7620897,7.90383721 C6.91107152,7.90383721 6.91245333,6.7477907 6.91245333,6.7477907 L6.91245333,0.465 C6.91245333,0.23244186 6.67961697,0.23244186 6.67961697,0.23244186" id="Fill-3"></path>
                <path d="M31.0941794,1.62790698 L30.1729673,1.62790698 C30.04584,1.62790698 29.9426642,1.52372093 29.9426642,1.39534884 L29.9426642,0.465116279 C29.9426642,0.336744186 30.04584,0.23255814 30.1729673,0.23255814 L31.0941794,0.23255814 C31.2213067,0.23255814 31.3244824,0.336744186 31.3244824,0.465116279 L31.3244824,1.39534884 C31.3244824,1.52372093 31.2213067,1.62790698 31.0941794,1.62790698" id="Fill-6"></path>
                <path d="M31.0941794,7.90697674 L30.1729673,7.90697674 C30.04584,7.90697674 29.9426642,7.8027907 29.9426642,7.6744186 L29.9426642,2.55813953 C29.9426642,2.42976744 30.04584,2.3255814 30.1729673,2.3255814 L31.0941794,2.3255814 C31.2213067,2.3255814 31.3244824,2.42976744 31.3244824,2.55813953 L31.3244824,7.6744186 C31.3244824,7.8027907 31.2213067,7.90697674 31.0941794,7.90697674" id="Fill-9"></path>
                <path d="M35.46996,2.32711628 C33.7781539,2.3247907 31.7851115,2.32665116 31.7851115,2.32665116 L31.7851115,7.67083721 C31.7851115,7.77618605 31.8518994,7.93176744 32.0607842,7.9047907 C32.2860206,7.90409302 32.6399964,7.90269767 32.8652327,7.902 C33.1825903,7.94781395 33.1733782,7.66711628 33.1733782,7.66711628 L33.1664691,3.492 C33.1664691,3.492 34.8515964,3.49037209 35.4681176,3.49037209 C35.5065782,3.49037209 36.3983115,3.50781395 36.3983115,4.65106977 L36.3916327,7.6747907 C36.3914024,7.80339535 36.4945782,7.90781395 36.6221661,7.90781395 L37.5429176,7.90711628 C37.6700448,7.90711628 37.7729903,7.80293023 37.7729903,7.67455814 L37.7729903,4.54548837 C37.7729903,3.2564186 37.1617661,2.32944186 35.46996,2.32711628" id="Fill-11"></path>
                <path d="M23.9551079,3.71202326 C23.9551079,3.71202326 23.951423,3.48527907 24.1854109,3.48527907 C24.4364412,3.48527907 25.6623442,3.48225581 26.4156655,3.4845814 C27.1689867,3.48690698 28.0929624,3.65388372 28.093423,5.09504651 C28.0938836,6.53597674 27.0671927,6.73574419 26.4264897,6.73574419 C25.7857867,6.73574419 23.9562594,6.73318605 23.9562594,6.73318605 C23.9562594,6.73318605 23.9551079,3.91853488 23.9551079,3.71202326 M22.8040533,9.99690698 C22.9028533,9.99644186 23.6227806,9.99644186 23.7213503,9.99690698 C23.7213503,9.99690698 23.9516533,9.99690698 23.9516533,9.75690698 C23.9516533,9.73783721 23.9523442,7.90388372 23.9523442,7.90388372 C24.92192,7.90411628 25.9260412,7.9034186 26.9352291,7.90388372 C29.1023806,7.9045814 29.4839927,6.00923256 29.4821503,5.10969767 C29.4798473,4.21062791 29.0924776,2.3262093 26.9009139,2.32830233 C24.70912,2.33039535 24.6494715,2.32551163 23.7215806,2.32551163 C22.5725988,2.32551163 22.5730594,3.48155814 22.5730594,3.48155814 L22.5730594,9.76434884 C22.5730594,9.99690698 22.8040533,9.99690698 22.8040533,9.99690698" id="Fill-16"></path>
                <path d="M20.5041321,4.65451163 C20.3569685,4.65451163 16.3547624,4.65474419 16.3547624,4.65474419 C16.3547624,4.65474419 16.3556836,4.05265116 16.3556836,3.9607907 C16.3556836,3.72451163 16.5779261,3.49288372 16.8190533,3.49195349 C17.0426776,3.49125581 20.0490533,3.49195349 20.2807382,3.49195349 C20.4893927,3.49195349 20.7316715,3.72823256 20.73052,3.95706977 C20.7295988,4.13846512 20.7270655,4.24939535 20.7270655,4.42218605 C20.7270655,4.42218605 20.7270655,4.65451163 20.5041321,4.65451163 M21.6480473,7.90706977 C21.88572,7.90706977 21.8871018,7.6924186 21.8871018,7.6707907 C21.8866412,7.59009302 21.8854897,7.06172093 21.8854897,6.98032558 C21.8854897,6.74776744 21.6517321,6.74427907 21.6517321,6.74427907 C21.6517321,6.74427907 17.1043988,6.74055814 16.8116836,6.74055814 C16.347623,6.74055814 16.3547624,6.28706977 16.3547624,6.28706977 C16.3487745,6.25753488 16.3549927,5.81404651 16.3547624,5.81404651 L20.9626655,5.81404651 C22.2419988,5.81404651 22.1123382,4.88381395 22.1123382,4.88381395 L22.1123382,3.96195349 C22.1123382,3.96195349 22.2371624,2.32567442 20.5039018,2.32567442 L16.6219139,2.32567442 C14.8577927,2.32567442 14.97732,3.94009302 14.97732,3.94009302 C14.97732,4.81451163 14.9777806,5.12706977 14.9777806,6.27730233 C14.9777806,7.90706977 16.5922048,7.89962791 16.5922048,7.89962791 L21.6480473,7.90706977 Z" id="Fill-21"></path>
            </g>
        </g>
    </g>
</svg>