<?xml version="1.0" encoding="UTF-8" standalone="no"?>
<svg width="48px" height="48px" viewBox="0 0 48 48" version="1.1" xmlns="http://www.w3.org/2000/svg" xmlns:xlink="http://www.w3.org/1999/xlink">
    <!-- Generator: Sketch 3.8.3 (29802) - http://www.bohemiancoding.com/sketch -->
    <title>日历-48px</title>
    <desc>Created with Sketch.</desc>
    <defs>
        <path d="M39,7 L39,6.00324215 C39,5.43798828 38.5531114,5 38.0018463,5 L9.99815369,5 C9.44736519,5 9,5.44916681 9,6.00324215 L9,7 L5.9968754,7 C5.45323029,7 5,7.45207423 5,8.00973606 L5,40.9902639 C5,41.5574707 5.44631632,42 5.9968754,42 L9,42 L9,42.9967579 C9,43.5620117 9.44688863,44 9.99815369,44 L38.0018463,44 C38.5526348,44 39,43.5508332 39,42.9967579 L39,42 L42.0031246,42 C42.5467697,42 43,41.5479258 43,40.9902639 L43,8.00973606 C43,7.44252932 42.5536837,7 42.0031246,7 L39,7 Z" id="path-1"></path>
        <filter x="-50%" y="-50%" width="200%" height="200%" filterUnits="objectBoundingBox" id="filter-2">
            <feOffset dx="0" dy="1" in="SourceAlpha" result="shadowOffsetOuter1"></feOffset>
            <feGaussianBlur stdDeviation="1" in="shadowOffsetOuter1" result="shadowBlurOuter1"></feGaussianBlur>
            <feColorMatrix values="0 0 0 0 0   0 0 0 0 0   0 0 0 0 0  0 0 0 0.2 0" type="matrix" in="shadowBlurOuter1"></feColorMatrix>
        </filter>
    </defs>
    <g id="Page-1" stroke="none" stroke-width="1" fill="none" fill-rule="evenodd">
        <g id="日历-48px">
            <g id="Combined-Shape">
                <use fill="black" fill-opacity="1" filter="url(#filter-2)" xlink:href="#path-1"></use>
                <use fill="#F1F1F1" fill-rule="evenodd" xlink:href="#path-1"></use>
            </g>
            <rect id="Rectangle-1" fill="#F1F1F1" x="9" y="5" width="30" height="39"></rect>
            <rect id="Rectangle-1" fill="#EB3A49" x="5" y="7" width="38" height="35"></rect>
            <path d="M10.9208984,29.5976562 C11.5270213,28.3489521 12.7096266,27.2141978 14.46875,26.1933594 L17.09375,24.6757812 C18.2695371,23.9921841 19.0943987,23.4088566 19.5683594,22.9257812 C20.3157589,22.1692671 20.6894531,21.3033903 20.6894531,20.328125 C20.6894531,19.1887964 20.3476597,18.284183 19.6640625,17.6142578 C18.9804653,16.9443326 18.0690161,16.609375 16.9296875,16.609375 C15.2434812,16.609375 14.0768262,17.2473895 13.4296875,18.5234375 C13.0833316,19.2070347 12.8919273,20.1549419 12.8554688,21.3671875 L10.3535156,21.3671875 C10.3808595,19.6627519 10.6953095,18.2727918 11.296875,17.1972656 C12.3632866,15.3014228 14.2454292,14.3535156 16.9433594,14.3535156 C19.1855581,14.3535156 20.8238881,14.9596294 21.8583984,16.171875 C22.8929088,17.3841206 23.4101562,18.7330655 23.4101562,20.21875 C23.4101562,21.7864662 22.8587295,23.1262965 21.7558594,24.2382812 C21.1178354,24.8854199 19.9739666,25.6692662 18.3242188,26.5898438 L16.4511719,27.6289062 C15.5579382,28.1210962 14.8561223,28.5904926 14.3457031,29.0371094 C13.4342402,29.8300821 12.8600272,30.7096306 12.6230469,31.6757812 L23.3144531,31.6757812 L23.3144531,34 L9.875,34 C9.96614629,32.3137937 10.3147756,30.8463604 10.9208984,29.5976562 L10.9208984,29.5976562 Z M39.2148438,14.75 L39.2148438,16.8964844 C38.5859344,17.5071645 37.7496797,18.5690029 36.7060547,20.0820312 C35.6624297,21.5950596 34.7395873,23.2265538 33.9375,24.9765625 C33.1445273,26.6809981 32.5429708,28.235019 32.1328125,29.6386719 C31.8684883,30.5410201 31.5266948,31.9947816 31.1074219,34 L28.3867188,34 C29.0065135,30.2630021 30.3736873,26.5442893 32.4882812,22.84375 C33.7369854,20.6744683 35.0494723,18.8014402 36.4257812,17.2246094 L25.5976562,17.2246094 L25.5976562,14.75 L39.2148438,14.75 Z" id="27" fill="#FFFFFF"></path>
        </g>
    </g>
</svg>