<?xml version="1.0" encoding="UTF-8"?>
<svg width="48px" height="48px" viewBox="0 0 48 48" version="1.1" xmlns="http://www.w3.org/2000/svg" xmlns:xlink="http://www.w3.org/1999/xlink">
    <!-- Generator: Sketch 49.3 (51167) - http://www.bohemiancoding.com/sketch -->
    <title>dde-introduction</title>
    <desc>Created with Sketch.</desc>
    <defs>
        <circle id="path-1" cx="24" cy="24" r="21"></circle>
        <filter x="-8.3%" y="-6.0%" width="116.7%" height="116.7%" filterUnits="objectBoundingBox" id="filter-2">
            <feOffset dx="0" dy="1" in="SourceAlpha" result="shadowOffsetOuter1"></feOffset>
            <feGaussianBlur stdDeviation="1" in="shadowOffsetOuter1" result="shadowBlurOuter1"></feGaussianBlur>
            <feComposite in="shadowBlurOuter1" in2="SourceAlpha" operator="out" result="shadowBlurOuter1"></feComposite>
            <feColorMatrix values="0 0 0 0 0   0 0 0 0 0   0 0 0 0 0  0 0 0 0.2 0" type="matrix" in="shadowBlurOuter1"></feColorMatrix>
        </filter>
        <linearGradient x1="42.15262%" y1="0%" x2="42.1526194%" y2="100%" id="linearGradient-3">
            <stop stop-color="#30FFAF" offset="0%"></stop>
            <stop stop-color="#08C5FF" offset="100%"></stop>
        </linearGradient>
        <path d="M24.6162616,2.62860722 L24.6162616,2.62860722 C29.9000121,2.62860722 34.1833381,6.91193329 34.1833381,12.1956838 L34.1833381,30.3379095 C34.1833381,31.442479 33.2879076,32.3379095 32.1833381,32.3379095 L15.049185,32.3379095 L15.049185,12.1956838 C15.049185,6.91193329 19.3325111,2.62860722 24.6162616,2.62860722 Z" id="path-4"></path>
        <rect id="path-5" x="21.2747755" y="19.8639995" width="11.4766087" height="1.42833184"></rect>
        <rect id="path-6" x="18.2681334" y="22.8939489" width="11.4766087" height="1.42833184"></rect>
        <path d="M12.3907307,17.0326151 L12.3907307,17.0326151 C14.0345642,17.0326151 15.3671545,18.3652054 15.3671545,20.0090389 L15.3671545,24.6027738 L9.41430685,24.6027738 L9.41430685,20.0090389 C9.41430685,18.3652054 10.7468972,17.0326151 12.3907307,17.0326151 Z" id="path-7"></path>
        <path d="M15.4975942,20.1635628 L15.4975942,20.1635628 C17.0631499,20.1635628 18.3322835,21.4326964 18.3322835,22.9982521 L18.3322835,27.7337216 L12.6629048,27.7337216 L12.6629048,22.9982521 C12.6629048,21.4326964 13.9320385,20.1635628 15.4975942,20.1635628 Z" id="path-8"></path>
        <path d="M18.5042363,23.1935122 L18.5042363,23.1935122 C20.069792,23.1935122 21.3389256,24.4626458 21.3389256,26.0282015 L21.3389256,30.7636709 L15.6695469,30.7636709 L15.6695469,26.0282015 C15.6695469,24.4626458 16.9386806,23.1935122 18.5042363,23.1935122 Z" id="path-9"></path>
        <path d="M21.6110998,26.3244599 L21.6110998,26.3244599 C23.2549332,26.3244599 24.5875236,27.6570502 24.5875236,29.3008837 L24.5875236,31.8946187 C24.5875236,32.9991882 23.6920931,33.8946187 22.5875236,33.8946187 L18.6346759,33.8946187 L18.6346759,29.3008837 C18.6346759,27.6570502 19.9672663,26.3244599 21.6110998,26.3244599 Z" id="path-10"></path>
        <path d="M21.9904463,7.09750987 L21.9904463,12.6070642 C21.9904463,15.5653837 19.7694624,17.9635754 17.0297399,17.9635754 L17.0297399,7.09750987" id="path-11"></path>
    </defs>
    <g id="dde-introduction" stroke="none" stroke-width="1" fill="none" fill-rule="evenodd">
        <g id="Oval">
            <use fill="black" fill-opacity="1" filter="url(#filter-2)" xlink:href="#path-1"></use>
            <use fill-opacity="0.1" fill="#000000" fill-rule="evenodd" xlink:href="#path-1"></use>
        </g>
        <circle id="Oval" fill="url(#linearGradient-3)" cx="24" cy="24" r="21"></circle>
        <g id="Group" transform="translate(3.000000, 7.000000)">
            <g id="Rectangle" transform="translate(24.616262, 17.483258) rotate(-315.000000) translate(-24.616262, -17.483258) ">
                <use fill="#404040" fill-rule="evenodd" xlink:href="#path-4"></use>
                <path stroke="#373737" stroke-width="1.2" d="M15.649185,31.7379095 L32.1833381,31.7379095 C32.9565368,31.7379095 33.5833381,31.1111082 33.5833381,30.3379095 L33.5833381,12.1956838 C33.5833381,7.24330414 29.5686412,3.22860722 24.6162616,3.22860722 C19.6638819,3.22860722 15.649185,7.24330414 15.649185,12.1956838 L15.649185,31.7379095 Z"></path>
            </g>
            <path d="M12.3224818,7.7201027 L30.0905945,7.7201027 C31.195164,7.7201027 32.0905945,8.6155332 32.0905945,9.7201027 L32.0905945,25.1454158 C32.0905945,26.2499853 31.195164,27.1454158 30.0905945,27.1454158 L12.3224818,27.1454158 C6.95832968,27.1454158 2.60982524,22.7969113 2.60982524,17.4327592 L2.60982524,17.4327592 C2.60982524,12.0686071 6.95832968,7.7201027 12.3224818,7.7201027 Z" id="Rectangle-13" fill="#FFFFFF" transform="translate(17.350210, 17.432759) rotate(-315.000000) translate(-17.350210, -17.432759) "></path>
            <g id="Rectangle-2" transform="translate(27.013080, 20.578165) rotate(-315.000000) translate(-27.013080, -20.578165) ">
                <use fill="#606060" fill-rule="evenodd" xlink:href="#path-5"></use>
                <rect stroke="#373737" stroke-width="1.4" x="21.9747755" y="20.5639995" width="10.0766087" height="1"></rect>
            </g>
            <g id="Rectangle-2" transform="translate(24.006438, 23.608115) rotate(-315.000000) translate(-24.006438, -23.608115) ">
                <use fill="#606060" fill-rule="evenodd" xlink:href="#path-6"></use>
                <rect stroke="#373737" stroke-width="1.4" x="18.9681334" y="23.5939489" width="10.0766087" height="1"></rect>
            </g>
            <g id="Rectangle-14" transform="translate(12.390731, 20.817694) rotate(-315.000000) translate(-12.390731, -20.817694) ">
                <use fill="#404040" fill-rule="evenodd" xlink:href="#path-7"></use>
                <path stroke="#373737" stroke-width="1.4" d="M10.1143069,23.9027738 L14.6671545,23.9027738 L14.6671545,20.0090389 C14.6671545,18.7518047 13.6479648,17.7326151 12.3907307,17.7326151 C11.1334965,17.7326151 10.1143069,18.7518047 10.1143069,20.0090389 L10.1143069,23.9027738 Z"></path>
            </g>
            <g id="Rectangle-14" transform="translate(15.497594, 23.948642) rotate(-315.000000) translate(-15.497594, -23.948642) ">
                <use fill="#404040" fill-rule="evenodd" xlink:href="#path-8"></use>
                <path stroke="#373737" stroke-width="1.4" d="M13.3629048,27.0337216 L17.6322835,27.0337216 L17.6322835,22.9982521 C17.6322835,21.8192958 16.6765505,20.8635628 15.4975942,20.8635628 C14.3186378,20.8635628 13.3629048,21.8192958 13.3629048,22.9982521 L13.3629048,27.0337216 Z"></path>
            </g>
            <g id="Rectangle-14" transform="translate(18.504236, 26.978592) rotate(-315.000000) translate(-18.504236, -26.978592) ">
                <use fill="#404040" fill-rule="evenodd" xlink:href="#path-9"></use>
                <path stroke="#373737" stroke-width="1.4" d="M16.3695469,30.0636709 L20.6389256,30.0636709 L20.6389256,26.0282015 C20.6389256,24.8492452 19.6831926,23.8935122 18.5042363,23.8935122 C17.3252799,23.8935122 16.3695469,24.8492452 16.3695469,26.0282015 L16.3695469,30.0636709 Z"></path>
            </g>
            <g id="Rectangle-14" transform="translate(21.611100, 30.109539) rotate(-315.000000) translate(-21.611100, -30.109539) ">
                <use fill="#404040" fill-rule="evenodd" xlink:href="#path-10"></use>
                <path stroke="#373737" stroke-width="1.4" d="M19.3346759,33.1946187 L22.5875236,33.1946187 C23.3054937,33.1946187 23.8875236,32.6125888 23.8875236,31.8946187 L23.8875236,29.3008837 C23.8875236,28.0436495 22.8683339,27.0244599 21.6110998,27.0244599 C20.3538656,27.0244599 19.3346759,28.0436495 19.3346759,29.3008837 L19.3346759,33.1946187 Z"></path>
            </g>
            <g id="Rectangle-15" transform="translate(19.510093, 12.530543) rotate(-315.000000) translate(-19.510093, -12.530543) ">
                <use fill="#404040" fill-rule="evenodd" xlink:href="#path-11"></use>
                <path stroke="#373737" stroke-width="1.4" d="M21.2904463,7.79750987 L17.7297399,7.79750987 L17.7297399,17.2007966 C19.741297,16.8362728 21.2904463,14.9273703 21.2904463,12.6070642 L21.2904463,7.79750987 Z"></path>
            </g>
        </g>
    </g>
</svg>