<?xml version="1.0" encoding="UTF-8"?>
<svg width="256px" height="256px" viewBox="0 0 256 256" version="1.1" xmlns="http://www.w3.org/2000/svg" xmlns:xlink="http://www.w3.org/1999/xlink">
    <!-- Generator: Sketch 48.2 (47327) - http://www.bohemiancoding.com/sketch -->
    <title>deepin-manual</title>
    <desc>Created with Sketch.</desc>
    <defs>
        <rect id="path-1" x="0" y="0" width="200" height="224" rx="8"></rect>
        <filter x="-8.5%" y="-5.8%" width="117.0%" height="115.2%" filterUnits="objectBoundingBox" id="filter-2">
            <feOffset dx="0" dy="4" in="SourceAlpha" result="shadowOffsetOuter1"></feOffset>
            <feGaussianBlur stdDeviation="5" in="shadowOffsetOuter1" result="shadowBlurOuter1"></feGaussianBlur>
            <feComposite in="shadowBlurOuter1" in2="SourceAlpha" operator="out" result="shadowBlurOuter1"></feComposite>
            <feColorMatrix values="0 0 0 0 0   0 0 0 0 0   0 0 0 0 0  0 0 0 0.2 0" type="matrix" in="shadowBlurOuter1"></feColorMatrix>
        </filter>
        <radialGradient cx="50%" cy="17.5739284%" fx="50%" fy="17.5739284%" r="96.0888551%" gradientTransform="translate(0.500000,0.175739),scale(1.000000,0.892857),rotate(90.000000),translate(-0.500000,-0.175739)" id="radialGradient-3">
            <stop stop-color="#04A38C" offset="0%"></stop>
            <stop stop-color="#075661" offset="100%"></stop>
        </radialGradient>
        <linearGradient x1="6.14610779%" y1="65.6183541%" x2="0%" y2="65.6183541%" id="linearGradient-4">
            <stop stop-color="#04A38C" stop-opacity="0" offset="0%"></stop>
            <stop stop-color="#075661" offset="100%"></stop>
        </linearGradient>
    </defs>
    <g id="Page-1" stroke="none" stroke-width="1" fill="none" fill-rule="evenodd">
        <g id="deepin-manual">
            <g id="Group-2" transform="translate(28.000000, 16.000000)">
                <g id="Rectangle-9">
                    <use fill="black" fill-opacity="1" filter="url(#filter-2)" xlink:href="#path-1"></use>
                    <use fill-opacity="0.1" fill="#000000" fill-rule="evenodd" xlink:href="#path-1"></use>
                </g>
                <rect id="Rectangle-9" fill="url(#radialGradient-3)" x="0" y="0" width="200" height="224" rx="8"></rect>
                <path d="M200,10 C200,5.581722 196.418278,2 192,2 L8,2 C3.581722,2 1.36697717e-14,5.581722 1.42108547e-14,10 L1.42108547e-14,8 C1.36697717e-14,3.581722 3.581722,8.11624501e-16 8,0 L192,0 C196.418278,-8.11624501e-16 200,3.581722 200,8 L200,10 Z" id="Combined-Shape" fill-opacity="0.6" fill="#00AB9D"></path>
                <rect id="Rectangle-9" fill="url(#linearGradient-4)" x="0" y="0" width="200" height="224" rx="8"></rect>
                <path d="M8,205 L170.052458,205 L193.08005,205 C196.946043,205 200.08005,201.865993 200.08005,198 C200.08005,197.934672 200.079135,197.869347 200.077306,197.804045 L199.970776,194 L199.970776,216 C199.970776,220.418278 196.389054,224 191.970776,224 L8,224 C3.581722,224 -3.34255086e-15,220.418278 -9.76996262e-15,216 L2.66453526e-14,213 C3.19905983e-14,208.581722 3.581722,205 8,205 Z" id="Rectangle-9" fill="#034849"></path>
                <path d="M9.5,207 L173.441392,207 L194,207 C196.209139,207 198,205.209139 198,203 L197.941545,212.051662 C197.913143,216.449686 194.339828,220 189.941712,220 L9.5,220 C5.91014913,220 3,217.089851 3,213.5 L3,213.5 C3,209.910149 5.91014913,207 9.5,207 Z" id="Rectangle-9" fill="#D5FCF9"></path>
                <g id="Group" transform="translate(63.000000, 39.000000)" fill="#FFFFFF">
                    <path d="M19.3366567,87.5380181 L21.3693298,62.5040433 C23.1335393,58.7493755 26.2827053,55.6525466 30.8445091,53.1902592 C36.6714297,50.0451102 40.1672237,49.2098198 47.249299,48.5206775 C49.1877806,48.3320478 50.336662,48.1948535 51.4518927,47.9864682 L53.4748413,72.9006765 C53.2157375,72.9634753 52.9526499,73.0220722 52.6845132,73.0768809 C51.3157527,73.3566633 50.1152297,73.503245 47.6863731,73.7266586 C39.9453524,74.4387013 36.0051338,75.328663 29.5513828,78.6215265 C24.8949153,80.9973715 21.4824207,83.9746067 19.3366567,87.5380181 Z M18.6147236,96.4291932 L18.6984731,96.4343625 C19.1317858,89.5347852 23.020112,84.2209903 30.4818418,80.4138311 C36.6587043,77.2622429 40.3695539,76.4240879 47.874221,75.7337858 C50.3752034,75.5037378 51.630591,75.3504573 53.0951073,75.0511018 C53.278536,75.0136079 53.4600434,74.9744305 53.6398961,74.9334578 L56,104 L18,104 L18.6147236,96.4291932 Z M21.730126,58.060553 L23.2777778,39 L50.7222222,39 L51.2877391,45.9647871 C50.1754248,46.1828513 49.058,46.3192416 47.0506774,46.5145701 C39.7213446,47.2277725 35.9847549,48.1205989 29.8722388,51.4199015 C26.4398983,53.2725477 23.7227782,55.4886926 21.730126,58.060553 Z M14.6338685,106 L59.3661315,106 C59.9276076,106 60.417194,106.447715 60.4596535,107 L61.9972468,127 C62.0397063,127.552285 61.5860365,128 60.9839471,128 L13.0160529,128 C12.4139635,128 11.9602937,127.552285 12.0027532,127 L13.5403465,107 C13.582806,106.447715 14.0723924,106 14.6338685,106 Z M21,17 L53,17 C53.5522847,17 54,17.4477153 54,18 L54,21 C54,21.5522847 53.5522847,22 53,22 L21,22 C20.4477153,22 20,21.5522847 20,21 L20,18 C20,17.4477153 20.4477153,17 21,17 Z M23,15 L37,7 L51,15 L23,15 Z M37,6 C35.3431458,6 34,4.65685425 34,3 C34,1.34314575 35.3431458,0 37,0 C38.6568542,0 40,1.34314575 40,3 C40,4.65685425 38.6568542,6 37,6 Z M29,25 L29,29 C29,29.5522847 28.5522847,30 28,30 L24,30 C23.4477153,30 23,29.5522847 23,29 L23,25 C23,24.4477153 23.4477153,24 24,24 L28,24 C28.5522847,24 29,24.4477153 29,25 Z M51,25 L51,29 C51,29.5522847 50.5522847,30 50,30 L46,30 C45.4477153,30 45,29.5522847 45,29 L45,25 C45,24.4477153 45.4477153,24 46,24 L50,24 C50.5522847,24 51,24.4477153 51,25 Z M43,25 L43,29 C43,29.5522847 42.5522847,30 42,30 L32,30 C31.4477153,30 31,29.5522847 31,29 L31,25 C31,24.4477153 31.4477153,24 32,24 L42,24 C42.5522847,24 43,24.4477153 43,25 Z M21,32 L53,32 C53.5522847,32 54,32.4477153 54,33 L54,36 C54,36.5522847 53.5522847,37 53,37 L21,37 C20.4477153,37 20,36.5522847 20,36 L20,33 C20,32.4477153 20.4477153,32 21,32 Z M36,53 C35.4477153,53 35,53.4477153 35,54 L35,61 C35,61.5522847 35.4477153,62 36,62 L38,62 C38.5522847,62 39,61.5522847 39,61 L39,54 C39,53.4477153 38.5522847,53 38,53 L36,53 Z" id="Combined-Shape"></path>
                    <path d="M60.408485,132.177917 C60.4139122,132.182023 60.4193688,132.185711 60.4248146,132.188959 C60.4229718,132.18786 60.4209668,132.186732 60.4188012,132.185577 L60.408485,132.177917 Z M58.0998921,131.91516 C56.2298243,131.843788 53.359802,131.87963 49.4949026,132.023113 C41.7493575,132.310663 28.7255877,132.267886 13.013922,133.418766 C12.0048161,132.951673 11.4509605,132.541738 11.3523555,132.188959 C11.2044478,131.659792 11.162573,130.741899 12.1020609,130.156412 C15.1486309,128.748319 56.1993051,129.90904 58.0998921,129.981577 C59.0672583,130.018498 60.6925234,130.059955 61.1696312,130.156412 C61.9128047,130.30666 62.1895683,132.816109 61.9681287,133.418766 C61.4596861,134.802514 51.0352809,133.712241 30.6861596,135.471441 C61.9681287,137.226037 61.8426214,137.262421 58.1380302,139.58183 C51.4673079,143.758305 9.93553266,148.463207 9.93553266,148.463207 C34.5096807,148.463207 64.7933894,151.271563 68.7548778,153.304716 C72.7163662,155.337869 47.2567497,160.14265 37.545963,160.14265 C42.0000207,159.515372 52.2848065,158.463293 58.440408,155.884122 C59.0620436,155.62366 61.5868785,154.61122 60.408485,154.141128 C58.8909711,153.535751 55.8690934,152.754938 51.3071781,152.203407 C42.1169188,151.092316 26.8541007,150.119541 5.52611455,149.286205 C1.51364807,149.459863 0.048869912,149.402631 1.13178008,149.114508 C-2.31463101,147.134164 15.5912114,143.122545 42.0000207,139.58183 C44.1857439,138.1404 37.194666,136.944541 21.0267869,135.994251 C20.7982229,135.251573 22.5937018,134.628578 26.4132236,134.125266 C30.4708189,133.590583 58.6433322,132.385395 59.7670011,132.039362 C59.3590494,131.983834 58.8017478,131.941947 58.0998921,131.91516 Z" id="Path-3" fill-rule="nonzero" opacity="0.200000003"></path>
                </g>
                <path d="M82.4175824,69.1098901 L0,79 L0,53 L82.4175824,62.8901099 L82.4175824,69.1098901 Z M117.582418,62.8901099 L200,53 L200,79 L117.582418,69.1098901 L117.582418,62.8901099 Z" id="Combined-Shape" fill="#FFFFFF" opacity="0.300000012"></path>
                <circle id="Oval" fill="#FEFC6B" cx="100" cy="66" r="2"></circle>
                <path d="M200,214 L200,216 C200,220.418278 196.418278,224 192,224 L8,224 C3.581722,224 5.41083001e-16,220.418278 0,216 L0,214 C5.41083001e-16,218.418278 3.581722,222 8,222 L192,222 C196.418278,222 200,218.418278 200,214 Z" id="Combined-Shape" fill="#002F2B"></path>
            </g>
        </g>
    </g>
</svg>