<?xml version="1.0" standalone="no"?>
<!DOCTYPE svg PUBLIC "-//W3C//DTD SVG 20010904//EN"
 "http://www.w3.org/TR/2001/REC-SVG-20010904/DTD/svg10.dtd">
<svg version="1.0" xmlns="http://www.w3.org/2000/svg"
 width="700.000000pt" height="700.000000pt" viewBox="0 0 700.000000 700.000000"
 preserveAspectRatio="xMidYMid meet">
<metadata>
Created by potrace 1.11, written by Peter Selinger 2001-2013
</metadata>
<g transform="translate(0.000000,700.000000) scale(0.100000,-0.100000)"
fill="#000000" stroke="none">
<path d="M2737 6043 c-1 0 -175 -3 -387 -6 -212 -3 -386 -6 -388 -6 -3 -1 8
-814 11 -818 1 -1 35 -3 76 -4 56 -2 77 -6 90 -20 12 -14 107 -264 117 -309 0
-3 3 -12 7 -20 3 -8 20 -58 38 -110 35 -105 66 -180 73 -180 2 0 53 23 113 51
59 28 268 123 463 211 392 178 426 193 585 268 224 106 228 107 291 116 69 9
206 14 216 8 22 -14 -66 -60 -407 -214 -82 -37 -175 -79 -205 -93 -30 -14
-224 -103 -430 -197 -461 -211 -580 -269 -587 -287 -8 -21 216 -692 235 -702
10 -5 29 -4 51 4 48 17 630 282 846 385 44 21 107 50 140 65 238 106 730 332
860 395 77 37 147 76 157 86 9 11 37 89 63 174 71 235 108 344 125 368 10 14
30 23 60 27 25 3 56 8 70 11 l26 5 -1 394 c0 260 -3 395 -10 396 -16 2 -2297
4 -2298 2z"/>
<path d="M4535 4436 c-44 -18 -138 -60 -210 -93 -71 -33 -152 -70 -180 -83
-99 -45 -301 -138 -375 -173 -41 -19 -102 -47 -135 -62 -65 -29 -343 -157
-570 -262 -249 -115 -365 -175 -365 -189 0 -17 90 -303 163 -522 29 -85 59
-159 67 -165 11 -6 32 -1 70 16 156 71 284 129 365 167 50 23 239 109 420 192
406 184 522 240 558 270 28 23 50 84 137 373 10 33 35 112 55 175 20 63 38
122 40 130 2 8 15 53 29 100 35 122 41 160 25 160 -8 0 -50 -15 -94 -34z"/>
<path d="M4250 3338 c-167 -73 -1024 -463 -1208 -550 -64 -30 -74 -49 -55
-112 60 -205 165 -496 178 -496 11 0 158 62 245 103 52 25 118 55 145 67 28
12 96 44 153 71 57 27 105 49 106 49 2 0 60 27 128 59 135 64 129 58 161 166
23 76 93 301 148 477 27 86 49 161 49 167 0 14 -17 13 -50 -1z"/>
<path d="M3860 2358 c-58 -27 -212 -99 -344 -160 -209 -96 -302 -141 -315
-154 -6 -6 143 -444 152 -444 31 0 404 170 454 206 27 21 38 45 82 177 50 154
121 396 121 416 0 22 -47 9 -150 -41z"/>
<path d="M3710 1621 c-107 -42 -275 -125 -301 -147 -14 -13 -14 -20 -3 -65 21
-82 123 -377 143 -417 l19 -37 16 39 c9 21 16 42 16 46 0 4 41 136 90 293 50
157 90 290 90 296 0 15 -17 13 -70 -8z"/>
</g>
</svg>
